<?xml version="1.0" encoding="UTF-8"?>
<!DOCTYPE svg PUBLIC "-//W3C//DTD SVG 1.1//EN" "http://www.w3.org/Graphics/SVG/1.1/DTD/svg11.dtd">
<svg width="203mm" height="55mm" viewBox="0 0 20300 5500" version="1.1" xmlns="http://www.w3.org/2000/svg" stroke-width="28.222" stroke-linejoin="round" xml:space="preserve">
 <path fill="rgb(255,255,255)" stroke="none" d="M 10173,5544 L 0,5544 0,0 20345,0 20345,5544 10173,5544 Z"/>
 <path fill="none" stroke="rgb(179,179,179)" stroke-linejoin="round" d="M 13199,5196 L 7291,5196 7291,997 19107,997 19107,5196 13199,5196 Z"/>
 <path fill="none" stroke="rgb(179,179,179)" stroke-linejoin="round" d="M 7291,996 L 7291,5195"/>
 <path fill="none" stroke="rgb(179,179,179)" stroke-linejoin="round" d="M 8768,996 L 8768,5195"/>
 <path fill="none" stroke="rgb(179,179,179)" stroke-linejoin="round" d="M 10244,996 L 10244,5195"/>
 <path fill="none" stroke="rgb(179,179,179)" stroke-linejoin="round" d="M 11721,996 L 11721,5195"/>
 <path fill="none" stroke="rgb(179,179,179)" stroke-linejoin="round" d="M 13198,996 L 13198,5195"/>
 <path fill="none" stroke="rgb(179,179,179)" stroke-linejoin="round" d="M 14675,996 L 14675,5195"/>
 <path fill="none" stroke="rgb(179,179,179)" stroke-linejoin="round" d="M 16152,996 L 16152,5195"/>
 <path fill="none" stroke="rgb(179,179,179)" stroke-linejoin="round" d="M 17629,996 L 17629,5195"/>
 <path fill="none" stroke="rgb(179,179,179)" stroke-linejoin="round" d="M 19107,996 L 19107,5195"/>
 <path fill="none" stroke="rgb(179,179,179)" stroke-linejoin="round" d="M 7141,996 L 7291,996"/>
 <path fill="none" stroke="rgb(179,179,179)" stroke-linejoin="round" d="M 7141,996 L 7291,996"/>
 <path fill="none" stroke="rgb(179,179,179)" stroke-linejoin="round" d="M 7141,1836 L 7291,1836"/>
 <path fill="none" stroke="rgb(179,179,179)" stroke-linejoin="round" d="M 7141,1836 L 7291,1836"/>
 <path fill="none" stroke="rgb(179,179,179)" stroke-linejoin="round" d="M 7141,2675 L 7291,2675"/>
 <path fill="none" stroke="rgb(179,179,179)" stroke-linejoin="round" d="M 7141,2675 L 7291,2675"/>
 <path fill="none" stroke="rgb(179,179,179)" stroke-linejoin="round" d="M 7141,3515 L 7291,3515"/>
 <path fill="none" stroke="rgb(179,179,179)" stroke-linejoin="round" d="M 7141,3515 L 7291,3515"/>
 <path fill="none" stroke="rgb(179,179,179)" stroke-linejoin="round" d="M 7141,4355 L 7291,4355"/>
 <path fill="none" stroke="rgb(179,179,179)" stroke-linejoin="round" d="M 7141,4355 L 7291,4355"/>
 <path fill="none" stroke="rgb(179,179,179)" stroke-linejoin="round" d="M 7141,5195 L 7291,5195"/>
 <path fill="none" stroke="rgb(179,179,179)" stroke-linejoin="round" d="M 7141,5195 L 7291,5195"/>
 <path fill="none" stroke="rgb(179,179,179)" stroke-linejoin="round" d="M 7291,5195 L 7291,996"/>
 <path fill="none" stroke="rgb(179,179,179)" stroke-linejoin="round" d="M 7291,846 L 7291,996"/>
 <path fill="none" stroke="rgb(179,179,179)" stroke-linejoin="round" d="M 7291,846 L 7291,996"/>
 <path fill="none" stroke="rgb(179,179,179)" stroke-linejoin="round" d="M 8768,846 L 8768,996"/>
 <path fill="none" stroke="rgb(179,179,179)" stroke-linejoin="round" d="M 8768,846 L 8768,996"/>
 <path fill="none" stroke="rgb(179,179,179)" stroke-linejoin="round" d="M 10244,846 L 10244,996"/>
 <path fill="none" stroke="rgb(179,179,179)" stroke-linejoin="round" d="M 10244,846 L 10244,996"/>
 <path fill="none" stroke="rgb(179,179,179)" stroke-linejoin="round" d="M 11721,846 L 11721,996"/>
 <path fill="none" stroke="rgb(179,179,179)" stroke-linejoin="round" d="M 11721,846 L 11721,996"/>
 <path fill="none" stroke="rgb(179,179,179)" stroke-linejoin="round" d="M 13198,846 L 13198,996"/>
 <path fill="none" stroke="rgb(179,179,179)" stroke-linejoin="round" d="M 13198,846 L 13198,996"/>
 <path fill="none" stroke="rgb(179,179,179)" stroke-linejoin="round" d="M 14675,846 L 14675,996"/>
 <path fill="none" stroke="rgb(179,179,179)" stroke-linejoin="round" d="M 14675,846 L 14675,996"/>
 <path fill="none" stroke="rgb(179,179,179)" stroke-linejoin="round" d="M 16152,846 L 16152,996"/>
 <path fill="none" stroke="rgb(179,179,179)" stroke-linejoin="round" d="M 16152,846 L 16152,996"/>
 <path fill="none" stroke="rgb(179,179,179)" stroke-linejoin="round" d="M 17629,846 L 17629,996"/>
 <path fill="none" stroke="rgb(179,179,179)" stroke-linejoin="round" d="M 17629,846 L 17629,996"/>
 <path fill="none" stroke="rgb(179,179,179)" stroke-linejoin="round" d="M 19107,846 L 19107,996"/>
 <path fill="none" stroke="rgb(179,179,179)" stroke-linejoin="round" d="M 19107,846 L 19107,996"/>
 <path fill="none" stroke="rgb(179,179,179)" stroke-linejoin="round" d="M 7291,996 L 19107,996"/>
 <path fill="rgb(0,69,134)" stroke="none" d="M 7291,4565 L 7291,4985 7734,4985 7734,4565 7291,4565 Z"/>
 <path fill="rgb(0,69,134)" stroke="none" d="M 7291,3725 L 7291,4145 12312,4145 12312,3725 7291,3725 Z"/>
 <path fill="rgb(0,69,134)" stroke="none" d="M 7291,2885 L 7291,3305 13346,3305 13346,2885 7291,2885 Z"/>
 <path fill="rgb(0,69,134)" stroke="none" d="M 7291,2046 L 7291,2466 15561,2466 15561,2046 7291,2046 Z"/>
 <path fill="rgb(0,69,134)" stroke="none" d="M 7291,1206 L 7291,1626 17334,1626 17334,1206 7291,1206 Z"/>
 <text class="TextShape"><tspan class="TextParagraph" font-family="Source Sans Pro" font-size="423px" font-weight="400"><tspan class="TextPosition" x="3629" y="1565"><tspan fill="rgb(0,0,0)" stroke="none">Sites especializados</tspan></tspan></tspan></text>
 <text class="TextShape"><tspan class="TextParagraph" font-family="Source Sans Pro" font-size="423px" font-weight="400"><tspan class="TextPosition" x="3779" y="2404"><tspan fill="rgb(0,0,0)" stroke="none">Blogs sobre o tema</tspan></tspan></tspan></text>
 <text class="TextShape"><tspan class="TextParagraph" font-family="Source Sans Pro" font-size="423px" font-weight="400"><tspan class="TextPosition" x="2882" y="3245"><tspan fill="rgb(0,0,0)" stroke="none">Páginas de redes sociais</tspan></tspan></tspan></text>
 <text class="TextShape"><tspan class="TextParagraph" font-family="Source Sans Pro" font-size="423px" font-weight="400"><tspan class="TextPosition" x="616" y="4085"><tspan fill="rgb(0,0,0)" stroke="none">Grupos de discussão em redes sociais</tspan></tspan></tspan></text>
 <text class="TextShape"><tspan class="TextParagraph" font-family="Source Sans Pro" font-size="423px" font-weight="400"><tspan class="TextPosition" x="1662" y="4925"><tspan fill="rgb(0,0,0)" stroke="none">Grupos de discussão por e-mail</tspan></tspan></tspan></text>
 <text class="TextShape" transform="translate(7084,660) rotate(2.9) translate(-7084,-660)"><tspan class="TextParagraph" font-family="Liberation Sans" font-size="353px" font-weight="400"><tspan class="TextPosition" x="7084" y="660"><tspan fill="rgb(0,0,0)" stroke="none">0</tspan></tspan></tspan></text>
 <text class="TextShape" transform="translate(8362,650) rotate(2.9) translate(-8362,-650)"><tspan class="TextParagraph" font-family="Liberation Sans" font-size="353px" font-weight="400"><tspan class="TextPosition" x="8362" y="650"><tspan fill="rgb(0,0,0)" stroke="none">10</tspan></tspan></tspan></text>
 <text class="TextShape" transform="translate(9839,650) rotate(2.9) translate(-9839,-650)"><tspan class="TextParagraph" font-family="Liberation Sans" font-size="353px" font-weight="400"><tspan class="TextPosition" x="9839" y="650"><tspan fill="rgb(0,0,0)" stroke="none">20</tspan></tspan></tspan></text>
 <text class="TextShape" transform="translate(11316,650) rotate(2.9) translate(-11316,-650)"><tspan class="TextParagraph" font-family="Liberation Sans" font-size="353px" font-weight="400"><tspan class="TextPosition" x="11316" y="650"><tspan fill="rgb(0,0,0)" stroke="none">30</tspan></tspan></tspan></text>
 <text class="TextShape" transform="translate(12793,650) rotate(2.9) translate(-12793,-650)"><tspan class="TextParagraph" font-family="Liberation Sans" font-size="353px" font-weight="400"><tspan class="TextPosition" x="12793" y="650"><tspan fill="rgb(0,0,0)" stroke="none">40</tspan></tspan></tspan></text>
 <text class="TextShape" transform="translate(14270,650) rotate(2.9) translate(-14270,-650)"><tspan class="TextParagraph" font-family="Liberation Sans" font-size="353px" font-weight="400"><tspan class="TextPosition" x="14270" y="650"><tspan fill="rgb(0,0,0)" stroke="none">50</tspan></tspan></tspan></text>
 <text class="TextShape" transform="translate(15747,650) rotate(2.9) translate(-15747,-650)"><tspan class="TextParagraph" font-family="Liberation Sans" font-size="353px" font-weight="400"><tspan class="TextPosition" x="15747" y="650"><tspan fill="rgb(0,0,0)" stroke="none">60</tspan></tspan></tspan></text>
 <text class="TextShape" transform="translate(17224,650) rotate(2.9) translate(-17224,-650)"><tspan class="TextParagraph" font-family="Liberation Sans" font-size="353px" font-weight="400"><tspan class="TextPosition" x="17224" y="650"><tspan fill="rgb(0,0,0)" stroke="none">70</tspan></tspan></tspan></text>
 <text class="TextShape" transform="translate(18702,650) rotate(2.9) translate(-18702,-650)"><tspan class="TextParagraph" font-family="Liberation Sans" font-size="353px" font-weight="400"><tspan class="TextPosition" x="18702" y="650"><tspan fill="rgb(0,0,0)" stroke="none">80</tspan></tspan></tspan></text>
 <text class="TextShape"><tspan class="TextParagraph" font-family="Liberation Sans" font-size="353px" font-weight="400"><tspan class="TextPosition" x="17434" y="1541"><tspan fill="rgb(17,17,17)" stroke="none">68</tspan></tspan></tspan></text>
 <text class="TextShape"><tspan class="TextParagraph" font-family="Liberation Sans" font-size="353px" font-weight="400"><tspan class="TextPosition" x="15661" y="2381"><tspan fill="rgb(17,17,17)" stroke="none">56</tspan></tspan></tspan></text>
 <text class="TextShape"><tspan class="TextParagraph" font-family="Liberation Sans" font-size="353px" font-weight="400"><tspan class="TextPosition" x="13446" y="3221"><tspan fill="rgb(17,17,17)" stroke="none">41</tspan></tspan></tspan></text>
 <text class="TextShape"><tspan class="TextParagraph" font-family="Liberation Sans" font-size="353px" font-weight="400"><tspan class="TextPosition" x="12412" y="4061"><tspan fill="rgb(17,17,17)" stroke="none">34</tspan></tspan></tspan></text>
 <text class="TextShape"><tspan class="TextParagraph" font-family="Liberation Sans" font-size="353px" font-weight="400"><tspan class="TextPosition" x="7834" y="4901"><tspan fill="rgb(17,17,17)" stroke="none">3</tspan></tspan></tspan></text>
</svg>