<?xml version="1.0" encoding="UTF-8"?>
<!DOCTYPE svg PUBLIC "-//W3C//DTD SVG 1.1//EN" "http://www.w3.org/Graphics/SVG/1.1/DTD/svg11.dtd">
<svg width="70mm" height="106mm" viewBox="0 0 7000 10600" version="1.1" xmlns="http://www.w3.org/2000/svg" stroke-width="28.222" stroke-linejoin="round" xml:space="preserve">
 <path fill="rgb(255,255,255)" stroke="none" d="M 3500,10561 L 0,10561 0,0 6999,0 6999,10561 3500,10561 Z"/>
 <path fill="rgb(0,69,134)" stroke="none" d="M 3158,4230 C 2847,4230 2539,4278 2243,4374 1948,4470 1670,4612 1418,4795 1167,4977 946,5198 764,5448 581,5700 439,5978 343,6273 247,6569 199,6877 199,7188 199,7499 247,7807 343,8103 439,8398 581,8676 764,8928 872,9077 994,9216 1129,9342 L 2143,8265 C 2076,8202 2015,8132 1961,8058 1870,7932 1799,7793 1751,7645 1703,7498 1678,7343 1678,7188 1678,7033 1703,6878 1751,6731 1799,6583 1870,6444 1961,6318 2052,6193 2163,6082 2288,5991 2414,5900 2553,5829 2701,5781 2848,5733 3003,5708 3158,5708 L 3158,4230 Z"/>
 <path fill="rgb(255,66,14)" stroke="none" d="M 1129,9342 C 1220,9428 1317,9508 1418,9582 1670,9765 1948,9907 2243,10003 2539,10099 2847,10148 3158,10148 3433,10148 3706,10109 3970,10034 L 3564,8611 C 3432,8649 3296,8668 3158,8668 3003,8668 2848,8643 2701,8595 2553,8547 2414,8476 2288,8385 2237,8348 2189,8308 2143,8265 L 1129,9342 Z"/>
 <path fill="rgb(255,211,32)" stroke="none" d="M 3970,10034 C 4004,10024 4038,10014 4072,10003 4367,9907 4645,9765 4897,9582 5148,9400 5369,9179 5551,8928 5674,8759 5778,8578 5862,8388 L 4510,7788 C 4467,7883 4415,7974 4354,8058 4263,8183 4152,8294 4027,8385 3901,8476 3762,8547 3614,8595 3597,8601 3581,8606 3564,8611 L 3970,10034 Z"/>
 <path fill="rgb(87,157,28)" stroke="none" d="M 5862,8388 C 5904,8295 5940,8200 5972,8103 6068,7807 6117,7499 6117,7188 6117,6877 6068,6569 5972,6273 5928,6139 5875,6008 5812,5881 L 4485,6535 C 4516,6598 4542,6664 4564,6731 4612,6878 4637,7033 4637,7188 4637,7343 4612,7498 4564,7645 4549,7694 4530,7741 4510,7788 L 5862,8388 Z"/>
 <path fill="rgb(126,0,33)" stroke="none" d="M 5812,5881 C 5738,5730 5650,5585 5551,5448 5369,5198 5148,4977 4897,4795 4648,4614 4374,4474 4083,4378 L 3620,5783 C 3765,5830 3903,5901 4027,5991 4152,6082 4263,6193 4354,6318 4404,6387 4447,6459 4485,6535 L 5812,5881 Z"/>
 <path fill="rgb(131,202,255)" stroke="none" d="M 4083,4378 C 4079,4377 4075,4376 4072,4374 3776,4278 3469,4230 3158,4230 L 3158,4230 3158,5708 3158,5708 C 3313,5708 3468,5733 3614,5781 3616,5781 3618,5782 3620,5783 L 4083,4378 Z"/>
 <text class="TextShape"><tspan class="TextParagraph" font-family="Liberation Sans" font-size="353px" font-weight="700"><tspan class="TextPosition" x="896" y="6495"><tspan fill="rgb(255,255,255)" stroke="none">30</tspan></tspan></tspan></text>
 <text class="TextShape"><tspan class="TextParagraph" font-family="Liberation Sans" font-size="353px" font-weight="700"><tspan class="TextPosition" x="2434" y="9471"><tspan fill="rgb(255,255,255)" stroke="none">13</tspan></tspan></tspan></text>
 <text class="TextShape"><tspan class="TextParagraph" font-family="Liberation Sans" font-size="353px" font-weight="700"><tspan class="TextPosition" x="4416" y="8989"><tspan fill="rgb(255,255,255)" stroke="none">11</tspan></tspan></tspan></text>
 <text class="TextShape"><tspan class="TextParagraph" font-family="Liberation Sans" font-size="353px" font-weight="700"><tspan class="TextPosition" x="5178" y="7270"><tspan fill="rgb(255,255,255)" stroke="none">11</tspan></tspan></tspan></text>
 <text class="TextShape"><tspan class="TextParagraph" font-family="Liberation Sans" font-size="353px" font-weight="700"><tspan class="TextPosition" x="4416" y="5639"><tspan fill="rgb(255,255,255)" stroke="none">10</tspan></tspan></tspan></text>
 <text class="TextShape"><tspan class="TextParagraph" font-family="Liberation Sans" font-size="353px" font-weight="700"><tspan class="TextPosition" x="3410" y="5122"><tspan fill="rgb(255,255,255)" stroke="none">4</tspan></tspan></tspan></text>
 <path fill="rgb(0,69,134)" stroke="none" d="M 1724,1118 L 1619,1118 1619,907 1830,907 1830,1118 1724,1118 Z"/>
 <path fill="rgb(255,66,14)" stroke="none" d="M 1724,1653 L 1619,1653 1619,1442 1830,1442 1830,1653 1724,1653 Z"/>
 <path fill="rgb(255,211,32)" stroke="none" d="M 1724,2188 L 1619,2188 1619,1977 1830,1977 1830,2188 1724,2188 Z"/>
 <path fill="rgb(87,157,28)" stroke="none" d="M 1724,2723 L 1619,2723 1619,2512 1830,2512 1830,2723 1724,2723 Z"/>
 <path fill="rgb(126,0,33)" stroke="none" d="M 1724,3258 L 1619,3258 1619,3047 1830,3047 1830,3258 1724,3258 Z"/>
 <path fill="rgb(131,202,255)" stroke="none" d="M 1724,3793 L 1619,3793 1619,3582 1830,3582 1830,3793 1724,3793 Z"/>
 <text class="TextShape"><tspan class="TextParagraph" font-family="Liberation Sans" font-size="353px" font-weight="400"><tspan class="TextPosition" x="1930" y="1137"><tspan fill="rgb(0,0,0)" stroke="none">Entre 18 e 24 anos</tspan></tspan></tspan></text>
 <text class="TextShape"><tspan class="TextParagraph" font-family="Liberation Sans" font-size="353px" font-weight="400"><tspan class="TextPosition" x="1930" y="1672"><tspan fill="rgb(0,0,0)" stroke="none">Entre 25 e 32 anos</tspan></tspan></tspan></text>
 <text class="TextShape"><tspan class="TextParagraph" font-family="Liberation Sans" font-size="353px" font-weight="400"><tspan class="TextPosition" x="1930" y="2207"><tspan fill="rgb(0,0,0)" stroke="none">Entre 41 e 55 anos</tspan></tspan></tspan></text>
 <text class="TextShape"><tspan class="TextParagraph" font-family="Liberation Sans" font-size="353px" font-weight="400"><tspan class="TextPosition" x="1930" y="2742"><tspan fill="rgb(0,0,0)" stroke="none">Entre 33 e 40 anos</tspan></tspan></tspan></text>
 <text class="TextShape"><tspan class="TextParagraph" font-family="Liberation Sans" font-size="353px" font-weight="400"><tspan class="TextPosition" x="1930" y="3277"><tspan fill="rgb(0,0,0)" stroke="none">Mais de 55 anos</tspan></tspan></tspan></text>
 <text class="TextShape"><tspan class="TextParagraph" font-family="Liberation Sans" font-size="353px" font-weight="400"><tspan class="TextPosition" x="1930" y="3812"><tspan fill="rgb(0,0,0)" stroke="none">Menos de 18 anos</tspan></tspan></tspan></text>
</svg>