<?xml version="1.0" encoding="UTF-8"?>
<!DOCTYPE svg PUBLIC "-//W3C//DTD SVG 1.1//EN" "http://www.w3.org/Graphics/SVG/1.1/DTD/svg11.dtd">
<svg width="272mm" height="68mm" viewBox="0 0 27200 6800" version="1.1" xmlns="http://www.w3.org/2000/svg" stroke-width="28.222" stroke-linejoin="round" xml:space="preserve">
 <path fill="rgb(255,255,255)" stroke="none" d="M 13597,6824 L 0,6824 0,0 27193,0 27193,6824 13597,6824 Z"/>
 <path fill="none" stroke="rgb(179,179,179)" stroke-linejoin="round" d="M 15055,5550 L 11140,5550 11140,1058 18970,1058 18970,5550 15055,5550 Z"/>
 <path fill="none" stroke="rgb(179,179,179)" stroke-linejoin="round" d="M 11140,1057 L 11140,5549"/>
 <path fill="none" stroke="rgb(179,179,179)" stroke-linejoin="round" d="M 12445,1057 L 12445,5549"/>
 <path fill="none" stroke="rgb(179,179,179)" stroke-linejoin="round" d="M 13749,1057 L 13749,5549"/>
 <path fill="none" stroke="rgb(179,179,179)" stroke-linejoin="round" d="M 15054,1057 L 15054,5549"/>
 <path fill="none" stroke="rgb(179,179,179)" stroke-linejoin="round" d="M 16359,1057 L 16359,5549"/>
 <path fill="none" stroke="rgb(179,179,179)" stroke-linejoin="round" d="M 17664,1057 L 17664,5549"/>
 <path fill="none" stroke="rgb(179,179,179)" stroke-linejoin="round" d="M 18970,1057 L 18970,5549"/>
 <path fill="none" stroke="rgb(179,179,179)" stroke-linejoin="round" d="M 10990,1057 L 11140,1057"/>
 <path fill="none" stroke="rgb(179,179,179)" stroke-linejoin="round" d="M 10990,1057 L 11140,1057"/>
 <path fill="none" stroke="rgb(179,179,179)" stroke-linejoin="round" d="M 10990,1955 L 11140,1955"/>
 <path fill="none" stroke="rgb(179,179,179)" stroke-linejoin="round" d="M 10990,1955 L 11140,1955"/>
 <path fill="none" stroke="rgb(179,179,179)" stroke-linejoin="round" d="M 10990,2854 L 11140,2854"/>
 <path fill="none" stroke="rgb(179,179,179)" stroke-linejoin="round" d="M 10990,2854 L 11140,2854"/>
 <path fill="none" stroke="rgb(179,179,179)" stroke-linejoin="round" d="M 10990,3751 L 11140,3751"/>
 <path fill="none" stroke="rgb(179,179,179)" stroke-linejoin="round" d="M 10990,3751 L 11140,3751"/>
 <path fill="none" stroke="rgb(179,179,179)" stroke-linejoin="round" d="M 10990,4650 L 11140,4650"/>
 <path fill="none" stroke="rgb(179,179,179)" stroke-linejoin="round" d="M 10990,4650 L 11140,4650"/>
 <path fill="none" stroke="rgb(179,179,179)" stroke-linejoin="round" d="M 10990,5549 L 11140,5549"/>
 <path fill="none" stroke="rgb(179,179,179)" stroke-linejoin="round" d="M 10990,5549 L 11140,5549"/>
 <path fill="none" stroke="rgb(179,179,179)" stroke-linejoin="round" d="M 11140,5549 L 11140,1057"/>
 <path fill="none" stroke="rgb(179,179,179)" stroke-linejoin="round" d="M 11140,907 L 11140,1057"/>
 <path fill="none" stroke="rgb(179,179,179)" stroke-linejoin="round" d="M 11140,907 L 11140,1057"/>
 <path fill="none" stroke="rgb(179,179,179)" stroke-linejoin="round" d="M 12445,907 L 12445,1057"/>
 <path fill="none" stroke="rgb(179,179,179)" stroke-linejoin="round" d="M 12445,907 L 12445,1057"/>
 <path fill="none" stroke="rgb(179,179,179)" stroke-linejoin="round" d="M 13749,907 L 13749,1057"/>
 <path fill="none" stroke="rgb(179,179,179)" stroke-linejoin="round" d="M 13749,907 L 13749,1057"/>
 <path fill="none" stroke="rgb(179,179,179)" stroke-linejoin="round" d="M 15054,907 L 15054,1057"/>
 <path fill="none" stroke="rgb(179,179,179)" stroke-linejoin="round" d="M 15054,907 L 15054,1057"/>
 <path fill="none" stroke="rgb(179,179,179)" stroke-linejoin="round" d="M 16359,907 L 16359,1057"/>
 <path fill="none" stroke="rgb(179,179,179)" stroke-linejoin="round" d="M 16359,907 L 16359,1057"/>
 <path fill="none" stroke="rgb(179,179,179)" stroke-linejoin="round" d="M 17664,907 L 17664,1057"/>
 <path fill="none" stroke="rgb(179,179,179)" stroke-linejoin="round" d="M 17664,907 L 17664,1057"/>
 <path fill="none" stroke="rgb(179,179,179)" stroke-linejoin="round" d="M 18970,907 L 18970,1057"/>
 <path fill="none" stroke="rgb(179,179,179)" stroke-linejoin="round" d="M 18970,907 L 18970,1057"/>
 <path fill="none" stroke="rgb(179,179,179)" stroke-linejoin="round" d="M 11140,1057 L 18970,1057"/>
 <path fill="rgb(0,69,134)" stroke="none" d="M 11140,4875 L 11140,5324 12575,5324 12575,4875 11140,4875 Z"/>
 <path fill="rgb(0,69,134)" stroke="none" d="M 11140,3976 L 11140,4425 15054,4425 15054,3976 11140,3976 Z"/>
 <path fill="rgb(0,69,134)" stroke="none" d="M 11140,3078 L 11140,3527 15837,3527 15837,3078 11140,3078 Z"/>
 <path fill="rgb(0,69,134)" stroke="none" d="M 11140,2180 L 11140,2629 17012,2629 17012,2180 11140,2180 Z"/>
 <path fill="rgb(0,69,134)" stroke="none" d="M 11140,1281 L 11140,1730 17925,1730 17925,1281 11140,1281 Z"/>
 <text class="TextShape"><tspan class="TextParagraph" font-family="Source Sans Pro" font-size="423px" font-weight="400"><tspan class="TextPosition" x="5163" y="1655"><tspan fill="rgb(0,0,0)" stroke="none">Encontrar informações confiáveis</tspan></tspan></tspan></text>
 <text class="TextShape"><tspan class="TextParagraph" font-family="Source Sans Pro" font-size="423px" font-weight="400"><tspan class="TextPosition" x="4914" y="2553"><tspan fill="rgb(0,0,0)" stroke="none">Identificar corretamente as plantas</tspan></tspan></tspan></text>
 <text class="TextShape"><tspan class="TextParagraph" font-family="Source Sans Pro" font-size="423px" font-weight="400"><tspan class="TextPosition" x="1377" y="3452"><tspan fill="rgb(0,0,0)" stroke="none">Informações contraditórias em sites ou meios diferentes</tspan></tspan></tspan></text>
 <text class="TextShape"><tspan class="TextParagraph" font-family="Source Sans Pro" font-size="423px" font-weight="400"><tspan class="TextPosition" x="4889" y="4351"><tspan fill="rgb(0,0,0)" stroke="none">Pouca informação sobre as plantas</tspan></tspan></tspan></text>
 <text class="TextShape"><tspan class="TextParagraph" font-family="Source Sans Pro" font-size="423px" font-weight="400"><tspan class="TextPosition" x="1851" y="5249"><tspan fill="rgb(0,0,0)" stroke="none">Encontrar os sites e grupos para realizar as pesquisas</tspan></tspan></tspan></text>
 <text class="TextShape" transform="translate(10933,721) rotate(2.9) translate(-10933,-721)"><tspan class="TextParagraph" font-family="Liberation Sans" font-size="353px" font-weight="400"><tspan class="TextPosition" x="10933" y="721"><tspan fill="rgb(0,0,0)" stroke="none">0</tspan></tspan></tspan></text>
 <text class="TextShape" transform="translate(12039,711) rotate(2.9) translate(-12039,-711)"><tspan class="TextParagraph" font-family="Liberation Sans" font-size="353px" font-weight="400"><tspan class="TextPosition" x="12039" y="711"><tspan fill="rgb(0,0,0)" stroke="none">10</tspan></tspan></tspan></text>
 <text class="TextShape" transform="translate(13344,711) rotate(2.9) translate(-13344,-711)"><tspan class="TextParagraph" font-family="Liberation Sans" font-size="353px" font-weight="400"><tspan class="TextPosition" x="13344" y="711"><tspan fill="rgb(0,0,0)" stroke="none">20</tspan></tspan></tspan></text>
 <text class="TextShape" transform="translate(14649,711) rotate(2.9) translate(-14649,-711)"><tspan class="TextParagraph" font-family="Liberation Sans" font-size="353px" font-weight="400"><tspan class="TextPosition" x="14649" y="711"><tspan fill="rgb(0,0,0)" stroke="none">30</tspan></tspan></tspan></text>
 <text class="TextShape" transform="translate(15954,711) rotate(2.9) translate(-15954,-711)"><tspan class="TextParagraph" font-family="Liberation Sans" font-size="353px" font-weight="400"><tspan class="TextPosition" x="15954" y="711"><tspan fill="rgb(0,0,0)" stroke="none">40</tspan></tspan></tspan></text>
 <text class="TextShape" transform="translate(17259,711) rotate(2.9) translate(-17259,-711)"><tspan class="TextParagraph" font-family="Liberation Sans" font-size="353px" font-weight="400"><tspan class="TextPosition" x="17259" y="711"><tspan fill="rgb(0,0,0)" stroke="none">50</tspan></tspan></tspan></text>
 <text class="TextShape" transform="translate(18565,711) rotate(2.9) translate(-18565,-711)"><tspan class="TextParagraph" font-family="Liberation Sans" font-size="353px" font-weight="400"><tspan class="TextPosition" x="18565" y="711"><tspan fill="rgb(0,0,0)" stroke="none">60</tspan></tspan></tspan></text>
 <text class="TextShape"><tspan class="TextParagraph" font-family="Liberation Sans" font-size="353px" font-weight="400"><tspan class="TextPosition" x="18025" y="1631"><tspan fill="rgb(0,0,0)" stroke="none">52</tspan></tspan></tspan></text>
 <text class="TextShape"><tspan class="TextParagraph" font-family="Liberation Sans" font-size="353px" font-weight="400"><tspan class="TextPosition" x="17112" y="2529"><tspan fill="rgb(0,0,0)" stroke="none">45</tspan></tspan></tspan></text>
 <text class="TextShape"><tspan class="TextParagraph" font-family="Liberation Sans" font-size="353px" font-weight="400"><tspan class="TextPosition" x="15937" y="3428"><tspan fill="rgb(0,0,0)" stroke="none">36</tspan></tspan></tspan></text>
 <text class="TextShape"><tspan class="TextParagraph" font-family="Liberation Sans" font-size="353px" font-weight="400"><tspan class="TextPosition" x="15154" y="4327"><tspan fill="rgb(0,0,0)" stroke="none">30</tspan></tspan></tspan></text>
 <text class="TextShape"><tspan class="TextParagraph" font-family="Liberation Sans" font-size="353px" font-weight="400"><tspan class="TextPosition" x="12675" y="5225"><tspan fill="rgb(0,0,0)" stroke="none">11</tspan></tspan></tspan></text>
</svg>