<?xml version="1.0" encoding="UTF-8"?>
<!DOCTYPE svg PUBLIC "-//W3C//DTD SVG 1.1//EN" "http://www.w3.org/Graphics/SVG/1.1/DTD/svg11.dtd">
<svg width="70mm" height="106mm" viewBox="0 0 7000 10600" version="1.1" xmlns="http://www.w3.org/2000/svg" stroke-width="28.222" stroke-linejoin="round" xml:space="preserve">
 <path fill="rgb(255,255,255)" stroke="none" d="M 3500,10561 L 0,10561 0,0 6999,0 6999,10561 3500,10561 Z"/>
 <path fill="rgb(0,69,134)" stroke="none" d="M 3158,4230 C 2847,4230 2539,4278 2243,4374 1948,4470 1670,4612 1418,4795 1167,4977 946,5198 764,5448 581,5700 439,5978 343,6273 247,6569 199,6877 199,7188 199,7499 247,7807 343,8103 439,8398 581,8676 764,8928 946,9179 1167,9400 1418,9582 1670,9765 1948,9907 2243,10003 2352,10038 2462,10067 2573,10089 L 2866,8639 C 2810,8627 2755,8613 2701,8595 2553,8547 2414,8476 2288,8385 2163,8294 2052,8183 1961,8058 1870,7932 1799,7793 1751,7645 1703,7498 1678,7343 1678,7188 1678,7033 1703,6878 1751,6731 1799,6583 1870,6444 1961,6318 2052,6193 2163,6082 2288,5991 2414,5900 2553,5829 2701,5781 2848,5733 3003,5708 3158,5708 L 3158,4230 Z"/>
 <path fill="rgb(255,66,14)" stroke="none" d="M 2573,10089 C 2766,10128 2962,10148 3158,10148 3469,10148 3776,10099 4072,10003 4367,9907 4645,9765 4897,9582 5148,9400 5369,9179 5551,8928 5734,8676 5876,8398 5972,8103 5989,8050 6004,7998 6018,7944 L 4588,7566 C 4581,7593 4573,7619 4564,7645 4516,7793 4445,7932 4354,8058 4263,8183 4152,8294 4027,8385 3901,8476 3762,8547 3614,8595 3468,8643 3313,8668 3158,8668 3060,8668 2962,8658 2866,8639 L 2573,10089 Z"/>
 <path fill="rgb(255,211,32)" stroke="none" d="M 6018,7944 C 6083,7698 6117,7443 6117,7188 6117,6877 6068,6569 5972,6273 5876,5978 5734,5700 5551,5448 5369,5198 5148,4977 4897,4795 4776,4707 4649,4629 4516,4560 L 3837,5874 C 3903,5908 3966,5947 4027,5991 4152,6082 4263,6193 4354,6318 4445,6444 4516,6583 4564,6731 4612,6878 4637,7033 4637,7188 4637,7316 4620,7443 4588,7566 L 6018,7944 Z"/>
 <path fill="rgb(87,157,28)" stroke="none" d="M 4516,4560 C 4373,4486 4225,4424 4072,4374 3776,4278 3469,4230 3158,4230 L 3158,5708 C 3313,5708 3468,5733 3614,5781 3691,5806 3765,5837 3837,5874 L 4516,4560 Z"/>
 <text class="TextShape"><tspan class="TextParagraph" font-family="Liberation Sans" font-size="353px" font-weight="700"><tspan class="TextPosition" x="750" y="7094"><tspan fill="rgb(255,255,255)" stroke="none">37</tspan></tspan></tspan></text>
 <text class="TextShape"><tspan class="TextParagraph" font-family="Liberation Sans" font-size="353px" font-weight="700"><tspan class="TextPosition" x="4132" y="9198"><tspan fill="rgb(255,255,255)" stroke="none">19</tspan></tspan></tspan></text>
 <text class="TextShape"><tspan class="TextParagraph" font-family="Liberation Sans" font-size="353px" font-weight="700"><tspan class="TextPosition" x="4988" y="6414"><tspan fill="rgb(255,255,255)" stroke="none">17</tspan></tspan></tspan></text>
 <text class="TextShape"><tspan class="TextParagraph" font-family="Liberation Sans" font-size="353px" font-weight="700"><tspan class="TextPosition" x="3583" y="5157"><tspan fill="rgb(255,255,255)" stroke="none">6</tspan></tspan></tspan></text>
 <path fill="rgb(0,69,134)" stroke="none" d="M 342,1333 L 237,1333 237,1122 448,1122 448,1333 342,1333 Z"/>
 <path fill="rgb(255,66,14)" stroke="none" d="M 342,2083 L 237,2083 237,1872 448,1872 448,2083 342,2083 Z"/>
 <path fill="rgb(255,211,32)" stroke="none" d="M 342,2833 L 237,2833 237,2622 448,2622 448,2833 342,2833 Z"/>
 <path fill="rgb(87,157,28)" stroke="none" d="M 342,3583 L 237,3583 237,3372 448,3372 448,3583 342,3583 Z"/>
 <text class="TextShape"><tspan class="TextParagraph" font-family="Liberation Sans" font-size="353px" font-weight="400"><tspan class="TextPosition" x="548" y="1352"><tspan fill="rgb(0,0,0)" stroke="none">Entre 15 e 45 minutos</tspan></tspan></tspan></text>
 <text class="TextShape"><tspan class="TextParagraph" font-family="Liberation Sans" font-size="353px" font-weight="400"><tspan class="TextPosition" x="548" y="2102"><tspan fill="rgb(0,0,0)" stroke="none">Menos de 15 minutos</tspan></tspan></tspan></text>
 <text class="TextShape"><tspan class="TextParagraph" font-family="Liberation Sans" font-size="353px" font-weight="400"><tspan class="TextPosition" x="548" y="2852"><tspan fill="rgb(0,0,0)" stroke="none">Entre 45 minutos e uma hora e meia</tspan></tspan></tspan></text>
 <text class="TextShape"><tspan class="TextParagraph" font-family="Liberation Sans" font-size="353px" font-weight="400"><tspan class="TextPosition" x="548" y="3602"><tspan fill="rgb(0,0,0)" stroke="none">Mais de uma hora e meia</tspan></tspan></tspan></text>
</svg>