<?xml version="1.0" encoding="UTF-8"?>
<!DOCTYPE svg PUBLIC "-//W3C//DTD SVG 1.1//EN" "http://www.w3.org/Graphics/SVG/1.1/DTD/svg11.dtd">
<svg width="203mm" height="55mm" viewBox="0 0 20300 5500" version="1.1" xmlns="http://www.w3.org/2000/svg" stroke-width="28.222" stroke-linejoin="round" xml:space="preserve">
 <path fill="rgb(255,255,255)" stroke="none" d="M 10173,5544 L 0,5544 0,0 20345,0 20345,5544 10173,5544 Z"/>
 <path fill="none" stroke="rgb(179,179,179)" stroke-linejoin="round" d="M 13199,5196 L 7291,5196 7291,997 19107,997 19107,5196 13199,5196 Z"/>
 <path fill="none" stroke="rgb(179,179,179)" stroke-linejoin="round" d="M 7291,996 L 7291,5195"/>
 <path fill="none" stroke="rgb(179,179,179)" stroke-linejoin="round" d="M 8768,996 L 8768,5195"/>
 <path fill="none" stroke="rgb(179,179,179)" stroke-linejoin="round" d="M 10244,996 L 10244,5195"/>
 <path fill="none" stroke="rgb(179,179,179)" stroke-linejoin="round" d="M 11721,996 L 11721,5195"/>
 <path fill="none" stroke="rgb(179,179,179)" stroke-linejoin="round" d="M 13198,996 L 13198,5195"/>
 <path fill="none" stroke="rgb(179,179,179)" stroke-linejoin="round" d="M 14675,996 L 14675,5195"/>
 <path fill="none" stroke="rgb(179,179,179)" stroke-linejoin="round" d="M 16152,996 L 16152,5195"/>
 <path fill="none" stroke="rgb(179,179,179)" stroke-linejoin="round" d="M 17629,996 L 17629,5195"/>
 <path fill="none" stroke="rgb(179,179,179)" stroke-linejoin="round" d="M 19107,996 L 19107,5195"/>
 <path fill="none" stroke="rgb(179,179,179)" stroke-linejoin="round" d="M 7141,996 L 7291,996"/>
 <path fill="none" stroke="rgb(179,179,179)" stroke-linejoin="round" d="M 7141,996 L 7291,996"/>
 <path fill="none" stroke="rgb(179,179,179)" stroke-linejoin="round" d="M 7141,2046 L 7291,2046"/>
 <path fill="none" stroke="rgb(179,179,179)" stroke-linejoin="round" d="M 7141,2046 L 7291,2046"/>
 <path fill="none" stroke="rgb(179,179,179)" stroke-linejoin="round" d="M 7141,3095 L 7291,3095"/>
 <path fill="none" stroke="rgb(179,179,179)" stroke-linejoin="round" d="M 7141,3095 L 7291,3095"/>
 <path fill="none" stroke="rgb(179,179,179)" stroke-linejoin="round" d="M 7141,4145 L 7291,4145"/>
 <path fill="none" stroke="rgb(179,179,179)" stroke-linejoin="round" d="M 7141,4145 L 7291,4145"/>
 <path fill="none" stroke="rgb(179,179,179)" stroke-linejoin="round" d="M 7141,5195 L 7291,5195"/>
 <path fill="none" stroke="rgb(179,179,179)" stroke-linejoin="round" d="M 7141,5195 L 7291,5195"/>
 <path fill="none" stroke="rgb(179,179,179)" stroke-linejoin="round" d="M 7291,5195 L 7291,996"/>
 <path fill="none" stroke="rgb(179,179,179)" stroke-linejoin="round" d="M 7291,846 L 7291,996"/>
 <path fill="none" stroke="rgb(179,179,179)" stroke-linejoin="round" d="M 7291,846 L 7291,996"/>
 <path fill="none" stroke="rgb(179,179,179)" stroke-linejoin="round" d="M 8768,846 L 8768,996"/>
 <path fill="none" stroke="rgb(179,179,179)" stroke-linejoin="round" d="M 8768,846 L 8768,996"/>
 <path fill="none" stroke="rgb(179,179,179)" stroke-linejoin="round" d="M 10244,846 L 10244,996"/>
 <path fill="none" stroke="rgb(179,179,179)" stroke-linejoin="round" d="M 10244,846 L 10244,996"/>
 <path fill="none" stroke="rgb(179,179,179)" stroke-linejoin="round" d="M 11721,846 L 11721,996"/>
 <path fill="none" stroke="rgb(179,179,179)" stroke-linejoin="round" d="M 11721,846 L 11721,996"/>
 <path fill="none" stroke="rgb(179,179,179)" stroke-linejoin="round" d="M 13198,846 L 13198,996"/>
 <path fill="none" stroke="rgb(179,179,179)" stroke-linejoin="round" d="M 13198,846 L 13198,996"/>
 <path fill="none" stroke="rgb(179,179,179)" stroke-linejoin="round" d="M 14675,846 L 14675,996"/>
 <path fill="none" stroke="rgb(179,179,179)" stroke-linejoin="round" d="M 14675,846 L 14675,996"/>
 <path fill="none" stroke="rgb(179,179,179)" stroke-linejoin="round" d="M 16152,846 L 16152,996"/>
 <path fill="none" stroke="rgb(179,179,179)" stroke-linejoin="round" d="M 16152,846 L 16152,996"/>
 <path fill="none" stroke="rgb(179,179,179)" stroke-linejoin="round" d="M 17629,846 L 17629,996"/>
 <path fill="none" stroke="rgb(179,179,179)" stroke-linejoin="round" d="M 17629,846 L 17629,996"/>
 <path fill="none" stroke="rgb(179,179,179)" stroke-linejoin="round" d="M 19107,846 L 19107,996"/>
 <path fill="none" stroke="rgb(179,179,179)" stroke-linejoin="round" d="M 19107,846 L 19107,996"/>
 <path fill="none" stroke="rgb(179,179,179)" stroke-linejoin="round" d="M 7291,996 L 19107,996"/>
 <path fill="rgb(0,69,134)" stroke="none" d="M 7291,4407 L 7291,4932 11721,4932 11721,4407 7291,4407 Z"/>
 <path fill="rgb(0,69,134)" stroke="none" d="M 7291,3357 L 7291,3882 13789,3882 13789,3357 7291,3357 Z"/>
 <path fill="rgb(0,69,134)" stroke="none" d="M 7291,2308 L 7291,2832 16152,2832 16152,2308 7291,2308 Z"/>
 <path fill="rgb(0,69,134)" stroke="none" d="M 7291,1258 L 7291,1783 17334,1783 17334,1258 7291,1258 Z"/>
 <text class="TextShape"><tspan class="TextParagraph" font-family="Source Sans Pro" font-size="423px" font-weight="400"><tspan class="TextPosition" x="3854" y="1670"><tspan fill="rgb(0,0,0)" stroke="none">Posologia/receitas</tspan></tspan></tspan></text>
 <text class="TextShape"><tspan class="TextParagraph" font-family="Source Sans Pro" font-size="423px" font-weight="400"><tspan class="TextPosition" x="2733" y="2720"><tspan fill="rgb(0,0,0)" stroke="none">Identificação das plantas</tspan></tspan></tspan></text>
 <text class="TextShape"><tspan class="TextParagraph" font-family="Source Sans Pro" font-size="423px" font-weight="400"><tspan class="TextPosition" x="4028" y="3770"><tspan fill="rgb(0,0,0)" stroke="none">Contraindicações</tspan></tspan></tspan></text>
 <text class="TextShape"><tspan class="TextParagraph" font-family="Source Sans Pro" font-size="423px" font-weight="400"><tspan class="TextPosition" x="4451" y="4820"><tspan fill="rgb(0,0,0)" stroke="none">Plantas tóxicas</tspan></tspan></tspan></text>
 <text class="TextShape" transform="translate(7084,660) rotate(2.9) translate(-7084,-660)"><tspan class="TextParagraph" font-family="Liberation Sans" font-size="353px" font-weight="400"><tspan class="TextPosition" x="7084" y="660"><tspan fill="rgb(0,0,0)" stroke="none">0</tspan></tspan></tspan></text>
 <text class="TextShape" transform="translate(8362,650) rotate(2.9) translate(-8362,-650)"><tspan class="TextParagraph" font-family="Liberation Sans" font-size="353px" font-weight="400"><tspan class="TextPosition" x="8362" y="650"><tspan fill="rgb(0,0,0)" stroke="none">10</tspan></tspan></tspan></text>
 <text class="TextShape" transform="translate(9839,650) rotate(2.9) translate(-9839,-650)"><tspan class="TextParagraph" font-family="Liberation Sans" font-size="353px" font-weight="400"><tspan class="TextPosition" x="9839" y="650"><tspan fill="rgb(0,0,0)" stroke="none">20</tspan></tspan></tspan></text>
 <text class="TextShape" transform="translate(11316,650) rotate(2.9) translate(-11316,-650)"><tspan class="TextParagraph" font-family="Liberation Sans" font-size="353px" font-weight="400"><tspan class="TextPosition" x="11316" y="650"><tspan fill="rgb(0,0,0)" stroke="none">30</tspan></tspan></tspan></text>
 <text class="TextShape" transform="translate(12793,650) rotate(2.9) translate(-12793,-650)"><tspan class="TextParagraph" font-family="Liberation Sans" font-size="353px" font-weight="400"><tspan class="TextPosition" x="12793" y="650"><tspan fill="rgb(0,0,0)" stroke="none">40</tspan></tspan></tspan></text>
 <text class="TextShape" transform="translate(14270,650) rotate(2.9) translate(-14270,-650)"><tspan class="TextParagraph" font-family="Liberation Sans" font-size="353px" font-weight="400"><tspan class="TextPosition" x="14270" y="650"><tspan fill="rgb(0,0,0)" stroke="none">50</tspan></tspan></tspan></text>
 <text class="TextShape" transform="translate(15747,650) rotate(2.9) translate(-15747,-650)"><tspan class="TextParagraph" font-family="Liberation Sans" font-size="353px" font-weight="400"><tspan class="TextPosition" x="15747" y="650"><tspan fill="rgb(0,0,0)" stroke="none">60</tspan></tspan></tspan></text>
 <text class="TextShape" transform="translate(17224,650) rotate(2.9) translate(-17224,-650)"><tspan class="TextParagraph" font-family="Liberation Sans" font-size="353px" font-weight="400"><tspan class="TextPosition" x="17224" y="650"><tspan fill="rgb(0,0,0)" stroke="none">70</tspan></tspan></tspan></text>
 <text class="TextShape" transform="translate(18702,650) rotate(2.9) translate(-18702,-650)"><tspan class="TextParagraph" font-family="Liberation Sans" font-size="353px" font-weight="400"><tspan class="TextPosition" x="18702" y="650"><tspan fill="rgb(0,0,0)" stroke="none">80</tspan></tspan></tspan></text>
 <text class="TextShape"><tspan class="TextParagraph" font-family="Liberation Sans" font-size="353px" font-weight="400"><tspan class="TextPosition" x="17434" y="1646"><tspan fill="rgb(17,17,17)" stroke="none">68</tspan></tspan></tspan></text>
 <text class="TextShape"><tspan class="TextParagraph" font-family="Liberation Sans" font-size="353px" font-weight="400"><tspan class="TextPosition" x="16252" y="2696"><tspan fill="rgb(17,17,17)" stroke="none">60</tspan></tspan></tspan></text>
 <text class="TextShape"><tspan class="TextParagraph" font-family="Liberation Sans" font-size="353px" font-weight="400"><tspan class="TextPosition" x="13889" y="3746"><tspan fill="rgb(17,17,17)" stroke="none">44</tspan></tspan></tspan></text>
 <text class="TextShape"><tspan class="TextParagraph" font-family="Liberation Sans" font-size="353px" font-weight="400"><tspan class="TextPosition" x="11821" y="4796"><tspan fill="rgb(17,17,17)" stroke="none">30</tspan></tspan></tspan></text>
</svg>