<?xml version="1.0" encoding="UTF-8"?>
<!DOCTYPE svg PUBLIC "-//W3C//DTD SVG 1.1//EN" "http://www.w3.org/Graphics/SVG/1.1/DTD/svg11.dtd">
<svg width="203mm" height="55mm" viewBox="0 0 20300 5500" version="1.1" xmlns="http://www.w3.org/2000/svg" stroke-width="28.222" stroke-linejoin="round" xml:space="preserve">
 <path fill="rgb(255,255,255)" stroke="none" d="M 10173,5544 L 0,5544 0,0 20345,0 20345,5544 10173,5544 Z"/>
 <path fill="none" stroke="rgb(179,179,179)" stroke-linejoin="round" d="M 13199,5196 L 7291,5196 7291,997 19107,997 19107,5196 13199,5196 Z"/>
 <path fill="none" stroke="rgb(179,179,179)" stroke-linejoin="round" d="M 7291,996 L 7291,5195"/>
 <path fill="none" stroke="rgb(179,179,179)" stroke-linejoin="round" d="M 8472,996 L 8472,5195"/>
 <path fill="none" stroke="rgb(179,179,179)" stroke-linejoin="round" d="M 9654,996 L 9654,5195"/>
 <path fill="none" stroke="rgb(179,179,179)" stroke-linejoin="round" d="M 10835,996 L 10835,5195"/>
 <path fill="none" stroke="rgb(179,179,179)" stroke-linejoin="round" d="M 12016,996 L 12016,5195"/>
 <path fill="none" stroke="rgb(179,179,179)" stroke-linejoin="round" d="M 13198,996 L 13198,5195"/>
 <path fill="none" stroke="rgb(179,179,179)" stroke-linejoin="round" d="M 14380,996 L 14380,5195"/>
 <path fill="none" stroke="rgb(179,179,179)" stroke-linejoin="round" d="M 15561,996 L 15561,5195"/>
 <path fill="none" stroke="rgb(179,179,179)" stroke-linejoin="round" d="M 16743,996 L 16743,5195"/>
 <path fill="none" stroke="rgb(179,179,179)" stroke-linejoin="round" d="M 17925,996 L 17925,5195"/>
 <path fill="none" stroke="rgb(179,179,179)" stroke-linejoin="round" d="M 19107,996 L 19107,5195"/>
 <path fill="none" stroke="rgb(179,179,179)" stroke-linejoin="round" d="M 7141,996 L 7291,996"/>
 <path fill="none" stroke="rgb(179,179,179)" stroke-linejoin="round" d="M 7141,996 L 7291,996"/>
 <path fill="none" stroke="rgb(179,179,179)" stroke-linejoin="round" d="M 7141,1836 L 7291,1836"/>
 <path fill="none" stroke="rgb(179,179,179)" stroke-linejoin="round" d="M 7141,1836 L 7291,1836"/>
 <path fill="none" stroke="rgb(179,179,179)" stroke-linejoin="round" d="M 7141,2675 L 7291,2675"/>
 <path fill="none" stroke="rgb(179,179,179)" stroke-linejoin="round" d="M 7141,2675 L 7291,2675"/>
 <path fill="none" stroke="rgb(179,179,179)" stroke-linejoin="round" d="M 7141,3515 L 7291,3515"/>
 <path fill="none" stroke="rgb(179,179,179)" stroke-linejoin="round" d="M 7141,3515 L 7291,3515"/>
 <path fill="none" stroke="rgb(179,179,179)" stroke-linejoin="round" d="M 7141,4355 L 7291,4355"/>
 <path fill="none" stroke="rgb(179,179,179)" stroke-linejoin="round" d="M 7141,4355 L 7291,4355"/>
 <path fill="none" stroke="rgb(179,179,179)" stroke-linejoin="round" d="M 7141,5195 L 7291,5195"/>
 <path fill="none" stroke="rgb(179,179,179)" stroke-linejoin="round" d="M 7141,5195 L 7291,5195"/>
 <path fill="none" stroke="rgb(179,179,179)" stroke-linejoin="round" d="M 7291,5195 L 7291,996"/>
 <path fill="none" stroke="rgb(179,179,179)" stroke-linejoin="round" d="M 7291,846 L 7291,996"/>
 <path fill="none" stroke="rgb(179,179,179)" stroke-linejoin="round" d="M 7291,846 L 7291,996"/>
 <path fill="none" stroke="rgb(179,179,179)" stroke-linejoin="round" d="M 8472,846 L 8472,996"/>
 <path fill="none" stroke="rgb(179,179,179)" stroke-linejoin="round" d="M 8472,846 L 8472,996"/>
 <path fill="none" stroke="rgb(179,179,179)" stroke-linejoin="round" d="M 9654,846 L 9654,996"/>
 <path fill="none" stroke="rgb(179,179,179)" stroke-linejoin="round" d="M 9654,846 L 9654,996"/>
 <path fill="none" stroke="rgb(179,179,179)" stroke-linejoin="round" d="M 10835,846 L 10835,996"/>
 <path fill="none" stroke="rgb(179,179,179)" stroke-linejoin="round" d="M 10835,846 L 10835,996"/>
 <path fill="none" stroke="rgb(179,179,179)" stroke-linejoin="round" d="M 12016,846 L 12016,996"/>
 <path fill="none" stroke="rgb(179,179,179)" stroke-linejoin="round" d="M 12016,846 L 12016,996"/>
 <path fill="none" stroke="rgb(179,179,179)" stroke-linejoin="round" d="M 13198,846 L 13198,996"/>
 <path fill="none" stroke="rgb(179,179,179)" stroke-linejoin="round" d="M 13198,846 L 13198,996"/>
 <path fill="none" stroke="rgb(179,179,179)" stroke-linejoin="round" d="M 14380,846 L 14380,996"/>
 <path fill="none" stroke="rgb(179,179,179)" stroke-linejoin="round" d="M 14380,846 L 14380,996"/>
 <path fill="none" stroke="rgb(179,179,179)" stroke-linejoin="round" d="M 15561,846 L 15561,996"/>
 <path fill="none" stroke="rgb(179,179,179)" stroke-linejoin="round" d="M 15561,846 L 15561,996"/>
 <path fill="none" stroke="rgb(179,179,179)" stroke-linejoin="round" d="M 16743,846 L 16743,996"/>
 <path fill="none" stroke="rgb(179,179,179)" stroke-linejoin="round" d="M 16743,846 L 16743,996"/>
 <path fill="none" stroke="rgb(179,179,179)" stroke-linejoin="round" d="M 17925,846 L 17925,996"/>
 <path fill="none" stroke="rgb(179,179,179)" stroke-linejoin="round" d="M 17925,846 L 17925,996"/>
 <path fill="none" stroke="rgb(179,179,179)" stroke-linejoin="round" d="M 19107,846 L 19107,996"/>
 <path fill="none" stroke="rgb(179,179,179)" stroke-linejoin="round" d="M 19107,846 L 19107,996"/>
 <path fill="none" stroke="rgb(179,179,179)" stroke-linejoin="round" d="M 7291,996 L 19107,996"/>
 <path fill="rgb(0,69,134)" stroke="none" d="M 7291,4565 L 7291,4985 7527,4985 7527,4565 7291,4565 Z"/>
 <path fill="rgb(0,69,134)" stroke="none" d="M 7291,3725 L 7291,4145 13198,4145 13198,3725 7291,3725 Z"/>
 <path fill="rgb(0,69,134)" stroke="none" d="M 7291,2885 L 7291,3305 13434,3305 13434,2885 7291,2885 Z"/>
 <path fill="rgb(0,69,134)" stroke="none" d="M 7291,2046 L 7291,2466 14143,2466 14143,2046 7291,2046 Z"/>
 <path fill="rgb(0,69,134)" stroke="none" d="M 7291,1206 L 7291,1626 17925,1626 17925,1206 7291,1206 Z"/>
 <text class="TextShape"><tspan class="TextParagraph" font-family="Source Sans Pro" font-size="423px" font-weight="400"><tspan class="TextPosition" x="3629" y="1565"><tspan fill="rgb(0,0,0)" stroke="none">Sites especializados</tspan></tspan></tspan></text>
 <text class="TextShape"><tspan class="TextParagraph" font-family="Source Sans Pro" font-size="423px" font-weight="400"><tspan class="TextPosition" x="3779" y="2404"><tspan fill="rgb(0,0,0)" stroke="none">Blogs sobre o tema</tspan></tspan></tspan></text>
 <text class="TextShape"><tspan class="TextParagraph" font-family="Source Sans Pro" font-size="423px" font-weight="400"><tspan class="TextPosition" x="616" y="3245"><tspan fill="rgb(0,0,0)" stroke="none">Grupos de discussão em redes sociais</tspan></tspan></tspan></text>
 <text class="TextShape"><tspan class="TextParagraph" font-family="Source Sans Pro" font-size="423px" font-weight="400"><tspan class="TextPosition" x="2882" y="4085"><tspan fill="rgb(0,0,0)" stroke="none">Páginas de redes sociais</tspan></tspan></tspan></text>
 <text class="TextShape"><tspan class="TextParagraph" font-family="Source Sans Pro" font-size="423px" font-weight="400"><tspan class="TextPosition" x="1662" y="4925"><tspan fill="rgb(0,0,0)" stroke="none">Grupos de discussão por e-mail</tspan></tspan></tspan></text>
 <text class="TextShape" transform="translate(7084,660) rotate(2.9) translate(-7084,-660)"><tspan class="TextParagraph" font-family="Liberation Sans" font-size="353px" font-weight="400"><tspan class="TextPosition" x="7084" y="660"><tspan fill="rgb(0,0,0)" stroke="none">0</tspan></tspan></tspan></text>
 <text class="TextShape" transform="translate(8265,660) rotate(2.9) translate(-8265,-660)"><tspan class="TextParagraph" font-family="Liberation Sans" font-size="353px" font-weight="400"><tspan class="TextPosition" x="8265" y="660"><tspan fill="rgb(0,0,0)" stroke="none">5</tspan></tspan></tspan></text>
 <text class="TextShape" transform="translate(9248,650) rotate(2.9) translate(-9248,-650)"><tspan class="TextParagraph" font-family="Liberation Sans" font-size="353px" font-weight="400"><tspan class="TextPosition" x="9248" y="650"><tspan fill="rgb(0,0,0)" stroke="none">10</tspan></tspan></tspan></text>
 <text class="TextShape" transform="translate(10430,650) rotate(2.9) translate(-10430,-650)"><tspan class="TextParagraph" font-family="Liberation Sans" font-size="353px" font-weight="400"><tspan class="TextPosition" x="10430" y="650"><tspan fill="rgb(0,0,0)" stroke="none">15</tspan></tspan></tspan></text>
 <text class="TextShape" transform="translate(11611,650) rotate(2.9) translate(-11611,-650)"><tspan class="TextParagraph" font-family="Liberation Sans" font-size="353px" font-weight="400"><tspan class="TextPosition" x="11611" y="650"><tspan fill="rgb(0,0,0)" stroke="none">20</tspan></tspan></tspan></text>
 <text class="TextShape" transform="translate(12793,650) rotate(2.9) translate(-12793,-650)"><tspan class="TextParagraph" font-family="Liberation Sans" font-size="353px" font-weight="400"><tspan class="TextPosition" x="12793" y="650"><tspan fill="rgb(0,0,0)" stroke="none">25</tspan></tspan></tspan></text>
 <text class="TextShape" transform="translate(13975,650) rotate(2.9) translate(-13975,-650)"><tspan class="TextParagraph" font-family="Liberation Sans" font-size="353px" font-weight="400"><tspan class="TextPosition" x="13975" y="650"><tspan fill="rgb(0,0,0)" stroke="none">30</tspan></tspan></tspan></text>
 <text class="TextShape" transform="translate(15156,650) rotate(2.9) translate(-15156,-650)"><tspan class="TextParagraph" font-family="Liberation Sans" font-size="353px" font-weight="400"><tspan class="TextPosition" x="15156" y="650"><tspan fill="rgb(0,0,0)" stroke="none">35</tspan></tspan></tspan></text>
 <text class="TextShape" transform="translate(16338,650) rotate(2.9) translate(-16338,-650)"><tspan class="TextParagraph" font-family="Liberation Sans" font-size="353px" font-weight="400"><tspan class="TextPosition" x="16338" y="650"><tspan fill="rgb(0,0,0)" stroke="none">40</tspan></tspan></tspan></text>
 <text class="TextShape" transform="translate(17520,650) rotate(2.9) translate(-17520,-650)"><tspan class="TextParagraph" font-family="Liberation Sans" font-size="353px" font-weight="400"><tspan class="TextPosition" x="17520" y="650"><tspan fill="rgb(0,0,0)" stroke="none">45</tspan></tspan></tspan></text>
 <text class="TextShape" transform="translate(18702,650) rotate(2.9) translate(-18702,-650)"><tspan class="TextParagraph" font-family="Liberation Sans" font-size="353px" font-weight="400"><tspan class="TextPosition" x="18702" y="650"><tspan fill="rgb(0,0,0)" stroke="none">50</tspan></tspan></tspan></text>
 <text class="TextShape"><tspan class="TextParagraph" font-family="Liberation Sans" font-size="353px" font-weight="400"><tspan class="TextPosition" x="18025" y="1541"><tspan fill="rgb(17,17,17)" stroke="none">45</tspan></tspan></tspan></text>
 <text class="TextShape"><tspan class="TextParagraph" font-family="Liberation Sans" font-size="353px" font-weight="400"><tspan class="TextPosition" x="14243" y="2381"><tspan fill="rgb(17,17,17)" stroke="none">29</tspan></tspan></tspan></text>
 <text class="TextShape"><tspan class="TextParagraph" font-family="Liberation Sans" font-size="353px" font-weight="400"><tspan class="TextPosition" x="13534" y="3221"><tspan fill="rgb(17,17,17)" stroke="none">26</tspan></tspan></tspan></text>
 <text class="TextShape"><tspan class="TextParagraph" font-family="Liberation Sans" font-size="353px" font-weight="400"><tspan class="TextPosition" x="13298" y="4061"><tspan fill="rgb(17,17,17)" stroke="none">25</tspan></tspan></tspan></text>
 <text class="TextShape"><tspan class="TextParagraph" font-family="Liberation Sans" font-size="353px" font-weight="400"><tspan class="TextPosition" x="7627" y="4901"><tspan fill="rgb(17,17,17)" stroke="none">1</tspan></tspan></tspan></text>
</svg>