<?xml version="1.0" encoding="UTF-8"?>
<!DOCTYPE svg PUBLIC "-//W3C//DTD SVG 1.1//EN" "http://www.w3.org/Graphics/SVG/1.1/DTD/svg11.dtd">
<svg width="70mm" height="106mm" viewBox="0 0 7000 10600" version="1.1" xmlns="http://www.w3.org/2000/svg" stroke-width="28.222" stroke-linejoin="round" xml:space="preserve">
 <path fill="rgb(255,255,255)" stroke="none" d="M 3500,10561 L 0,10561 0,0 6999,0 6999,10561 3500,10561 Z"/>
 <path fill="rgb(0,69,134)" stroke="none" d="M 3158,4230 C 2847,4230 2539,4278 2243,4374 1948,4470 1670,4612 1418,4795 1167,4977 946,5198 764,5448 581,5700 439,5978 343,6273 247,6569 199,6877 199,7188 199,7499 247,7807 343,8103 439,8398 581,8676 764,8928 884,9093 1021,9246 1173,9383 L 2165,8285 C 2090,8217 2021,8141 1961,8058 1870,7932 1799,7793 1751,7645 1703,7498 1678,7343 1678,7188 1678,7033 1703,6878 1751,6731 1799,6583 1870,6444 1961,6318 2052,6193 2163,6082 2288,5991 2414,5900 2553,5829 2701,5781 2848,5733 3003,5708 3158,5708 L 3158,4230 Z"/>
 <path fill="rgb(255,66,14)" stroke="none" d="M 1173,9383 C 1251,9454 1333,9520 1418,9582 1670,9765 1948,9907 2243,10003 2539,10099 2847,10148 3158,10148 3469,10148 3776,10099 4072,10003 4367,9907 4645,9765 4897,9582 5089,9443 5264,9280 5417,9099 L 4287,8143 C 4210,8234 4123,8315 4027,8385 3901,8476 3762,8547 3614,8595 3468,8643 3313,8668 3158,8668 3003,8668 2848,8643 2701,8595 2553,8547 2414,8476 2288,8385 2246,8354 2205,8321 2165,8285 L 1173,9383 Z"/>
 <path fill="rgb(255,211,32)" stroke="none" d="M 5417,9099 C 5464,9043 5509,8986 5551,8928 5734,8676 5876,8398 5972,8103 6068,7807 6117,7499 6117,7188 6117,6877 6068,6569 5972,6273 5915,6098 5841,5928 5752,5766 L 4455,6477 C 4499,6558 4536,6643 4564,6731 4612,6878 4637,7033 4637,7188 4637,7343 4612,7498 4564,7645 4516,7793 4445,7932 4354,8058 4333,8087 4310,8116 4287,8143 L 5417,9099 Z"/>
 <path fill="rgb(87,157,28)" stroke="none" d="M 5752,5766 C 5692,5656 5625,5550 5551,5448 5369,5198 5148,4977 4897,4795 4822,4740 4745,4690 4665,4643 L 3911,5915 C 3951,5938 3989,5964 4027,5991 4152,6082 4263,6193 4354,6318 4391,6369 4425,6422 4455,6477 L 5752,5766 Z"/>
 <path fill="rgb(126,0,33)" stroke="none" d="M 4665,4643 C 4478,4532 4279,4442 4072,4374 3776,4278 3469,4230 3158,4230 L 3158,4230 3158,5708 3158,5708 C 3313,5708 3468,5733 3614,5781 3718,5814 3817,5859 3911,5915 L 4665,4643 Z"/>
 <text class="TextShape"><tspan class="TextParagraph" font-family="Liberation Sans, sans-serif" font-size="353px" font-weight="700"><tspan class="TextPosition" x="888" y="6516"><tspan fill="rgb(255,255,255)" stroke="none">18</tspan></tspan></tspan></text>
 <text class="TextShape"><tspan class="TextParagraph" font-family="Liberation Sans, sans-serif" font-size="353px" font-weight="700"><tspan class="TextPosition" x="3107" y="9529"><tspan fill="rgb(255,255,255)" stroke="none">12</tspan></tspan></tspan></text>
 <text class="TextShape"><tspan class="TextParagraph" font-family="Liberation Sans, sans-serif" font-size="353px" font-weight="700"><tspan class="TextPosition" x="5266" y="7536"><tspan fill="rgb(255,255,255)" stroke="none">9</tspan></tspan></tspan></text>
 <text class="TextShape"><tspan class="TextParagraph" font-family="Liberation Sans, sans-serif" font-size="353px" font-weight="700"><tspan class="TextPosition" x="4654" y="5771"><tspan fill="rgb(255,255,255)" stroke="none">4</tspan></tspan></tspan></text>
 <text class="TextShape"><tspan class="TextParagraph" font-family="Liberation Sans, sans-serif" font-size="353px" font-weight="700"><tspan class="TextPosition" x="3644" y="5173"><tspan fill="rgb(255,255,255)" stroke="none">4</tspan></tspan></tspan></text>
 <path fill="rgb(0,69,134)" stroke="none" d="M 1724,1208 L 1619,1208 1619,997 1830,997 1830,1208 1724,1208 Z"/>
 <path fill="rgb(255,66,14)" stroke="none" d="M 1724,1833 L 1619,1833 1619,1622 1830,1622 1830,1833 1724,1833 Z"/>
 <path fill="rgb(255,211,32)" stroke="none" d="M 1724,2458 L 1619,2458 1619,2247 1830,2247 1830,2458 1724,2458 Z"/>
 <path fill="rgb(87,157,28)" stroke="none" d="M 1724,3083 L 1619,3083 1619,2872 1830,2872 1830,3083 1724,3083 Z"/>
 <path fill="rgb(126,0,33)" stroke="none" d="M 1724,3708 L 1619,3708 1619,3497 1830,3497 1830,3708 1724,3708 Z"/>
 <text class="TextShape"><tspan class="TextParagraph" font-family="Liberation Sans, sans-serif" font-size="353px" font-weight="400"><tspan class="TextPosition" x="1930" y="1227"><tspan fill="rgb(0,0,0)" stroke="none">Entre 18 e 24 anos</tspan></tspan></tspan></text>
 <text class="TextShape"><tspan class="TextParagraph" font-family="Liberation Sans, sans-serif" font-size="353px" font-weight="400"><tspan class="TextPosition" x="1930" y="1852"><tspan fill="rgb(0,0,0)" stroke="none">Entre 25 e 32 anos</tspan></tspan></tspan></text>
 <text class="TextShape"><tspan class="TextParagraph" font-family="Liberation Sans, sans-serif" font-size="353px" font-weight="400"><tspan class="TextPosition" x="1930" y="2477"><tspan fill="rgb(0,0,0)" stroke="none">Entre 41 e 55 anos</tspan></tspan></tspan></text>
 <text class="TextShape"><tspan class="TextParagraph" font-family="Liberation Sans, sans-serif" font-size="353px" font-weight="400"><tspan class="TextPosition" x="1930" y="3102"><tspan fill="rgb(0,0,0)" stroke="none">Entre 33 e 40 anos</tspan></tspan></tspan></text>
 <text class="TextShape"><tspan class="TextParagraph" font-family="Liberation Sans, sans-serif" font-size="353px" font-weight="400"><tspan class="TextPosition" x="1930" y="3727"><tspan fill="rgb(0,0,0)" stroke="none">Mais de 55 anos</tspan></tspan></tspan></text>
</svg>