<?xml version="1.0" encoding="UTF-8"?>
<!DOCTYPE svg PUBLIC "-//W3C//DTD SVG 1.1//EN" "http://www.w3.org/Graphics/SVG/1.1/DTD/svg11.dtd">
<svg width="70mm" height="106mm" viewBox="0 0 7000 10600" version="1.1" xmlns="http://www.w3.org/2000/svg" stroke-width="28.222" stroke-linejoin="round" xml:space="preserve">
 <path fill="rgb(255,255,255)" stroke="none" d="M 3500,10561 L 0,10561 0,0 6999,0 6999,10561 3500,10561 Z"/>
 <path fill="rgb(0,69,134)" stroke="none" d="M 3158,4230 C 2847,4230 2539,4278 2243,4374 1948,4470 1670,4612 1418,4795 1167,4977 946,5198 764,5448 581,5700 439,5978 343,6273 247,6569 199,6877 199,7188 199,7499 247,7807 343,8103 439,8398 581,8676 764,8928 946,9179 1167,9400 1418,9582 1670,9765 1948,9907 2243,10003 2539,10099 2847,10148 3158,10148 3469,10148 3776,10099 4072,10003 4090,9997 4109,9990 4128,9984 L 3642,8586 C 3633,8589 3624,8592 3614,8595 3468,8643 3313,8668 3158,8668 3003,8668 2848,8643 2701,8595 2553,8547 2414,8476 2288,8385 2163,8294 2052,8183 1961,8058 1870,7932 1799,7793 1751,7645 1703,7498 1678,7343 1678,7188 1678,7033 1703,6878 1751,6731 1799,6583 1870,6444 1961,6318 2052,6193 2163,6082 2288,5991 2414,5900 2553,5829 2701,5781 2848,5733 3003,5708 3158,5708 L 3158,4230 Z"/>
 <path fill="rgb(255,66,14)" stroke="none" d="M 4128,9984 C 4402,9888 4661,9753 4897,9582 5148,9400 5369,9179 5551,8928 5734,8676 5876,8398 5972,8103 6017,7965 6051,7823 6075,7680 L 4616,7434 C 4604,7506 4587,7576 4564,7645 4516,7793 4445,7932 4354,8058 4263,8183 4152,8294 4027,8385 3909,8471 3780,8538 3642,8586 L 4128,9984 Z"/>
 <path fill="rgb(255,211,32)" stroke="none" d="M 6075,7680 C 6103,7518 6117,7353 6117,7188 6117,6877 6068,6569 5972,6273 5876,5978 5734,5700 5551,5448 5392,5230 5204,5034 4991,4866 L 4074,6027 C 4180,6111 4275,6209 4354,6318 4445,6444 4516,6583 4564,6731 4612,6878 4637,7033 4637,7188 4637,7270 4630,7353 4616,7434 L 6075,7680 Z"/>
 <path fill="rgb(87,157,28)" stroke="none" d="M 4991,4866 C 4960,4842 4929,4818 4897,4795 4645,4612 4367,4470 4072,4374 3776,4278 3469,4230 3158,4230 L 3158,5708 C 3313,5708 3468,5733 3614,5781 3762,5829 3901,5900 4027,5991 4043,6002 4059,6014 4074,6027 L 4991,4866 Z"/>
 <text class="TextShape"><tspan class="TextParagraph" font-family="Liberation Sans" font-size="353px" font-weight="700"><tspan class="TextPosition" x="770" y="7683"><tspan fill="rgb(255,255,255)" stroke="none">26</tspan></tspan></tspan></text>
 <text class="TextShape"><tspan class="TextParagraph" font-family="Liberation Sans" font-size="353px" font-weight="700"><tspan class="TextPosition" x="4753" y="8747"><tspan fill="rgb(255,255,255)" stroke="none">8</tspan></tspan></tspan></text>
 <text class="TextShape"><tspan class="TextParagraph" font-family="Liberation Sans" font-size="353px" font-weight="700"><tspan class="TextPosition" x="5129" y="6516"><tspan fill="rgb(255,255,255)" stroke="none">8</tspan></tspan></tspan></text>
 <text class="TextShape"><tspan class="TextParagraph" font-family="Liberation Sans" font-size="353px" font-weight="700"><tspan class="TextPosition" x="3786" y="5217"><tspan fill="rgb(255,255,255)" stroke="none">5</tspan></tspan></tspan></text>
 <path fill="rgb(0,69,134)" stroke="none" d="M 342,1333 L 237,1333 237,1122 448,1122 448,1333 342,1333 Z"/>
 <path fill="rgb(255,66,14)" stroke="none" d="M 342,2083 L 237,2083 237,1872 448,1872 448,2083 342,2083 Z"/>
 <path fill="rgb(255,211,32)" stroke="none" d="M 342,2833 L 237,2833 237,2622 448,2622 448,2833 342,2833 Z"/>
 <path fill="rgb(87,157,28)" stroke="none" d="M 342,3583 L 237,3583 237,3372 448,3372 448,3583 342,3583 Z"/>
 <text class="TextShape"><tspan class="TextParagraph" font-family="Liberation Sans" font-size="353px" font-weight="400"><tspan class="TextPosition" x="548" y="1352"><tspan fill="rgb(0,0,0)" stroke="none">Entre 15 e 45 minutos</tspan></tspan></tspan></text>
 <text class="TextShape"><tspan class="TextParagraph" font-family="Liberation Sans" font-size="353px" font-weight="400"><tspan class="TextPosition" x="548" y="2102"><tspan fill="rgb(0,0,0)" stroke="none">Entre 45 minutos e uma hora e meia</tspan></tspan></tspan></text>
 <text class="TextShape"><tspan class="TextParagraph" font-family="Liberation Sans" font-size="353px" font-weight="400"><tspan class="TextPosition" x="548" y="2852"><tspan fill="rgb(0,0,0)" stroke="none">Mais de uma hora e meia</tspan></tspan></tspan></text>
 <text class="TextShape"><tspan class="TextParagraph" font-family="Liberation Sans" font-size="353px" font-weight="400"><tspan class="TextPosition" x="548" y="3602"><tspan fill="rgb(0,0,0)" stroke="none">Menos de 15 minutos</tspan></tspan></tspan></text>
</svg>