<?xml version="1.0" encoding="UTF-8"?>
<!DOCTYPE svg PUBLIC "-//W3C//DTD SVG 1.1//EN" "http://www.w3.org/Graphics/SVG/1.1/DTD/svg11.dtd">
<svg width="70mm" height="106mm" viewBox="0 0 7000 10600" version="1.1" xmlns="http://www.w3.org/2000/svg" stroke-width="28.222" stroke-linejoin="round" xml:space="preserve">
 <path fill="rgb(255,255,255)" stroke="none" d="M 3500,10561 L 0,10561 0,0 6999,0 6999,10561 3500,10561 Z"/>
 <path fill="rgb(0,69,134)" stroke="none" d="M 3158,4230 C 2847,4230 2539,4278 2243,4374 1948,4470 1670,4612 1418,4795 1167,4977 946,5198 764,5448 581,5700 439,5978 343,6273 247,6569 199,6877 199,7188 199,7499 247,7807 343,8103 367,8176 394,8249 424,8321 L 1791,7754 C 1776,7718 1763,7682 1751,7645 1703,7498 1678,7343 1678,7188 1678,7033 1703,6878 1751,6731 1799,6583 1870,6444 1961,6318 2052,6193 2163,6082 2288,5991 2414,5900 2553,5829 2701,5781 2848,5733 3003,5708 3158,5708 L 3158,4230 Z"/>
 <path fill="rgb(255,66,14)" stroke="none" d="M 424,8321 C 513,8536 627,8739 764,8928 946,9179 1167,9400 1418,9582 1670,9765 1948,9907 2243,10003 2539,10099 2847,10148 3158,10148 3469,10148 3776,10099 4072,10003 4268,9939 4458,9854 4637,9751 L 3897,8470 C 3807,8521 3713,8563 3614,8595 3468,8643 3313,8668 3158,8668 3003,8668 2848,8643 2701,8595 2553,8547 2414,8476 2288,8385 2163,8294 2052,8183 1961,8058 1892,7964 1835,7862 1791,7754 L 424,8321 Z"/>
 <path fill="rgb(255,211,32)" stroke="none" d="M 4637,9751 C 4726,9699 4813,9643 4897,9582 5148,9400 5369,9179 5551,8928 5734,8676 5876,8398 5972,8103 6068,7807 6117,7499 6117,7188 6117,6877 6068,6569 5972,6273 5908,6077 5823,5887 5720,5708 L 4439,6448 C 4490,6538 4532,6632 4564,6731 4612,6878 4637,7033 4637,7188 4637,7343 4612,7498 4564,7645 4516,7793 4445,7932 4354,8058 4263,8183 4152,8294 4027,8385 3985,8416 3942,8444 3897,8470 L 4637,9751 Z"/>
 <path fill="rgb(87,157,28)" stroke="none" d="M 5720,5708 C 5668,5619 5612,5532 5551,5448 5369,5198 5148,4977 4897,4795 4645,4612 4367,4470 4072,4374 3776,4278 3469,4230 3158,4230 L 3158,5708 C 3313,5708 3468,5733 3614,5781 3762,5829 3901,5900 4027,5991 4152,6082 4263,6193 4354,6318 4385,6360 4413,6403 4439,6448 L 5720,5708 Z"/>
 <text class="TextShape"><tspan class="TextParagraph" font-family="Liberation Sans" font-size="353px" font-weight="700"><tspan class="TextPosition" x="1113" y="6081"><tspan fill="rgb(255,255,255)" stroke="none">15</tspan></tspan></tspan></text>
 <text class="TextShape"><tspan class="TextParagraph" font-family="Liberation Sans" font-size="353px" font-weight="700"><tspan class="TextPosition" x="2246" y="9416"><tspan fill="rgb(255,255,255)" stroke="none">13</tspan></tspan></tspan></text>
 <text class="TextShape"><tspan class="TextParagraph" font-family="Liberation Sans" font-size="353px" font-weight="700"><tspan class="TextPosition" x="5103" y="7888"><tspan fill="rgb(255,255,255)" stroke="none">12</tspan></tspan></tspan></text>
 <text class="TextShape"><tspan class="TextParagraph" font-family="Liberation Sans" font-size="353px" font-weight="700"><tspan class="TextPosition" x="4168" y="5392"><tspan fill="rgb(255,255,255)" stroke="none">8</tspan></tspan></tspan></text>
 <path fill="rgb(0,69,134)" stroke="none" d="M 367,1253 L 262,1253 262,1042 473,1042 473,1253 367,1253 Z"/>
 <path fill="rgb(255,66,14)" stroke="none" d="M 367,2322 L 262,2322 262,2111 473,2111 473,2322 367,2322 Z"/>
 <path fill="rgb(255,211,32)" stroke="none" d="M 367,2992 L 262,2992 262,2781 473,2781 473,2992 367,2992 Z"/>
 <path fill="rgb(87,157,28)" stroke="none" d="M 367,3662 L 262,3662 262,3451 473,3451 473,3662 367,3662 Z"/>
 <text class="TextShape"><tspan class="TextParagraph" font-family="Liberation Sans" font-size="353px" font-weight="400"><tspan class="TextPosition" x="573" y="1272"><tspan fill="rgb(0,0,0)" stroke="none">Esporadicamente ou de acordo com </tspan></tspan><tspan class="TextPosition" x="573" y="1671"><tspan fill="rgb(0,0,0)" stroke="none">a necessidade</tspan></tspan></tspan></text>
 <text class="TextShape"><tspan class="TextParagraph" font-family="Liberation Sans" font-size="353px" font-weight="400"><tspan class="TextPosition" x="573" y="2341"><tspan fill="rgb(0,0,0)" stroke="none">Todos os dias</tspan></tspan></tspan></text>
 <text class="TextShape"><tspan class="TextParagraph" font-family="Liberation Sans" font-size="353px" font-weight="400"><tspan class="TextPosition" x="573" y="3011"><tspan fill="rgb(0,0,0)" stroke="none">Cerca de três vezes por semana</tspan></tspan></tspan></text>
 <text class="TextShape"><tspan class="TextParagraph" font-family="Liberation Sans" font-size="353px" font-weight="400"><tspan class="TextPosition" x="573" y="3681"><tspan fill="rgb(0,0,0)" stroke="none">Uma vez por semana</tspan></tspan></tspan></text>
</svg>