<?xml version="1.0" encoding="UTF-8"?>
<!DOCTYPE svg PUBLIC "-//W3C//DTD SVG 1.1//EN" "http://www.w3.org/Graphics/SVG/1.1/DTD/svg11.dtd">
<svg width="203mm" height="55mm" viewBox="0 0 20300 5500" version="1.1" xmlns="http://www.w3.org/2000/svg" stroke-width="28.222" stroke-linejoin="round" xml:space="preserve">
 <path fill="rgb(255,255,255)" stroke="none" d="M 10173,5544 L 0,5544 0,0 20345,0 20345,5544 10173,5544 Z"/>
 <path fill="none" stroke="rgb(179,179,179)" stroke-linejoin="round" d="M 13199,5196 L 7291,5196 7291,997 19107,997 19107,5196 13199,5196 Z"/>
 <path fill="none" stroke="rgb(179,179,179)" stroke-linejoin="round" d="M 7291,996 L 7291,5195"/>
 <path fill="none" stroke="rgb(179,179,179)" stroke-linejoin="round" d="M 8604,996 L 8604,5195"/>
 <path fill="none" stroke="rgb(179,179,179)" stroke-linejoin="round" d="M 9917,996 L 9917,5195"/>
 <path fill="none" stroke="rgb(179,179,179)" stroke-linejoin="round" d="M 11229,996 L 11229,5195"/>
 <path fill="none" stroke="rgb(179,179,179)" stroke-linejoin="round" d="M 12542,996 L 12542,5195"/>
 <path fill="none" stroke="rgb(179,179,179)" stroke-linejoin="round" d="M 13855,996 L 13855,5195"/>
 <path fill="none" stroke="rgb(179,179,179)" stroke-linejoin="round" d="M 15168,996 L 15168,5195"/>
 <path fill="none" stroke="rgb(179,179,179)" stroke-linejoin="round" d="M 16481,996 L 16481,5195"/>
 <path fill="none" stroke="rgb(179,179,179)" stroke-linejoin="round" d="M 17794,996 L 17794,5195"/>
 <path fill="none" stroke="rgb(179,179,179)" stroke-linejoin="round" d="M 19107,996 L 19107,5195"/>
 <path fill="none" stroke="rgb(179,179,179)" stroke-linejoin="round" d="M 7141,996 L 7291,996"/>
 <path fill="none" stroke="rgb(179,179,179)" stroke-linejoin="round" d="M 7141,996 L 7291,996"/>
 <path fill="none" stroke="rgb(179,179,179)" stroke-linejoin="round" d="M 7141,2046 L 7291,2046"/>
 <path fill="none" stroke="rgb(179,179,179)" stroke-linejoin="round" d="M 7141,2046 L 7291,2046"/>
 <path fill="none" stroke="rgb(179,179,179)" stroke-linejoin="round" d="M 7141,3095 L 7291,3095"/>
 <path fill="none" stroke="rgb(179,179,179)" stroke-linejoin="round" d="M 7141,3095 L 7291,3095"/>
 <path fill="none" stroke="rgb(179,179,179)" stroke-linejoin="round" d="M 7141,4145 L 7291,4145"/>
 <path fill="none" stroke="rgb(179,179,179)" stroke-linejoin="round" d="M 7141,4145 L 7291,4145"/>
 <path fill="none" stroke="rgb(179,179,179)" stroke-linejoin="round" d="M 7141,5195 L 7291,5195"/>
 <path fill="none" stroke="rgb(179,179,179)" stroke-linejoin="round" d="M 7141,5195 L 7291,5195"/>
 <path fill="none" stroke="rgb(179,179,179)" stroke-linejoin="round" d="M 7291,5195 L 7291,996"/>
 <path fill="none" stroke="rgb(179,179,179)" stroke-linejoin="round" d="M 7291,846 L 7291,996"/>
 <path fill="none" stroke="rgb(179,179,179)" stroke-linejoin="round" d="M 7291,846 L 7291,996"/>
 <path fill="none" stroke="rgb(179,179,179)" stroke-linejoin="round" d="M 8604,846 L 8604,996"/>
 <path fill="none" stroke="rgb(179,179,179)" stroke-linejoin="round" d="M 8604,846 L 8604,996"/>
 <path fill="none" stroke="rgb(179,179,179)" stroke-linejoin="round" d="M 9917,846 L 9917,996"/>
 <path fill="none" stroke="rgb(179,179,179)" stroke-linejoin="round" d="M 9917,846 L 9917,996"/>
 <path fill="none" stroke="rgb(179,179,179)" stroke-linejoin="round" d="M 11229,846 L 11229,996"/>
 <path fill="none" stroke="rgb(179,179,179)" stroke-linejoin="round" d="M 11229,846 L 11229,996"/>
 <path fill="none" stroke="rgb(179,179,179)" stroke-linejoin="round" d="M 12542,846 L 12542,996"/>
 <path fill="none" stroke="rgb(179,179,179)" stroke-linejoin="round" d="M 12542,846 L 12542,996"/>
 <path fill="none" stroke="rgb(179,179,179)" stroke-linejoin="round" d="M 13855,846 L 13855,996"/>
 <path fill="none" stroke="rgb(179,179,179)" stroke-linejoin="round" d="M 13855,846 L 13855,996"/>
 <path fill="none" stroke="rgb(179,179,179)" stroke-linejoin="round" d="M 15168,846 L 15168,996"/>
 <path fill="none" stroke="rgb(179,179,179)" stroke-linejoin="round" d="M 15168,846 L 15168,996"/>
 <path fill="none" stroke="rgb(179,179,179)" stroke-linejoin="round" d="M 16481,846 L 16481,996"/>
 <path fill="none" stroke="rgb(179,179,179)" stroke-linejoin="round" d="M 16481,846 L 16481,996"/>
 <path fill="none" stroke="rgb(179,179,179)" stroke-linejoin="round" d="M 17794,846 L 17794,996"/>
 <path fill="none" stroke="rgb(179,179,179)" stroke-linejoin="round" d="M 17794,846 L 17794,996"/>
 <path fill="none" stroke="rgb(179,179,179)" stroke-linejoin="round" d="M 19107,846 L 19107,996"/>
 <path fill="none" stroke="rgb(179,179,179)" stroke-linejoin="round" d="M 19107,846 L 19107,996"/>
 <path fill="none" stroke="rgb(179,179,179)" stroke-linejoin="round" d="M 7291,996 L 19107,996"/>
 <path fill="rgb(0,69,134)" stroke="none" d="M 7291,4407 L 7291,4932 14905,4932 14905,4407 7291,4407 Z"/>
 <path fill="rgb(0,69,134)" stroke="none" d="M 7291,3357 L 7291,3882 16218,3882 16218,3357 7291,3357 Z"/>
 <path fill="rgb(0,69,134)" stroke="none" d="M 7291,2308 L 7291,2832 17006,2832 17006,2308 7291,2308 Z"/>
 <path fill="rgb(0,69,134)" stroke="none" d="M 7291,1258 L 7291,1783 18319,1783 18319,1258 7291,1258 Z"/>
 <text class="TextShape"><tspan class="TextParagraph" font-family="Source Sans Pro" font-size="423px" font-weight="400"><tspan class="TextPosition" x="2733" y="1670"><tspan fill="rgb(0,0,0)" stroke="none">Identificação das plantas</tspan></tspan></tspan></text>
 <text class="TextShape"><tspan class="TextParagraph" font-family="Source Sans Pro" font-size="423px" font-weight="400"><tspan class="TextPosition" x="3854" y="2720"><tspan fill="rgb(0,0,0)" stroke="none">Posologia/receitas</tspan></tspan></tspan></text>
 <text class="TextShape"><tspan class="TextParagraph" font-family="Source Sans Pro" font-size="423px" font-weight="400"><tspan class="TextPosition" x="4028" y="3770"><tspan fill="rgb(0,0,0)" stroke="none">Contraindicações</tspan></tspan></tspan></text>
 <text class="TextShape"><tspan class="TextParagraph" font-family="Source Sans Pro" font-size="423px" font-weight="400"><tspan class="TextPosition" x="4451" y="4820"><tspan fill="rgb(0,0,0)" stroke="none">Plantas tóxicas</tspan></tspan></tspan></text>
 <text class="TextShape" transform="translate(7084,660) rotate(2.9) translate(-7084,-660)"><tspan class="TextParagraph" font-family="Liberation Sans" font-size="353px" font-weight="400"><tspan class="TextPosition" x="7084" y="660"><tspan fill="rgb(0,0,0)" stroke="none">0</tspan></tspan></tspan></text>
 <text class="TextShape" transform="translate(8397,660) rotate(2.9) translate(-8397,-660)"><tspan class="TextParagraph" font-family="Liberation Sans" font-size="353px" font-weight="400"><tspan class="TextPosition" x="8397" y="660"><tspan fill="rgb(0,0,0)" stroke="none">5</tspan></tspan></tspan></text>
 <text class="TextShape" transform="translate(9511,650) rotate(2.9) translate(-9511,-650)"><tspan class="TextParagraph" font-family="Liberation Sans" font-size="353px" font-weight="400"><tspan class="TextPosition" x="9511" y="650"><tspan fill="rgb(0,0,0)" stroke="none">10</tspan></tspan></tspan></text>
 <text class="TextShape" transform="translate(10824,650) rotate(2.9) translate(-10824,-650)"><tspan class="TextParagraph" font-family="Liberation Sans" font-size="353px" font-weight="400"><tspan class="TextPosition" x="10824" y="650"><tspan fill="rgb(0,0,0)" stroke="none">15</tspan></tspan></tspan></text>
 <text class="TextShape" transform="translate(12137,650) rotate(2.9) translate(-12137,-650)"><tspan class="TextParagraph" font-family="Liberation Sans" font-size="353px" font-weight="400"><tspan class="TextPosition" x="12137" y="650"><tspan fill="rgb(0,0,0)" stroke="none">20</tspan></tspan></tspan></text>
 <text class="TextShape" transform="translate(13450,650) rotate(2.9) translate(-13450,-650)"><tspan class="TextParagraph" font-family="Liberation Sans" font-size="353px" font-weight="400"><tspan class="TextPosition" x="13450" y="650"><tspan fill="rgb(0,0,0)" stroke="none">25</tspan></tspan></tspan></text>
 <text class="TextShape" transform="translate(14763,650) rotate(2.9) translate(-14763,-650)"><tspan class="TextParagraph" font-family="Liberation Sans" font-size="353px" font-weight="400"><tspan class="TextPosition" x="14763" y="650"><tspan fill="rgb(0,0,0)" stroke="none">30</tspan></tspan></tspan></text>
 <text class="TextShape" transform="translate(16076,650) rotate(2.9) translate(-16076,-650)"><tspan class="TextParagraph" font-family="Liberation Sans" font-size="353px" font-weight="400"><tspan class="TextPosition" x="16076" y="650"><tspan fill="rgb(0,0,0)" stroke="none">35</tspan></tspan></tspan></text>
 <text class="TextShape" transform="translate(17389,650) rotate(2.9) translate(-17389,-650)"><tspan class="TextParagraph" font-family="Liberation Sans" font-size="353px" font-weight="400"><tspan class="TextPosition" x="17389" y="650"><tspan fill="rgb(0,0,0)" stroke="none">40</tspan></tspan></tspan></text>
 <text class="TextShape" transform="translate(18702,650) rotate(2.9) translate(-18702,-650)"><tspan class="TextParagraph" font-family="Liberation Sans" font-size="353px" font-weight="400"><tspan class="TextPosition" x="18702" y="650"><tspan fill="rgb(0,0,0)" stroke="none">45</tspan></tspan></tspan></text>
 <text class="TextShape"><tspan class="TextParagraph" font-family="Liberation Sans" font-size="353px" font-weight="400"><tspan class="TextPosition" x="18419" y="1646"><tspan fill="rgb(17,17,17)" stroke="none">42</tspan></tspan></tspan></text>
 <text class="TextShape"><tspan class="TextParagraph" font-family="Liberation Sans" font-size="353px" font-weight="400"><tspan class="TextPosition" x="17106" y="2696"><tspan fill="rgb(17,17,17)" stroke="none">37</tspan></tspan></tspan></text>
 <text class="TextShape"><tspan class="TextParagraph" font-family="Liberation Sans" font-size="353px" font-weight="400"><tspan class="TextPosition" x="16318" y="3746"><tspan fill="rgb(17,17,17)" stroke="none">34</tspan></tspan></tspan></text>
 <text class="TextShape"><tspan class="TextParagraph" font-family="Liberation Sans" font-size="353px" font-weight="400"><tspan class="TextPosition" x="15005" y="4796"><tspan fill="rgb(17,17,17)" stroke="none">29</tspan></tspan></tspan></text>
</svg>