<?xml version="1.0" encoding="UTF-8" standalone="no"?>
<!-- Created with Inkscape (http://www.inkscape.org/) -->

<svg
   xmlns:dc="http://purl.org/dc/elements/1.1/"
   xmlns:cc="http://creativecommons.org/ns#"
   xmlns:rdf="http://www.w3.org/1999/02/22-rdf-syntax-ns#"
   xmlns:svg="http://www.w3.org/2000/svg"
   xmlns="http://www.w3.org/2000/svg"
   xmlns:xlink="http://www.w3.org/1999/xlink"
   xmlns:sodipodi="http://sodipodi.sourceforge.net/DTD/sodipodi-0.dtd"
   xmlns:inkscape="http://www.inkscape.org/namespaces/inkscape"
   id="svg4807"
   version="1.1"
   inkscape:version="0.91 r13725"
   width="162.78716"
   height="99.232346"
   viewBox="0 0 162.78716 99.232346"
   sodipodi:docname="ccs_logo.svg">
  <metadata
     id="metadata4813">
    <rdf:RDF>
      <cc:Work
         rdf:about="">
        <dc:format>image/svg+xml</dc:format>
        <dc:type
           rdf:resource="http://purl.org/dc/dcmitype/StillImage" />
        <dc:title></dc:title>
      </cc:Work>
    </rdf:RDF>
  </metadata>
  <defs
     id="defs4811" />
  <sodipodi:namedview
     pagecolor="#ffffff"
     bordercolor="#666666"
     borderopacity="1"
     objecttolerance="10"
     gridtolerance="10"
     guidetolerance="10"
     inkscape:pageopacity="0"
     inkscape:pageshadow="2"
     inkscape:window-width="1920"
     inkscape:window-height="1080"
     id="namedview4809"
     showgrid="false"
     inkscape:zoom="1.9778039"
     inkscape:cx="81.637984"
     inkscape:cy="45.364102"
     inkscape:window-x="0"
     inkscape:window-y="0"
     inkscape:window-maximized="0"
     inkscape:current-layer="svg4807"
     fit-margin-top="0"
     fit-margin-left="0"
     fit-margin-right="0"
     fit-margin-bottom="0" />
  <image
     width="168.75"
     height="118.125"
     preserveAspectRatio="none"
     xlink:href="file:///home/eupiteco/tmp/qwe_download.jpg"
     id="image4815"
     x="-12.927176"
     y="-124.76211"
     sodipodi:absref="/home/eupiteco/tmp/qwe_download.jpg" />
  <g
     id="g4240"
     transform="translate(-3.8261719,-0.397511)"
     style="fill:#ff0000">
    <g
       style="fill:#ff0000;fill-opacity:1;stroke:none"
       id="g4855">
      <path
         style="color:#000000;clip-rule:nonzero;display:inline;overflow:visible;visibility:visible;opacity:1;isolation:auto;mix-blend-mode:normal;color-interpolation:sRGB;color-interpolation-filters:linearRGB;solid-color:#000000;solid-opacity:1;fill:#ff0000;fill-opacity:1;fill-rule:evenodd;stroke:none;stroke-width:1;stroke-linecap:butt;stroke-linejoin:miter;stroke-miterlimit:4;stroke-dasharray:none;stroke-dashoffset:0;stroke-opacity:1;color-rendering:auto;image-rendering:auto;shape-rendering:auto;text-rendering:auto;enable-background:accumulate"
         d="m 78.29714,87.735699 c 0,0 16.982251,4.111493 33.96451,4.111493 25.38401,0 52.55562,-10.189353 52.55562,-16.267213 l 0,9.11679 c 0,6.07786 -27.17161,14.122086 -52.55562,14.122086 -16.982259,0 -33.96451,-4.111493 -33.96451,-4.111493 z"
         id="path4819"
         inkscape:connector-curvature="0"
         sodipodi:nodetypes="csccscc" />
      <path
         inkscape:connector-curvature="0"
         id="path4831-3"
         d="M 35.566675,31.765726 C 18.751392,33.90972 5.7131596,37.804865 5.7131596,44.882914 l 0,8.222656 c 0,-7.078049 13.0382324,-10.973194 29.8535154,-13.117188 l 0,-8.222656 z"
         style="color:#000000;clip-rule:nonzero;display:inline;overflow:visible;visibility:visible;opacity:1;isolation:auto;mix-blend-mode:normal;color-interpolation:sRGB;color-interpolation-filters:linearRGB;solid-color:#000000;solid-opacity:1;fill:#ff0000;fill-opacity:1;fill-rule:evenodd;stroke:none;stroke-width:1;stroke-linecap:butt;stroke-linejoin:miter;stroke-miterlimit:4;stroke-dasharray:none;stroke-dashoffset:0;stroke-opacity:1;color-rendering:auto;image-rendering:auto;shape-rendering:auto;text-rendering:auto;enable-background:accumulate" />
      <path
         sodipodi:nodetypes="csccscc"
         inkscape:connector-curvature="0"
         id="path4825"
         d="m 5.7131596,51.666893 c 0,12.259165 45.1079614,16.287177 71.8908154,16.287177 26.782855,0 87.756755,0.146094 87.220475,14.418811 l 0,-9.515145 c 0.53628,-9.982463 -60.43762,-11.558642 -87.220475,-11.558642 -26.782854,0 -71.8908154,-4.028012 -71.8908154,-16.287177 z"
         style="color:#000000;clip-rule:nonzero;display:inline;overflow:visible;visibility:visible;opacity:1;isolation:auto;mix-blend-mode:normal;color-interpolation:sRGB;color-interpolation-filters:linearRGB;solid-color:#000000;solid-opacity:1;fill:#ff0000;fill-opacity:1;fill-rule:evenodd;stroke:none;stroke-width:0.99999994;stroke-linecap:butt;stroke-linejoin:miter;stroke-miterlimit:4;stroke-dasharray:none;stroke-dashoffset:0;stroke-opacity:1;color-rendering:auto;image-rendering:auto;shape-rendering:auto;text-rendering:auto;enable-background:accumulate" />
    </g>
    <g
       style="fill:#ff0000;fill-opacity:1;stroke:#ffffff"
       id="g4836">
      <path
         style="color:#000000;clip-rule:nonzero;display:inline;overflow:visible;visibility:visible;opacity:1;isolation:auto;mix-blend-mode:normal;color-interpolation:sRGB;color-interpolation-filters:linearRGB;solid-color:#000000;solid-opacity:1;fill:#ff0000;fill-opacity:1;fill-rule:evenodd;stroke:#ffffff;stroke-width:1;stroke-linecap:butt;stroke-linejoin:miter;stroke-miterlimit:4;stroke-dasharray:none;stroke-dashoffset:0;stroke-opacity:1;color-rendering:auto;image-rendering:auto;shape-rendering:auto;text-rendering:auto;enable-background:accumulate"
         d="M 36.646418,14.698358 C 19.831135,16.842352 6.7929024,20.737497 6.7929025,27.815546 l 0,8.222656 c 0,-7.078049 13.0382325,-10.973194 29.8535155,-13.117188 l 0,-8.222656 z"
         id="path4831"
         inkscape:connector-curvature="0" />
      <path
         style="color:#000000;clip-rule:nonzero;display:inline;overflow:visible;visibility:visible;opacity:1;isolation:auto;mix-blend-mode:normal;color-interpolation:sRGB;color-interpolation-filters:linearRGB;solid-color:#000000;solid-opacity:1;fill:#ff0000;fill-opacity:1;fill-rule:evenodd;stroke:#ffffff;stroke-width:1;stroke-linecap:butt;stroke-linejoin:miter;stroke-miterlimit:4;stroke-dasharray:none;stroke-dashoffset:0;stroke-opacity:1;color-rendering:auto;image-rendering:auto;shape-rendering:auto;text-rendering:auto;enable-background:accumulate"
         d="m 6.7929025,28.029661 c 0,15.19465 60.0635595,15.730932 88.6652545,15.730932 l 0,8.222987 c -28.601695,0 -88.6652545,-0.536282 -88.6652545,-15.730932 z"
         id="path4827"
         inkscape:connector-curvature="0"
         sodipodi:nodetypes="ccccc" />
    </g>
    <g
       style="fill:#ff0000;stroke:none"
       transform="translate(0,-14.300847)"
       id="g4860">
      <path
         inkscape:connector-curvature="0"
         id="path4864"
         d="M 36.646418,14.698358 C 19.831135,16.842352 6.7929024,20.737497 6.7929025,27.815546 l 0,8.222656 c 0,-7.078049 13.0382325,-10.973194 29.8535155,-13.117188 l 0,-8.222656 z"
         style="color:#000000;clip-rule:nonzero;display:inline;overflow:visible;visibility:visible;opacity:1;isolation:auto;mix-blend-mode:normal;color-interpolation:sRGB;color-interpolation-filters:linearRGB;solid-color:#000000;solid-opacity:1;fill:#ff0000;fill-opacity:1;fill-rule:evenodd;stroke:none;stroke-width:1;stroke-linecap:butt;stroke-linejoin:miter;stroke-miterlimit:4;stroke-dasharray:none;stroke-dashoffset:0;stroke-opacity:1;color-rendering:auto;image-rendering:auto;shape-rendering:auto;text-rendering:auto;enable-background:accumulate" />
      <path
         sodipodi:nodetypes="ccccc"
         inkscape:connector-curvature="0"
         id="path4862"
         d="m 6.7929025,28.029661 c 0,15.19465 60.0635595,15.730932 88.6652545,15.730932 l 0,8.222987 c -28.601695,0 -88.6652545,-0.536282 -88.6652545,-15.730932 z"
         style="color:#000000;clip-rule:nonzero;display:inline;overflow:visible;visibility:visible;opacity:1;isolation:auto;mix-blend-mode:normal;color-interpolation:sRGB;color-interpolation-filters:linearRGB;solid-color:#000000;solid-opacity:1;fill:#ff0000;fill-opacity:1;fill-rule:evenodd;stroke:#ffffff;stroke-width:1;stroke-linecap:butt;stroke-linejoin:miter;stroke-miterlimit:4;stroke-dasharray:none;stroke-dashoffset:0;stroke-opacity:1;color-rendering:auto;image-rendering:auto;shape-rendering:auto;text-rendering:auto;enable-background:accumulate" />
    </g>
    <g
       style="fill:#ff0000"
       id="g4979">
      <path
         style="color:#000000;font-style:normal;font-variant:normal;font-weight:normal;font-stretch:normal;font-size:medium;line-height:normal;font-family:sans-serif;text-indent:0;text-align:start;text-decoration:none;text-decoration-line:none;text-decoration-style:solid;text-decoration-color:#000000;letter-spacing:normal;word-spacing:normal;text-transform:none;direction:ltr;block-progression:tb;writing-mode:lr-tb;baseline-shift:baseline;text-anchor:start;white-space:normal;clip-rule:nonzero;display:inline;overflow:visible;visibility:visible;opacity:1;isolation:auto;mix-blend-mode:normal;color-interpolation:sRGB;color-interpolation-filters:linearRGB;solid-color:#000000;solid-opacity:1;fill:#ff0000;fill-opacity:1;fill-rule:nonzero;stroke:none;stroke-width:2;stroke-linecap:butt;stroke-linejoin:round;stroke-miterlimit:4;stroke-dasharray:none;stroke-dashoffset:0;stroke-opacity:1;color-rendering:auto;image-rendering:auto;shape-rendering:auto;text-rendering:auto;enable-background:accumulate"
         d="M 14.658203,77.619141 C 8.6876222,77.61902 3.8260509,82.480591 3.8261719,88.451172 c -1.21e-4,5.97058 4.8614503,10.832152 10.8320311,10.832031 a 1.0001,1.0001 0 0 0 0.002,0 c 3.680796,-0.0045 7.110088,-1.879783 9.09961,-4.976562 l -1.683594,-1.082032 c -1.623064,2.526371 -4.415257,4.054245 -7.417969,4.058594 -4.8896718,9.9e-5 -8.8321302,-3.94236 -8.8320311,-8.832031 -9.91e-5,-4.889005 3.9413309,-8.831056 8.8300781,-8.832031 2.931025,0.0037 5.667852,1.459908 7.308594,3.888671 l 1.65625,-1.121093 c -2.010889,-2.976685 -5.368682,-4.763095 -8.960938,-4.767578 a 1.0001,1.0001 0 0 0 -0.002,0 z"
         id="path4885"
         inkscape:connector-curvature="0" />
      <path
         style="color:#000000;font-style:normal;font-variant:normal;font-weight:normal;font-stretch:normal;font-size:medium;line-height:normal;font-family:sans-serif;text-indent:0;text-align:start;text-decoration:none;text-decoration-line:none;text-decoration-style:solid;text-decoration-color:#000000;letter-spacing:normal;word-spacing:normal;text-transform:none;direction:ltr;block-progression:tb;writing-mode:lr-tb;baseline-shift:baseline;text-anchor:start;white-space:normal;clip-rule:nonzero;display:inline;overflow:visible;visibility:visible;opacity:1;isolation:auto;mix-blend-mode:normal;color-interpolation:sRGB;color-interpolation-filters:linearRGB;solid-color:#000000;solid-opacity:1;fill:#ff0000;fill-opacity:1;fill-rule:nonzero;stroke:none;stroke-width:2;stroke-linecap:butt;stroke-linejoin:round;stroke-miterlimit:4;stroke-dasharray:none;stroke-dashoffset:0;stroke-opacity:1;color-rendering:auto;image-rendering:auto;shape-rendering:auto;text-rendering:auto;enable-background:accumulate"
         d="m 37.03125,77.619141 c -5.970581,-1.21e-4 -10.832152,4.86145 -10.832031,10.832031 -1.21e-4,5.97058 4.86145,10.832152 10.832031,10.832031 a 1.0001,1.0001 0 0 0 0.002,0 c 3.680796,-0.0045 7.110088,-1.879783 9.099609,-4.976562 l -1.683593,-1.082032 c -1.623418,2.526923 -4.414509,4.05491 -7.417969,4.058594 -4.889673,9.9e-5 -8.83213,-3.94236 -8.832031,-8.832031 -9.9e-5,-4.889005 3.94133,-8.831056 8.830078,-8.832031 2.931024,0.0037 5.667852,1.459908 7.308594,3.888671 l 1.65625,-1.121093 C 43.983299,79.410034 40.625506,77.623624 37.03325,77.619141 a 1.0001,1.0001 0 0 0 -0.002,0 z"
         id="path4896"
         inkscape:connector-curvature="0" />
      <path
         style="color:#000000;font-style:normal;font-variant:normal;font-weight:normal;font-stretch:normal;font-size:medium;line-height:normal;font-family:sans-serif;text-indent:0;text-align:start;text-decoration:none;text-decoration-line:none;text-decoration-style:solid;text-decoration-color:#000000;letter-spacing:normal;word-spacing:normal;text-transform:none;direction:ltr;block-progression:tb;writing-mode:lr-tb;baseline-shift:baseline;text-anchor:start;white-space:normal;clip-rule:nonzero;display:inline;overflow:visible;visibility:visible;opacity:1;isolation:auto;mix-blend-mode:normal;color-interpolation:sRGB;color-interpolation-filters:linearRGB;solid-color:#000000;solid-opacity:1;fill:#ff0000;fill-opacity:1;fill-rule:nonzero;stroke:none;stroke-width:2;stroke-linecap:butt;stroke-linejoin:miter;stroke-miterlimit:4;stroke-dasharray:none;stroke-dashoffset:0;stroke-opacity:1;color-rendering:auto;image-rendering:auto;shape-rendering:auto;text-rendering:auto;enable-background:accumulate"
         d="m 54.439453,77.589844 c -1.234222,0.12687 -2.437829,0.658338 -3.332031,1.552734 -1.791359,1.791604 -1.998777,4.784107 -0.205078,6.578125 l 6.414062,6.386719 0.0039,0.0039 c 0.733987,0.715807 0.961339,1.549375 0.892579,2.41211 -0.06876,0.862734 -0.487994,1.726203 -1.011719,2.25 -1.009197,1.009415 -3.018455,1.051554 -4.38086,0.314453 C 52.279699,96.7954 51.348551,96.00201 50.921869,94.240228 l -1.943359,0.470704 c 0.55294,2.283108 1.84859,3.570994 2.890625,4.134765 2.059867,1.11445 4.924044,1.164233 6.746093,-0.658203 0.891955,-0.892077 1.481379,-2.143006 1.589844,-3.503906 0.108465,-1.3609 -0.318171,-2.862778 -1.488281,-4.003906 l -6.402344,-6.375 c -0.906623,-0.909193 -0.832301,-2.708573 0.207031,-3.748047 0.521421,-0.521534 1.342899,-0.896369 2.123047,-0.976563 0.780148,-0.08019 1.45826,0.112482 1.886719,0.541016 l 0.0059,0.0078 0.0078,0.0059 c 0,0 0.517172,0.483258 1.1875,1.765625 l 1.773437,-0.927735 c -0.780542,-1.493211 -1.560872,-2.264055 -1.566406,-2.269531 -0.946754,-0.943135 -2.268056,-1.239917 -3.5,-1.113281 z"
         id="path4898"
         inkscape:connector-curvature="0" />
    </g>
    <g
       style="fill:#ff0000"
       id="g4984">
      <path
         style="color:#000000;font-style:normal;font-variant:normal;font-weight:normal;font-stretch:normal;font-size:medium;line-height:normal;font-family:sans-serif;text-indent:0;text-align:start;text-decoration:none;text-decoration-line:none;text-decoration-style:solid;text-decoration-color:#000000;letter-spacing:normal;word-spacing:normal;text-transform:none;direction:ltr;block-progression:tb;writing-mode:lr-tb;baseline-shift:baseline;text-anchor:start;white-space:normal;clip-rule:nonzero;display:inline;overflow:visible;visibility:visible;opacity:1;isolation:auto;mix-blend-mode:normal;color-interpolation:sRGB;color-interpolation-filters:linearRGB;solid-color:#000000;solid-opacity:1;fill:#ff0000;fill-opacity:1;fill-rule:nonzero;stroke:none;stroke-width:2;stroke-linecap:butt;stroke-linejoin:round;stroke-miterlimit:4;stroke-dasharray:none;stroke-dashoffset:0;stroke-opacity:1;color-rendering:auto;image-rendering:auto;shape-rendering:auto;text-rendering:auto;enable-background:accumulate"
         d="m 157.51172,31.8125 c -5.97058,-1.21e-4 -10.83215,4.86145 -10.83203,10.832031 -1.2e-4,5.970581 4.86145,10.832152 10.83203,10.832031 a 1.0001,1.0001 0 0 0 0.002,0 c 3.6808,-0.0045 7.11009,-1.881736 9.09961,-4.978515 l -1.68164,-1.080078 c -1.62342,2.526922 -4.41646,4.054909 -7.41992,4.058593 -4.88967,10e-5 -8.83213,-3.94236 -8.83203,-8.832031 -1e-4,-4.889671 3.94236,-8.83213 8.83203,-8.832031 2.93102,0.0037 5.6659,1.457958 7.30664,3.886719 l 1.6582,-1.119141 c -2.01088,-2.976687 -5.37063,-4.763094 -8.96289,-4.767578 a 1.0001,1.0001 0 0 0 -0.002,0 z"
         id="path4896-6"
         inkscape:connector-curvature="0" />
      <path
         style="color:#000000;font-style:normal;font-variant:normal;font-weight:normal;font-stretch:normal;font-size:medium;line-height:normal;font-family:sans-serif;text-indent:0;text-align:start;text-decoration:none;text-decoration-line:none;text-decoration-style:solid;text-decoration-color:#000000;letter-spacing:normal;word-spacing:normal;text-transform:none;direction:ltr;block-progression:tb;writing-mode:lr-tb;baseline-shift:baseline;text-anchor:start;white-space:normal;clip-rule:nonzero;display:inline;overflow:visible;visibility:visible;opacity:1;isolation:auto;mix-blend-mode:normal;color-interpolation:sRGB;color-interpolation-filters:linearRGB;solid-color:#000000;solid-opacity:1;fill:#ff0000;fill-opacity:1;fill-rule:nonzero;stroke:none;stroke-width:2;stroke-linecap:butt;stroke-linejoin:miter;stroke-miterlimit:4;stroke-dasharray:none;stroke-dashoffset:0;stroke-opacity:1;color-rendering:auto;image-rendering:auto;shape-rendering:auto;text-rendering:auto;enable-background:accumulate"
         d="m 137.37891,31.150391 c -1.23423,0.12687 -2.43783,0.65834 -3.33203,1.552734 -1.79136,1.791604 -1.99879,4.784108 -0.20508,6.578125 l 6.41406,6.388672 0.004,0.002 c 0.73398,0.715807 0.96133,1.549375 0.89257,2.412109 -0.0688,0.862735 -0.48799,1.726204 -1.01172,2.25 -1.00919,1.009414 -3.01845,1.051556 -4.38085,0.314454 -0.54061,-0.292486 -1.47176,-1.085876 -1.89844,-2.847657 l -1.94336,0.470703 c 0.55294,2.28311 1.84859,3.570995 2.89062,4.134766 2.05987,1.114449 4.92405,1.164243 6.7461,-0.658203 0.89195,-0.892077 1.48138,-2.143006 1.58984,-3.503906 0.10847,-1.360901 -0.31817,-2.862779 -1.48828,-4.003907 l -6.40234,-6.375 c -0.90663,-0.909193 -0.8323,-2.708573 0.20703,-3.748046 0.52142,-0.521536 1.3429,-0.896369 2.12304,-0.976563 0.78015,-0.08019 1.45826,0.114434 1.88672,0.542969 l 0.006,0.0059 0.006,0.0059 c 0,0 0.51913,0.483261 1.18946,1.765626 l 1.77343,-0.927735 c -0.77931,-1.490872 -1.55648,-2.257735 -1.56445,-2.265625 -0.94689,-0.944709 -2.26914,-1.243912 -3.50195,-1.117187 z"
         id="path4898-7"
         inkscape:connector-curvature="0" />
      <path
         style="color:#000000;font-style:normal;font-variant:normal;font-weight:normal;font-stretch:normal;font-size:medium;line-height:normal;font-family:sans-serif;text-indent:0;text-align:start;text-decoration:none;text-decoration-line:none;text-decoration-style:solid;text-decoration-color:#000000;letter-spacing:normal;word-spacing:normal;text-transform:none;direction:ltr;block-progression:tb;writing-mode:lr-tb;baseline-shift:baseline;text-anchor:start;white-space:normal;clip-rule:nonzero;display:inline;overflow:visible;visibility:visible;opacity:1;isolation:auto;mix-blend-mode:normal;color-interpolation:sRGB;color-interpolation-filters:linearRGB;solid-color:#000000;solid-opacity:1;fill:#ff0000;fill-opacity:1;fill-rule:evenodd;stroke:none;stroke-width:2;stroke-linecap:butt;stroke-linejoin:miter;stroke-miterlimit:4;stroke-dasharray:none;stroke-dashoffset:0;stroke-opacity:1;color-rendering:auto;image-rendering:auto;shape-rendering:auto;text-rendering:auto;enable-background:accumulate"
         d="m 119.46094,32.181641 0,20.404297 2,0 0,-18.404297 8.22851,0 0,-2 -10.22851,0 z"
         id="path4928"
         inkscape:connector-curvature="0" />
      <path
         style="color:#000000;font-style:normal;font-variant:normal;font-weight:normal;font-stretch:normal;font-size:medium;line-height:normal;font-family:sans-serif;text-indent:0;text-align:start;text-decoration:none;text-decoration-line:none;text-decoration-style:solid;text-decoration-color:#000000;letter-spacing:normal;word-spacing:normal;text-transform:none;direction:ltr;block-progression:tb;writing-mode:lr-tb;baseline-shift:baseline;text-anchor:start;white-space:normal;clip-rule:nonzero;display:inline;overflow:visible;visibility:visible;opacity:1;isolation:auto;mix-blend-mode:normal;color-interpolation:sRGB;color-interpolation-filters:linearRGB;solid-color:#000000;solid-opacity:1;fill:#ff0000;fill-opacity:1;fill-rule:evenodd;stroke:none;stroke-width:2;stroke-linecap:butt;stroke-linejoin:miter;stroke-miterlimit:4;stroke-dasharray:none;stroke-dashoffset:0;stroke-opacity:1;color-rendering:auto;image-rendering:auto;shape-rendering:auto;text-rendering:auto;enable-background:accumulate"
         d="m 120.58789,40.525391 0,2 9.10156,0 0,-2 -9.10156,0 z"
         id="path4930"
         inkscape:connector-curvature="0" />
      <path
         style="color:#000000;font-style:normal;font-variant:normal;font-weight:normal;font-stretch:normal;font-size:medium;line-height:normal;font-family:sans-serif;text-indent:0;text-align:start;text-decoration:none;text-decoration-line:none;text-decoration-style:solid;text-decoration-color:#000000;letter-spacing:normal;word-spacing:normal;text-transform:none;direction:ltr;block-progression:tb;writing-mode:lr-tb;baseline-shift:baseline;text-anchor:start;white-space:normal;clip-rule:nonzero;display:inline;overflow:visible;visibility:visible;opacity:1;isolation:auto;mix-blend-mode:normal;color-interpolation:sRGB;color-interpolation-filters:linearRGB;solid-color:#000000;solid-opacity:1;fill:#ff0000;fill-opacity:1;fill-rule:nonzero;stroke:none;stroke-width:2;stroke-linecap:butt;stroke-linejoin:miter;stroke-miterlimit:4;stroke-dasharray:none;stroke-dashoffset:0;stroke-opacity:1;color-rendering:auto;image-rendering:auto;shape-rendering:auto;text-rendering:auto;enable-background:accumulate"
         d="m 101.13281,32.423828 0,13.652344 c 0,3.751715 3.06274,6.814453 6.81446,6.814453 3.75172,0 6.81445,-3.062738 6.81445,-6.814453 l 0,-13.652344 -2,0 0,13.652344 c 0,2.670836 -2.14361,4.814453 -4.81445,4.814453 -2.67084,0 -4.81446,-2.143617 -4.81446,-4.814453 l 0,-13.652344 -2,0 z"
         id="path4936"
         inkscape:connector-curvature="0" />
    </g>
  </g>
</svg>
