<?xml version="1.0" encoding="UTF-8" standalone="no"?>
<!-- Created with Inkscape (http://www.inkscape.org/) -->

<svg
   xmlns:dc="http://purl.org/dc/elements/1.1/"
   xmlns:cc="http://creativecommons.org/ns#"
   xmlns:rdf="http://www.w3.org/1999/02/22-rdf-syntax-ns#"
   xmlns:svg="http://www.w3.org/2000/svg"
   xmlns="http://www.w3.org/2000/svg"
   xmlns:xlink="http://www.w3.org/1999/xlink"
   xmlns:sodipodi="http://sodipodi.sourceforge.net/DTD/sodipodi-0.dtd"
   xmlns:inkscape="http://www.inkscape.org/namespaces/inkscape"
   id="svg4807"
   version="1.1"
   inkscape:version="0.91 r13725"
   width="162.78716"
   height="99.232346"
   viewBox="0 0 162.78716 99.232346"
   sodipodi:docname="ccs_logo.svg">
  <metadata
     id="metadata4813">
    <rdf:RDF>
      <cc:Work
         rdf:about="">
        <dc:format>image/svg+xml</dc:format>
        <dc:type
           rdf:resource="http://purl.org/dc/dcmitype/StillImage" />
        <dc:title />
      </cc:Work>
    </rdf:RDF>
  </metadata>
  <defs
     id="defs4811" />
  <sodipodi:namedview
     pagecolor="#ffffff"
     bordercolor="#666666"
     borderopacity="1"
     objecttolerance="10"
     gridtolerance="10"
     guidetolerance="10"
     inkscape:pageopacity="0"
     inkscape:pageshadow="2"
     inkscape:window-width="1920"
     inkscape:window-height="1080"
     id="namedview4809"
     showgrid="false"
     inkscape:zoom="2.7970371"
     inkscape:cx="-58.157946"
     inkscape:cy="132.76665"
     inkscape:window-x="-1"
     inkscape:window-y="-1"
     inkscape:window-maximized="0"
     inkscape:current-layer="svg4807"
     fit-margin-top="0"
     fit-margin-left="0"
     fit-margin-right="0"
     fit-margin-bottom="0" />
  <image
     width="168.75"
     height="118.125"
     preserveAspectRatio="none"
     xlink:href="file:///home/eupiteco/tmp/qwe_download.jpg"
     id="image4815"
     x="-12.927176"
     y="-124.76211"
     sodipodi:absref="/home/eupiteco/tmp/qwe_download.jpg" />
  <g
     id="g4240"
     transform="translate(-3.8261719,-0.397511)"
     style="fill:#ff0000">
    <g
       style="fill:#ffffff;fill-opacity:1;stroke:none"
       id="g4855">
      <path
         style="color:#000000;clip-rule:nonzero;display:inline;overflow:visible;visibility:visible;opacity:1;isolation:auto;mix-blend-mode:normal;color-interpolation:sRGB;color-interpolation-filters:linearRGB;solid-color:#000000;solid-opacity:1;fill:#ffffff;fill-opacity:1;fill-rule:evenodd;stroke:none;stroke-width:1;stroke-linecap:butt;stroke-linejoin:miter;stroke-miterlimit:4;stroke-dasharray:none;stroke-dashoffset:0;stroke-opacity:1;color-rendering:auto;image-rendering:auto;shape-rendering:auto;text-rendering:auto;enable-background:accumulate"
         d="m 78.29714,87.735699 c 0,0 16.982251,4.111493 33.96451,4.111493 25.38401,0 52.55562,-10.189353 52.55562,-16.267213 l 0,9.11679 c 0,6.07786 -27.17161,14.122086 -52.55562,14.122086 -16.982259,0 -33.96451,-4.111493 -33.96451,-4.111493 z"
         id="path4819"
         inkscape:connector-curvature="0"
         sodipodi:nodetypes="csccscc" />
      <path
         style="color:#000000;clip-rule:nonzero;display:inline;overflow:visible;visibility:visible;opacity:1;isolation:auto;mix-blend-mode:normal;color-interpolation:sRGB;color-interpolation-filters:linearRGB;solid-color:#000000;solid-opacity:1;fill:#ffffff;fill-opacity:1;fill-rule:evenodd;stroke:none;stroke-width:1;stroke-linecap:butt;stroke-linejoin:miter;stroke-miterlimit:4;stroke-dasharray:none;stroke-dashoffset:0;stroke-opacity:1;color-rendering:auto;image-rendering:auto;shape-rendering:auto;text-rendering:auto;enable-background:accumulate"
         d="M 31.740234 31.369141 C 28.702064 31.756516 25.795019 32.20349 23.0625 32.714844 C 25.782501 33.237959 28.700832 33.689577 31.740234 34.087891 L 31.740234 31.369141 z M 20.539062 33.216797 C 17.202047 33.923104 14.180015 34.739029 11.585938 35.683594 C 11.881241 35.797994 12.154889 35.918467 12.462891 36.029297 C 17.026918 37.671592 22.961564 38.927482 29.615234 39.880859 C 30.319854 39.782646 31.021073 39.683492 31.740234 39.591797 L 31.740234 35.097656 C 27.747704 34.578194 23.975888 33.958685 20.539062 33.216797 z M 10.193359 36.212891 C 7.8059851 37.186969 5.848435 38.286345 4.4394531 39.53125 C 4.7279529 39.865523 5.0524999 40.192501 5.4238281 40.513672 C 6.8824928 41.775309 9.001138 42.904905 11.585938 43.90625 C 15.596676 42.445846 20.624587 41.290762 26.277344 40.380859 C 20.876962 39.493396 16.035602 38.378576 12.123047 36.970703 C 11.448191 36.727867 10.811887 36.473607 10.193359 36.212891 z M 3.7226562 40.222656 C 2.5354474 41.497393 1.8867187 42.912657 1.8867188 44.486328 L 1.8867188 52.708984 C 1.8867188 49.242845 5.0275835 46.543248 10.193359 44.435547 C 7.9945371 43.508719 6.1518308 42.467071 4.7695312 41.271484 C 4.3818135 40.936137 4.0368696 40.585305 3.7226562 40.222656 z "
         transform="translate(3.8261719,0.397511)"
         id="path4831-3" />
      <path
         sodipodi:nodetypes="csccscc"
         inkscape:connector-curvature="0"
         id="path4825"
         d="m 5.7131596,51.666893 c 0,12.259165 45.1079614,16.287177 71.8908154,16.287177 26.782855,0 87.756755,0.146094 87.220475,14.418811 l 0,-9.515145 c 0.53628,-9.982463 -60.43762,-11.558642 -87.220475,-11.558642 -26.782854,0 -71.8908154,-4.028012 -71.8908154,-16.287177 z"
         style="color:#000000;clip-rule:nonzero;display:inline;overflow:visible;visibility:visible;opacity:1;isolation:auto;mix-blend-mode:normal;color-interpolation:sRGB;color-interpolation-filters:linearRGB;solid-color:#000000;solid-opacity:1;fill:#ffffff;fill-opacity:1;fill-rule:evenodd;stroke:none;stroke-width:0.99999994;stroke-linecap:butt;stroke-linejoin:miter;stroke-miterlimit:4;stroke-dasharray:none;stroke-dashoffset:0;stroke-opacity:1;color-rendering:auto;image-rendering:auto;shape-rendering:auto;text-rendering:auto;enable-background:accumulate" />
    </g>
    <g
       style="fill:#ffffff;fill-opacity:1;stroke:none"
       id="g4836">
      <path
         style="color:#000000;clip-rule:nonzero;display:inline;overflow:visible;visibility:visible;opacity:1;isolation:auto;mix-blend-mode:normal;color-interpolation:sRGB;color-interpolation-filters:linearRGB;solid-color:#000000;solid-opacity:1;fill:#ffffff;fill-opacity:1;fill-rule:evenodd;stroke:none;stroke-width:1;stroke-linecap:butt;stroke-linejoin:miter;stroke-miterlimit:4;stroke-dasharray:none;stroke-dashoffset:0;stroke-opacity:1;color-rendering:auto;image-rendering:auto;shape-rendering:auto;text-rendering:auto;enable-background:accumulate"
         d="M 32.820312 14.300781 C 22.901382 15.565472 14.323195 17.447413 8.9335938 20.224609 C 9.9962696 20.75546 11.161847 21.260355 12.462891 21.728516 C 15.212487 22.717916 18.477079 23.561915 22.078125 24.289062 C 25.40285 23.602979 28.994859 23.011193 32.820312 22.523438 L 32.820312 14.300781 z M 7.8457031 20.806641 C 6.0197098 21.880538 4.6481127 23.080411 3.8339844 24.421875 C 4.2318876 25.042436 4.7585185 25.637447 5.4238281 26.212891 C 6.3418224 27.006888 7.5337469 27.746801 8.9179688 28.439453 C 11.718304 26.996618 15.40491 25.803205 19.673828 24.806641 C 16.902529 24.181219 14.358498 23.474314 12.123047 22.669922 C 10.538092 22.0996 9.1064347 21.481115 7.8457031 20.806641 z M 3.3339844 25.435547 C 3.0941696 26.067089 2.9667969 26.727112 2.9667969 27.417969 L 2.9667969 27.726562 C 2.9920179 29.119431 3.5663329 30.374341 4.6542969 31.542969 C 5.4573398 30.636658 6.541798 29.803999 7.8515625 29.033203 C 6.6645402 28.398632 5.6289681 27.714052 4.7695312 26.970703 C 4.2114063 26.487966 3.7368911 25.974398 3.3339844 25.435547 z M 2.9667969 30.863281 L 2.9667969 35.640625 C 2.9667969 34.4468 3.3455788 33.345771 4.0429688 32.326172 C 3.6249067 31.859277 3.2719501 31.367812 2.9667969 30.863281 z "
         transform="translate(3.8261719,0.397511)"
         id="path4831" />
      <path
         style="color:#000000;clip-rule:nonzero;display:inline;overflow:visible;visibility:visible;opacity:1;isolation:auto;mix-blend-mode:normal;color-interpolation:sRGB;color-interpolation-filters:linearRGB;solid-color:#000000;solid-opacity:1;fill:#ffffff;fill-opacity:1;fill-rule:evenodd;stroke:none;stroke-width:1;stroke-linecap:butt;stroke-linejoin:miter;stroke-miterlimit:4;stroke-dasharray:none;stroke-dashoffset:0;stroke-opacity:1;color-rendering:auto;image-rendering:auto;shape-rendering:auto;text-rendering:auto;enable-background:accumulate"
         d="M 2.9609375 30.853516 L 2.9609375 35.853516 C 2.9609374 37.588141 3.7985162 39.107898 5.4238281 40.513672 C 7.04914 41.919447 9.4589516 43.171032 12.462891 44.251953 C 18.470769 46.413795 26.847666 47.905428 36.123047 48.919922 C 54.494806 50.929334 76.318072 51.077325 90.626953 51.080078 L 90.626953 43.855469 C 76.311589 43.852774 54.465508 43.709575 36.013672 41.691406 C 26.697951 40.672499 18.270889 39.182909 12.123047 36.970703 C 9.0491259 35.8646 6.5406711 34.580732 4.7695312 33.048828 C 3.995023 32.378935 3.4296677 31.630056 2.9609375 30.853516 z "
         transform="translate(3.8261719,0.397511)"
         id="path4827" />
    </g>
    <g
       style="fill:#ffffff;stroke:none"
       transform="translate(0,-14.300847)"
       id="g4860">
      <path
         style="color:#000000;clip-rule:nonzero;display:inline;overflow:visible;visibility:visible;opacity:1;isolation:auto;mix-blend-mode:normal;color-interpolation:sRGB;color-interpolation-filters:linearRGB;solid-color:#000000;solid-opacity:1;fill:#ffffff;fill-opacity:1;fill-rule:evenodd;stroke:none;stroke-width:1;stroke-linecap:butt;stroke-linejoin:miter;stroke-miterlimit:4;stroke-dasharray:none;stroke-dashoffset:0;stroke-opacity:1;color-rendering:auto;image-rendering:auto;shape-rendering:auto;text-rendering:auto;enable-background:accumulate"
         d="M 32.820312 0 C 16.00503 2.143994 2.9667968 6.0391385 2.9667969 13.117188 L 2.9667969 13.425781 C 2.9920179 14.81865 3.5663329 16.07356 4.6542969 17.242188 C 8.6919456 12.685313 19.582716 9.9104856 32.820312 8.2226562 L 32.820312 0 z M 2.9667969 16.5625 L 2.9667969 21.339844 C 2.9667969 20.146019 3.3455788 19.04499 4.0429688 18.025391 C 3.6249067 17.558496 3.2719501 17.06703 2.9667969 16.5625 z "
         transform="translate(3.8261719,14.698358)"
         id="path4864" />
      <path
         style="color:#000000;clip-rule:nonzero;display:inline;overflow:visible;visibility:visible;opacity:1;isolation:auto;mix-blend-mode:normal;color-interpolation:sRGB;color-interpolation-filters:linearRGB;solid-color:#000000;solid-opacity:1;fill:#ffffff;fill-opacity:1;fill-rule:evenodd;stroke:none;stroke-width:1;stroke-linecap:butt;stroke-linejoin:miter;stroke-miterlimit:4;stroke-dasharray:none;stroke-dashoffset:0;stroke-opacity:1;color-rendering:auto;image-rendering:auto;shape-rendering:auto;text-rendering:auto;enable-background:accumulate"
         d="M 2.9609375 16.552734 L 2.9609375 21.552734 C 2.9609374 23.287359 3.7985162 24.807117 5.4238281 26.212891 C 7.04914 27.618666 9.4589516 28.870251 12.462891 29.951172 C 18.470769 32.113014 26.847666 33.604647 36.123047 34.619141 C 54.494806 36.628553 76.318072 36.776544 90.626953 36.779297 L 90.626953 29.554688 C 76.311589 29.551992 54.465508 29.408794 36.013672 27.390625 C 26.697951 26.371718 18.270889 24.882128 12.123047 22.669922 C 9.0491259 21.563819 6.5406711 20.279951 4.7695312 18.748047 C 3.995023 18.078154 3.4296677 17.329274 2.9609375 16.552734 z "
         transform="translate(3.8261719,14.698358)"
         id="path4862" />
    </g>
    <g
       style="fill:#ffffff"
       id="g4979">
      <path
         style="color:#000000;font-style:normal;font-variant:normal;font-weight:normal;font-stretch:normal;font-size:medium;line-height:normal;font-family:sans-serif;text-indent:0;text-align:start;text-decoration:none;text-decoration-line:none;text-decoration-style:solid;text-decoration-color:#000000;letter-spacing:normal;word-spacing:normal;text-transform:none;direction:ltr;block-progression:tb;writing-mode:lr-tb;baseline-shift:baseline;text-anchor:start;white-space:normal;clip-rule:nonzero;display:inline;overflow:visible;visibility:visible;opacity:1;isolation:auto;mix-blend-mode:normal;color-interpolation:sRGB;color-interpolation-filters:linearRGB;solid-color:#000000;solid-opacity:1;fill:#ffffff;fill-opacity:1;fill-rule:nonzero;stroke:none;stroke-width:2;stroke-linecap:butt;stroke-linejoin:round;stroke-miterlimit:4;stroke-dasharray:none;stroke-dashoffset:0;stroke-opacity:1;color-rendering:auto;image-rendering:auto;shape-rendering:auto;text-rendering:auto;enable-background:accumulate"
         d="M 14.658203,77.619141 C 8.6876222,77.61902 3.8260509,82.480591 3.8261719,88.451172 c -1.21e-4,5.97058 4.8614503,10.832152 10.8320311,10.832031 a 1.0001,1.0001 0 0 0 0.002,0 c 3.680796,-0.0045 7.110088,-1.879783 9.09961,-4.976562 l -1.683594,-1.082032 c -1.623064,2.526371 -4.415257,4.054245 -7.417969,4.058594 -4.8896718,9.9e-5 -8.8321302,-3.94236 -8.8320311,-8.832031 -9.91e-5,-4.889005 3.9413309,-8.831056 8.8300781,-8.832031 2.931025,0.0037 5.667852,1.459908 7.308594,3.888671 l 1.65625,-1.121093 c -2.010889,-2.976685 -5.368682,-4.763095 -8.960938,-4.767578 a 1.0001,1.0001 0 0 0 -0.002,0 z"
         id="path4885"
         inkscape:connector-curvature="0" />
      <path
         style="color:#000000;font-style:normal;font-variant:normal;font-weight:normal;font-stretch:normal;font-size:medium;line-height:normal;font-family:sans-serif;text-indent:0;text-align:start;text-decoration:none;text-decoration-line:none;text-decoration-style:solid;text-decoration-color:#000000;letter-spacing:normal;word-spacing:normal;text-transform:none;direction:ltr;block-progression:tb;writing-mode:lr-tb;baseline-shift:baseline;text-anchor:start;white-space:normal;clip-rule:nonzero;display:inline;overflow:visible;visibility:visible;opacity:1;isolation:auto;mix-blend-mode:normal;color-interpolation:sRGB;color-interpolation-filters:linearRGB;solid-color:#000000;solid-opacity:1;fill:#ffffff;fill-opacity:1;fill-rule:nonzero;stroke:none;stroke-width:2;stroke-linecap:butt;stroke-linejoin:round;stroke-miterlimit:4;stroke-dasharray:none;stroke-dashoffset:0;stroke-opacity:1;color-rendering:auto;image-rendering:auto;shape-rendering:auto;text-rendering:auto;enable-background:accumulate"
         d="m 37.03125,77.619141 c -5.970581,-1.21e-4 -10.832152,4.86145 -10.832031,10.832031 -1.21e-4,5.97058 4.86145,10.832152 10.832031,10.832031 a 1.0001,1.0001 0 0 0 0.002,0 c 3.680796,-0.0045 7.110088,-1.879783 9.099609,-4.976562 l -1.683593,-1.082032 c -1.623418,2.526923 -4.414509,4.05491 -7.417969,4.058594 -4.889673,9.9e-5 -8.83213,-3.94236 -8.832031,-8.832031 -9.9e-5,-4.889005 3.94133,-8.831056 8.830078,-8.832031 2.931024,0.0037 5.667852,1.459908 7.308594,3.888671 l 1.65625,-1.121093 C 43.983299,79.410034 40.625506,77.623624 37.03325,77.619141 a 1.0001,1.0001 0 0 0 -0.002,0 z"
         id="path4896"
         inkscape:connector-curvature="0" />
      <path
         style="color:#000000;font-style:normal;font-variant:normal;font-weight:normal;font-stretch:normal;font-size:medium;line-height:normal;font-family:sans-serif;text-indent:0;text-align:start;text-decoration:none;text-decoration-line:none;text-decoration-style:solid;text-decoration-color:#000000;letter-spacing:normal;word-spacing:normal;text-transform:none;direction:ltr;block-progression:tb;writing-mode:lr-tb;baseline-shift:baseline;text-anchor:start;white-space:normal;clip-rule:nonzero;display:inline;overflow:visible;visibility:visible;opacity:1;isolation:auto;mix-blend-mode:normal;color-interpolation:sRGB;color-interpolation-filters:linearRGB;solid-color:#000000;solid-opacity:1;fill:#ffffff;fill-opacity:1;fill-rule:nonzero;stroke:none;stroke-width:2;stroke-linecap:butt;stroke-linejoin:miter;stroke-miterlimit:4;stroke-dasharray:none;stroke-dashoffset:0;stroke-opacity:1;color-rendering:auto;image-rendering:auto;shape-rendering:auto;text-rendering:auto;enable-background:accumulate"
         d="m 54.439453,77.589844 c -1.234222,0.12687 -2.437829,0.658338 -3.332031,1.552734 -1.791359,1.791604 -1.998777,4.784107 -0.205078,6.578125 l 6.414062,6.386719 0.0039,0.0039 c 0.733987,0.715807 0.961339,1.549375 0.892579,2.41211 -0.06876,0.862734 -0.487994,1.726203 -1.011719,2.25 -1.009197,1.009415 -3.018455,1.051554 -4.38086,0.314453 C 52.279699,96.7954 51.348551,96.00201 50.921869,94.240228 l -1.943359,0.470704 c 0.55294,2.283108 1.84859,3.570994 2.890625,4.134765 2.059867,1.11445 4.924044,1.164233 6.746093,-0.658203 0.891955,-0.892077 1.481379,-2.143006 1.589844,-3.503906 0.108465,-1.3609 -0.318171,-2.862778 -1.488281,-4.003906 l -6.402344,-6.375 c -0.906623,-0.909193 -0.832301,-2.708573 0.207031,-3.748047 0.521421,-0.521534 1.342899,-0.896369 2.123047,-0.976563 0.780148,-0.08019 1.45826,0.112482 1.886719,0.541016 l 0.0059,0.0078 0.0078,0.0059 c 0,0 0.517172,0.483258 1.1875,1.765625 l 1.773437,-0.927735 c -0.780542,-1.493211 -1.560872,-2.264055 -1.566406,-2.269531 -0.946754,-0.943135 -2.268056,-1.239917 -3.5,-1.113281 z"
         id="path4898"
         inkscape:connector-curvature="0" />
    </g>
    <g
       style="fill:#ffffff"
       id="g4984">
      <path
         style="color:#000000;font-style:normal;font-variant:normal;font-weight:normal;font-stretch:normal;font-size:medium;line-height:normal;font-family:sans-serif;text-indent:0;text-align:start;text-decoration:none;text-decoration-line:none;text-decoration-style:solid;text-decoration-color:#000000;letter-spacing:normal;word-spacing:normal;text-transform:none;direction:ltr;block-progression:tb;writing-mode:lr-tb;baseline-shift:baseline;text-anchor:start;white-space:normal;clip-rule:nonzero;display:inline;overflow:visible;visibility:visible;opacity:1;isolation:auto;mix-blend-mode:normal;color-interpolation:sRGB;color-interpolation-filters:linearRGB;solid-color:#000000;solid-opacity:1;fill:#ffffff;fill-opacity:1;fill-rule:nonzero;stroke:none;stroke-width:2;stroke-linecap:butt;stroke-linejoin:round;stroke-miterlimit:4;stroke-dasharray:none;stroke-dashoffset:0;stroke-opacity:1;color-rendering:auto;image-rendering:auto;shape-rendering:auto;text-rendering:auto;enable-background:accumulate"
         d="m 157.51172,31.8125 c -5.97058,-1.21e-4 -10.83215,4.86145 -10.83203,10.832031 -1.2e-4,5.970581 4.86145,10.832152 10.83203,10.832031 a 1.0001,1.0001 0 0 0 0.002,0 c 3.6808,-0.0045 7.11009,-1.881736 9.09961,-4.978515 l -1.68164,-1.080078 c -1.62342,2.526922 -4.41646,4.054909 -7.41992,4.058593 -4.88967,10e-5 -8.83213,-3.94236 -8.83203,-8.832031 -1e-4,-4.889671 3.94236,-8.83213 8.83203,-8.832031 2.93102,0.0037 5.6659,1.457958 7.30664,3.886719 l 1.6582,-1.119141 c -2.01088,-2.976687 -5.37063,-4.763094 -8.96289,-4.767578 a 1.0001,1.0001 0 0 0 -0.002,0 z"
         id="path4896-6"
         inkscape:connector-curvature="0" />
      <path
         style="color:#000000;font-style:normal;font-variant:normal;font-weight:normal;font-stretch:normal;font-size:medium;line-height:normal;font-family:sans-serif;text-indent:0;text-align:start;text-decoration:none;text-decoration-line:none;text-decoration-style:solid;text-decoration-color:#000000;letter-spacing:normal;word-spacing:normal;text-transform:none;direction:ltr;block-progression:tb;writing-mode:lr-tb;baseline-shift:baseline;text-anchor:start;white-space:normal;clip-rule:nonzero;display:inline;overflow:visible;visibility:visible;opacity:1;isolation:auto;mix-blend-mode:normal;color-interpolation:sRGB;color-interpolation-filters:linearRGB;solid-color:#000000;solid-opacity:1;fill:#ffffff;fill-opacity:1;fill-rule:nonzero;stroke:none;stroke-width:2;stroke-linecap:butt;stroke-linejoin:miter;stroke-miterlimit:4;stroke-dasharray:none;stroke-dashoffset:0;stroke-opacity:1;color-rendering:auto;image-rendering:auto;shape-rendering:auto;text-rendering:auto;enable-background:accumulate"
         d="m 137.37891,31.150391 c -1.23423,0.12687 -2.43783,0.65834 -3.33203,1.552734 -1.79136,1.791604 -1.99879,4.784108 -0.20508,6.578125 l 6.41406,6.388672 0.004,0.002 c 0.73398,0.715807 0.96133,1.549375 0.89257,2.412109 -0.0688,0.862735 -0.48799,1.726204 -1.01172,2.25 -1.00919,1.009414 -3.01845,1.051556 -4.38085,0.314454 -0.54061,-0.292486 -1.47176,-1.085876 -1.89844,-2.847657 l -1.94336,0.470703 c 0.55294,2.28311 1.84859,3.570995 2.89062,4.134766 2.05987,1.114449 4.92405,1.164243 6.7461,-0.658203 0.89195,-0.892077 1.48138,-2.143006 1.58984,-3.503906 0.10847,-1.360901 -0.31817,-2.862779 -1.48828,-4.003907 l -6.40234,-6.375 c -0.90663,-0.909193 -0.8323,-2.708573 0.20703,-3.748046 0.52142,-0.521536 1.3429,-0.896369 2.12304,-0.976563 0.78015,-0.08019 1.45826,0.114434 1.88672,0.542969 l 0.006,0.0059 0.006,0.0059 c 0,0 0.51913,0.483261 1.18946,1.765626 l 1.77343,-0.927735 c -0.77931,-1.490872 -1.55648,-2.257735 -1.56445,-2.265625 -0.94689,-0.944709 -2.26914,-1.243912 -3.50195,-1.117187 z"
         id="path4898-7"
         inkscape:connector-curvature="0" />
      <path
         style="color:#000000;font-style:normal;font-variant:normal;font-weight:normal;font-stretch:normal;font-size:medium;line-height:normal;font-family:sans-serif;text-indent:0;text-align:start;text-decoration:none;text-decoration-line:none;text-decoration-style:solid;text-decoration-color:#000000;letter-spacing:normal;word-spacing:normal;text-transform:none;direction:ltr;block-progression:tb;writing-mode:lr-tb;baseline-shift:baseline;text-anchor:start;white-space:normal;clip-rule:nonzero;display:inline;overflow:visible;visibility:visible;opacity:1;isolation:auto;mix-blend-mode:normal;color-interpolation:sRGB;color-interpolation-filters:linearRGB;solid-color:#000000;solid-opacity:1;fill:#ffffff;fill-opacity:1;fill-rule:evenodd;stroke:none;stroke-width:2;stroke-linecap:butt;stroke-linejoin:miter;stroke-miterlimit:4;stroke-dasharray:none;stroke-dashoffset:0;stroke-opacity:1;color-rendering:auto;image-rendering:auto;shape-rendering:auto;text-rendering:auto;enable-background:accumulate"
         d="m 119.46094,32.181641 0,20.404297 2,0 0,-18.404297 8.22851,0 0,-2 -10.22851,0 z"
         id="path4928"
         inkscape:connector-curvature="0" />
      <path
         style="color:#000000;font-style:normal;font-variant:normal;font-weight:normal;font-stretch:normal;font-size:medium;line-height:normal;font-family:sans-serif;text-indent:0;text-align:start;text-decoration:none;text-decoration-line:none;text-decoration-style:solid;text-decoration-color:#000000;letter-spacing:normal;word-spacing:normal;text-transform:none;direction:ltr;block-progression:tb;writing-mode:lr-tb;baseline-shift:baseline;text-anchor:start;white-space:normal;clip-rule:nonzero;display:inline;overflow:visible;visibility:visible;opacity:1;isolation:auto;mix-blend-mode:normal;color-interpolation:sRGB;color-interpolation-filters:linearRGB;solid-color:#000000;solid-opacity:1;fill:#ffffff;fill-opacity:1;fill-rule:evenodd;stroke:none;stroke-width:2;stroke-linecap:butt;stroke-linejoin:miter;stroke-miterlimit:4;stroke-dasharray:none;stroke-dashoffset:0;stroke-opacity:1;color-rendering:auto;image-rendering:auto;shape-rendering:auto;text-rendering:auto;enable-background:accumulate"
         d="m 120.58789,40.525391 0,2 9.10156,0 0,-2 -9.10156,0 z"
         id="path4930"
         inkscape:connector-curvature="0" />
      <path
         style="color:#000000;font-style:normal;font-variant:normal;font-weight:normal;font-stretch:normal;font-size:medium;line-height:normal;font-family:sans-serif;text-indent:0;text-align:start;text-decoration:none;text-decoration-line:none;text-decoration-style:solid;text-decoration-color:#000000;letter-spacing:normal;word-spacing:normal;text-transform:none;direction:ltr;block-progression:tb;writing-mode:lr-tb;baseline-shift:baseline;text-anchor:start;white-space:normal;clip-rule:nonzero;display:inline;overflow:visible;visibility:visible;opacity:1;isolation:auto;mix-blend-mode:normal;color-interpolation:sRGB;color-interpolation-filters:linearRGB;solid-color:#000000;solid-opacity:1;fill:#ffffff;fill-opacity:1;fill-rule:nonzero;stroke:none;stroke-width:2;stroke-linecap:butt;stroke-linejoin:miter;stroke-miterlimit:4;stroke-dasharray:none;stroke-dashoffset:0;stroke-opacity:1;color-rendering:auto;image-rendering:auto;shape-rendering:auto;text-rendering:auto;enable-background:accumulate"
         d="m 101.13281,32.423828 0,13.652344 c 0,3.751715 3.06274,6.814453 6.81446,6.814453 3.75172,0 6.81445,-3.062738 6.81445,-6.814453 l 0,-13.652344 -2,0 0,13.652344 c 0,2.670836 -2.14361,4.814453 -4.81445,4.814453 -2.67084,0 -4.81446,-2.143617 -4.81446,-4.814453 l 0,-13.652344 -2,0 z"
         id="path4936"
         inkscape:connector-curvature="0" />
    </g>
  </g>
</svg>
