<?xml version="1.0" encoding="UTF-8" standalone="no"?>
<!-- Generator: Adobe Illustrator 19.0.0, SVG Export Plug-In . SVG Version: 6.00 Build 0)  -->

<svg
   xmlns:dc="http://purl.org/dc/elements/1.1/"
   xmlns:cc="http://creativecommons.org/ns#"
   xmlns:rdf="http://www.w3.org/1999/02/22-rdf-syntax-ns#"
   xmlns:svg="http://www.w3.org/2000/svg"
   xmlns="http://www.w3.org/2000/svg"
   xmlns:sodipodi="http://sodipodi.sourceforge.net/DTD/sodipodi-0.dtd"
   xmlns:inkscape="http://www.inkscape.org/namespaces/inkscape"
   version="1.1"
   id="Capa_1"
   x="0px"
   y="0px"
   viewBox="0 0 503.33331 991.17944"
   xml:space="preserve"
   inkscape:version="0.91 r13725"
   sodipodi:docname="pl-medicinais.svg"
   width="503.33331"
   height="991.17944"><metadata
     id="metadata7100"><rdf:RDF><cc:Work
         rdf:about=""><dc:format>image/svg+xml</dc:format><dc:type
           rdf:resource="http://purl.org/dc/dcmitype/StillImage" /><dc:title></dc:title></cc:Work></rdf:RDF></metadata><defs
     id="defs7098" /><sodipodi:namedview
     pagecolor="#ffffff"
     bordercolor="#666666"
     borderopacity="1"
     objecttolerance="10"
     gridtolerance="10"
     guidetolerance="10"
     inkscape:pageopacity="0"
     inkscape:pageshadow="2"
     inkscape:window-width="1920"
     inkscape:window-height="1080"
     id="namedview7096"
     showgrid="false"
     fit-margin-top="0"
     fit-margin-left="0"
     fit-margin-right="0"
     fit-margin-bottom="0"
     inkscape:zoom="0.5"
     inkscape:cx="-27.578089"
     inkscape:cy="290.36661"
     inkscape:window-x="0"
     inkscape:window-y="0"
     inkscape:window-maximized="0"
     inkscape:current-layer="Capa_1" /><path
     style="color:#000000;clip-rule:nonzero;display:inline;overflow:visible;visibility:visible;opacity:1;isolation:auto;mix-blend-mode:normal;color-interpolation:sRGB;color-interpolation-filters:linearRGB;solid-color:#000000;solid-opacity:1;fill:#999999;fill-opacity:1;fill-rule:evenodd;stroke:none;stroke-width:5;stroke-linecap:butt;stroke-linejoin:miter;stroke-miterlimit:4;stroke-dasharray:none;stroke-dashoffset:0;stroke-opacity:1;color-rendering:auto;image-rendering:auto;shape-rendering:auto;text-rendering:auto;enable-background:accumulate"
     d="m 425.97395,16.45899 c 0,0 109.45371,82.78831 -3.09375,112.94531 -7.00616,0 -14.77705,-0.0197 -22.0996,-0.0274 l -5.75,2.80526 -290.86719,-6.18945 4.12304,2.06779 c -15.675904,-0.10822 -28.878906,-0.20313 -28.878906,-0.20313 0,0 -97.40153,-52.06793 0,-108.30273 151.623036,0 346.566406,-3.0957 346.566406,-3.0957 z"
     id="path7960"
     inkscape:connector-curvature="0"
     sodipodi:nodetypes="cccccccccc" /><path
     style="color:#000000;clip-rule:nonzero;display:inline;overflow:visible;visibility:visible;opacity:1;isolation:auto;mix-blend-mode:normal;color-interpolation:sRGB;color-interpolation-filters:linearRGB;solid-color:#000000;solid-opacity:1;fill:#6a6a6a;fill-opacity:1;fill-rule:nonzero;stroke:none;stroke-width:5;stroke-linecap:butt;stroke-linejoin:miter;stroke-miterlimit:4;stroke-dasharray:none;stroke-dashoffset:0;stroke-opacity:1;color-rendering:auto;image-rendering:auto;shape-rendering:auto;text-rendering:auto;enable-background:accumulate"
     d="m 139.55285,21.10157 0,8.09961 c -21.29162,2.64464 -37.28296,20.72836 -37.30274,42.18359 0.0267,21.45002 16.01628,39.52592 37.30274,42.16992 l 0,1.15039 -92.635546,0 0,-93.60351 z"
     id="rect7972"
     inkscape:connector-curvature="0"
     sodipodi:nodetypes="cccccccc" /><path
     inkscape:connector-curvature="0"
     style="color:#000000;clip-rule:nonzero;display:inline;overflow:visible;visibility:visible;opacity:1;isolation:auto;mix-blend-mode:normal;color-interpolation:sRGB;color-interpolation-filters:linearRGB;solid-color:#000000;solid-opacity:1;fill:#519213;fill-opacity:1;fill-rule:evenodd;stroke:none;stroke-width:5;stroke-linecap:butt;stroke-linejoin:miter;stroke-miterlimit:4;stroke-dasharray:none;stroke-dashoffset:0;stroke-opacity:1;color-rendering:auto;image-rendering:auto;shape-rendering:auto;text-rendering:auto;enable-background:accumulate"
     d="m 474.29426,461.25001 0,440.24414 c 0,33.44069 -26.34483,60.6465 -58.73046,60.6465 l -327.794916,0 c -32.38565,0 -58.73048,-27.20581 -58.73048,-60.6465 l 0,-440.24414 54.28516,0 0,163.71875 c 0,13.34414 10.853122,24.19922 24.197266,24.19922 l 108.83008,0 c 13.34414,0 24.19726,-10.85508 24.19726,-24.19922 l 0,-163.71875 65.01563,0 c 5.83285,0 11.33586,2.35243 15.4961,6.62108 9.67755,9.92922 22.56751,15.39453 36.29883,15.39453 13.73326,0 26.62319,-5.46529 36.29687,-15.39257 4.16218,-4.27059 9.66325,-6.62304 15.49804,-6.62304 l 65.14062,0 z"
     id="path7102" /><g
     id="g7153"
     transform="matrix(-1,0,0,1,503.33333,0)"
     style="stroke:none"><path
       id="path7107"
       d="m 434.65624,458.23243 0,445.83593 -0.12099,0.0254 A 57.982909,57.982909 0 0 1 398.44737,957.5 l -4.13086,4.18557 c 17.48913,-0.17849 36.60997,2.30598 52.12303,-7.85549 19.62021,-11.49251 30.42525,-35.04468 28.56251,-57.66992 l -10e-5,-437.92773 -40.34571,0 z"
       style="color:#000000;clip-rule:nonzero;display:inline;overflow:visible;visibility:visible;opacity:1;isolation:auto;mix-blend-mode:normal;color-interpolation:sRGB;color-interpolation-filters:linearRGB;solid-color:#000000;solid-opacity:1;fill:#2e530b;fill-opacity:1;fill-rule:evenodd;stroke:none;stroke-width:2.58278155;stroke-linecap:butt;stroke-linejoin:miter;stroke-miterlimit:4;stroke-dasharray:none;stroke-dashoffset:0;stroke-opacity:1;color-rendering:auto;image-rendering:auto;shape-rendering:auto;text-rendering:auto;enable-background:accumulate"
       inkscape:connector-curvature="0" /></g><rect
     style="color:#000000;clip-rule:nonzero;display:inline;overflow:visible;visibility:visible;opacity:1;isolation:auto;mix-blend-mode:normal;color-interpolation:sRGB;color-interpolation-filters:linearRGB;solid-color:#000000;solid-opacity:1;fill:#ffffff;fill-opacity:1;fill-rule:nonzero;stroke:none;stroke-width:5;stroke-linecap:butt;stroke-linejoin:miter;stroke-miterlimit:4;stroke-dasharray:none;stroke-dashoffset:0;stroke-opacity:1;color-rendering:auto;image-rendering:auto;shape-rendering:auto;text-rendering:auto;enable-background:accumulate"
     id="rect7156"
     width="117.58521"
     height="269.98184"
     x="-221.7477"
     y="359.93253"
     transform="scale(-1,1)" /><path
     style="color:#000000;clip-rule:nonzero;display:inline;overflow:visible;visibility:visible;opacity:1;isolation:auto;mix-blend-mode:normal;color-interpolation:sRGB;color-interpolation-filters:linearRGB;solid-color:#000000;solid-opacity:1;fill:#999999;fill-opacity:1;fill-rule:nonzero;stroke:none;stroke-width:5;stroke-linecap:butt;stroke-linejoin:miter;stroke-miterlimit:4;stroke-dasharray:none;stroke-dashoffset:0;stroke-opacity:1;color-rendering:auto;image-rendering:auto;shape-rendering:auto;text-rendering:auto;enable-background:accumulate"
     d="m 163.04148,138.93945 0,55.24805 -45,0 0,-55.24805 45,0 z"
     id="rect7975"
     inkscape:connector-curvature="0" /><g
     id="g7044"
     transform="matrix(-1.9358974,0,0,1.9358974,747.2564,0)"
     style="stroke:none"><g
       id="g7980"
       transform="matrix(1,0,0,0.99513662,-396.40403,-88.866394)"
       style="stroke:none"><g
         id="g7982"
         style="stroke:none"><path
           style="fill:#999999;fill-opacity:1;stroke:none"
           d="m 769.71745,318.4776 0,-97.14651 c 0,-11.039 -25.38258,-15.29803 -41.05232,-19.42403 l -28.53128,-1.48353 c 2.57439,0.67808 0.70602,12.2463 0.70602,12.2463 0,0 12.92523,4.97777 24.87275,9.61374 9.94986,3.86082 21.61693,7.38399 21.61693,17.57393 0,22.27816 0,79.69788 0,79.69788 z"
           id="path8008"
           inkscape:connector-curvature="0"
           sodipodi:nodetypes="cscccsscc" /></g></g><g
       id="g7046"
       style="stroke:none"><g
         id="g7048"
         style="stroke:none"><path
           d="m 297.622,247.969 9.459,0 c 4.143,0 7.5,-3.357 7.5,-7.5 0,-4.143 -3.357,-7.5 -7.5,-7.5 l -9.459,0 c -4.143,0 -7.5,3.357 -7.5,7.5 0,4.142 3.357,7.5 7.5,7.5 z"
           id="path7050"
           inkscape:connector-curvature="0"
           style="fill:#1a1a1a;stroke:none" /><path
           d="m 297.622,218.848 9.459,0 c 4.143,0 7.5,-3.357 7.5,-7.5 0,-4.143 -3.357,-7.5 -7.5,-7.5 l -9.459,0 c -4.143,0 -7.5,3.357 -7.5,7.5 0,4.142 3.357,7.5 7.5,7.5 z"
           id="path7052"
           inkscape:connector-curvature="0"
           style="fill:#1a1a1a;stroke:none" /><path
           d="m 297.622,277.09 9.459,0 c 4.143,0 7.5,-3.357 7.5,-7.5 0,-4.143 -3.357,-7.5 -7.5,-7.5 l -9.459,0 c -4.143,0 -7.5,3.357 -7.5,7.5 0,4.142 3.357,7.5 7.5,7.5 z"
           id="path7054"
           inkscape:connector-curvature="0"
           style="fill:#1a1a1a;stroke:none" /><path
           d="m 369.455,112.164 -30.752,-12.622 0,-26.335 C 357.861,72.478 373.229,56.352 373.229,36.621 373.229,16.428 357.135,0 337.352,0 L 174.648,0 c -19.783,0 -35.878,16.428 -35.878,36.621 0,19.731 15.368,35.857 34.527,36.586 l 0,26.335 -30.753,12.622 C 132.494,116.29 126,126.089 126,137.128 l 0,328.544 C 126,491.218 146.338,512 171.338,512 l 169.324,0 C 365.661,512 386,491.218 386,465.672 l 0,-328.544 c 0,-11.039 -6.494,-20.838 -16.545,-24.964 z M 153.771,36.621 C 153.771,24.699 163.137,15 174.649,15 l 162.703,0 c 11.512,0 20.878,9.699 20.878,21.621 0,11.922 -9.366,21.621 -20.878,21.621 l -105.631,0 c -4.142,0 -7.5,3.357 -7.5,7.5 0,4.143 3.358,7.5 7.5,7.5 l 91.982,0 0,23.828 -135.406,0 0,-23.828 15.676,0 c 4.142,0 7.5,-3.357 7.5,-7.5 0,-4.143 -3.358,-7.5 -7.5,-7.5 l -29.325,0 c -11.512,0 -20.877,-9.699 -20.877,-21.621 z M 141,137.127 c 0,-4.929 2.842,-9.28 7.24,-11.086 l 34.037,-13.971 112.575,0 0,62.656 -20.608,0 c -6.893,0 -12.5,5.607 -12.5,12.5 l 0,36.035 -33.584,0 c -6.992,0 -13.826,2.898 -18.749,7.952 -2.149,2.205 -4.993,3.42 -8.006,3.42 -3.014,0 -5.857,-1.215 -8.006,-3.419 -4.924,-5.055 -11.758,-7.953 -18.75,-7.953 l -33.649,0 0,-86.134 z m 186.959,52.6 0,130.605 -51.216,0 0,-130.605 51.216,0 z M 371,465.672 C 371,482.946 357.391,497 340.662,497 l -169.324,0 C 154.609,497 141,482.946 141,465.672 l 0,-227.41 33.649,0 c 3.014,0 5.856,1.215 8.006,3.421 4.997,5.128 11.655,7.951 18.749,7.951 7.093,0 13.751,-2.823 18.75,-7.952 2.149,-2.205 4.992,-3.42 8.005,-3.42 l 33.584,0 0,84.57 c 0,6.893 5.607,12.5 12.5,12.5 l 56.216,0 c 6.893,0 12.5,-5.607 12.5,-12.5 l 0,-84.57 28.041,0 0,227.41 z m 0,-242.41 -28.041,0 0,-36.035 c 0,-6.893 -5.607,-12.5 -12.5,-12.5 l -20.607,0 0,-62.657 19.872,0 34.036,13.971 c 4.398,1.806 7.24,6.157 7.24,11.087 l 0,86.134 z"
           id="path7056"
           inkscape:connector-curvature="0"
           style="fill:#1a1a1a;stroke:none" /><path
           d="m 339.743,367.3 c -3.401,-2.368 -8.074,-1.53 -10.439,1.871 l -8.909,12.8 -8.584,0 c -4.143,0 -7.5,3.357 -7.5,7.5 0,4.143 3.357,7.5 7.5,7.5 l 8.584,0 8.909,12.8 c 1.457,2.095 3.79,3.217 6.162,3.217 1.478,0 2.971,-0.437 4.277,-1.346 3.4,-2.366 4.238,-7.04 1.871,-10.439 l -8.165,-11.731 8.165,-11.731 c 2.367,-3.399 1.53,-8.073 -1.871,-10.441 z"
           id="path7058"
           inkscape:connector-curvature="0"
           style="fill:#1a1a1a;stroke:none" /><path
           d="m 241.008,415.719 -15.033,2.572 -6.089,-6.249 c -2.892,-2.968 -7.641,-3.028 -10.606,-0.137 -2.966,2.89 -3.028,7.638 -0.137,10.605 l 6.202,6.365 -2.547,15.684 c -0.664,4.088 2.112,7.941 6.201,8.605 0.407,0.066 0.811,0.098 1.211,0.098 3.613,0 6.796,-2.617 7.394,-6.299 l 2.294,-14.127 13.639,-2.333 c 4.083,-0.698 6.826,-4.574 6.128,-8.657 -0.699,-4.084 -4.579,-6.826 -8.657,-6.127 z"
           id="path7060"
           inkscape:connector-curvature="0"
           style="fill:#1a1a1a;stroke:none" /><path
           d="m 213.244,335.652 c 3.587,0 6.759,-2.582 7.384,-6.236 0.699,-4.083 -2.045,-7.959 -6.128,-8.657 l -13.639,-2.332 -2.295,-14.127 c -0.664,-4.089 -4.516,-6.864 -8.605,-6.201 -4.088,0.664 -6.864,4.517 -6.2,8.605 l 2.547,15.683 -6.202,6.365 c -2.891,2.966 -2.829,7.714 0.137,10.605 1.459,1.422 3.347,2.129 5.234,2.129 1.952,0 3.902,-0.758 5.372,-2.266 l 6.088,-6.248 15.034,2.572 c 0.428,0.073 0.853,0.108 1.273,0.108 z"
           id="path7062"
           inkscape:connector-curvature="0"
           style="fill:#1a1a1a;stroke:none" /><path
           d="m 297.622,306.211 9.459,0 c 4.143,0 7.5,-3.357 7.5,-7.5 0,-4.143 -3.357,-7.5 -7.5,-7.5 l -9.459,0 c -4.143,0 -7.5,3.357 -7.5,7.5 0,4.143 3.357,7.5 7.5,7.5 z"
           id="path7064"
           inkscape:connector-curvature="0"
           style="fill:#1a1a1a;stroke:none" /></g></g></g><g
     id="g7066"
     transform="matrix(1.9358974,0,0,1.9358974,-255.79862,-1.0273437e-4)"
     style="fill:#1a1a1a" /><g
     id="g7068"
     transform="matrix(1.9358974,0,0,1.9358974,-255.79862,-1.0273437e-4)"
     style="fill:#1a1a1a" /><g
     id="g7070"
     transform="matrix(1.9358974,0,0,1.9358974,-255.79862,-1.0273437e-4)"
     style="fill:#1a1a1a" /><g
     id="g7072"
     transform="matrix(1.9358974,0,0,1.9358974,-255.79862,-1.0273437e-4)"
     style="fill:#1a1a1a" /><g
     id="g7074"
     transform="matrix(1.9358974,0,0,1.9358974,-255.79862,-1.0273437e-4)"
     style="fill:#1a1a1a" /><g
     id="g7076"
     transform="matrix(1.9358974,0,0,1.9358974,-255.79862,-1.0273437e-4)"
     style="fill:#1a1a1a" /><g
     id="g7078"
     transform="matrix(1.9358974,0,0,1.9358974,-255.79862,-1.0273437e-4)"
     style="fill:#1a1a1a" /><g
     id="g7080"
     transform="matrix(1.9358974,0,0,1.9358974,-255.79862,-1.0273437e-4)"
     style="fill:#1a1a1a" /><g
     id="g7082"
     transform="matrix(1.9358974,0,0,1.9358974,-255.79862,-1.0273437e-4)"
     style="fill:#1a1a1a" /><g
     id="g7084"
     transform="matrix(1.9358974,0,0,1.9358974,-255.79862,-1.0273437e-4)"
     style="fill:#1a1a1a" /><g
     id="g7086"
     transform="matrix(1.9358974,0,0,1.9358974,-255.79862,-1.0273437e-4)"
     style="fill:#1a1a1a" /><g
     id="g7088"
     transform="matrix(1.9358974,0,0,1.9358974,-255.79862,-1.0273437e-4)"
     style="fill:#1a1a1a" /><g
     id="g7090"
     transform="matrix(1.9358974,0,0,1.9358974,-255.79862,-1.0273437e-4)"
     style="fill:#1a1a1a" /><g
     id="g7092"
     transform="matrix(1.9358974,0,0,1.9358974,-255.79862,-1.0273437e-4)"
     style="fill:#1a1a1a" /><g
     id="g7094"
     transform="matrix(1.9358974,0,0,1.9358974,-255.79862,-1.0273437e-4)"
     style="fill:#1a1a1a" /></svg>