<?xml version="1.0" encoding="UTF-8" standalone="no"?>
<svg
   xmlns:dc="http://purl.org/dc/elements/1.1/"
   xmlns:cc="http://creativecommons.org/ns#"
   xmlns:rdf="http://www.w3.org/1999/02/22-rdf-syntax-ns#"
   xmlns:svg="http://www.w3.org/2000/svg"
   xmlns="http://www.w3.org/2000/svg"
   xmlns:sodipodi="http://sodipodi.sourceforge.net/DTD/sodipodi-0.dtd"
   xmlns:inkscape="http://www.inkscape.org/namespaces/inkscape"
   version="1.1"
   id="svg5381"
   viewBox="0 0 1277.9999 719.99999"
   height="203.2mm"
   width="360.67996mm"
   inkscape:version="0.91 r13725"
   sodipodi:docname="login-planta.svg">
  <sodipodi:namedview
     pagecolor="#ffffff"
     bordercolor="#666666"
     borderopacity="1"
     objecttolerance="10"
     gridtolerance="10"
     guidetolerance="10"
     inkscape:pageopacity="0"
     inkscape:pageshadow="2"
     inkscape:window-width="1920"
     inkscape:window-height="1080"
     id="namedview25975"
     showgrid="false"
     inkscape:zoom="1.19119"
     inkscape:cx="401.80656"
     inkscape:cy="282.33755"
     inkscape:window-x="0"
     inkscape:window-y="0"
     inkscape:window-maximized="0"
     inkscape:current-layer="g11158"
     fit-margin-top="0"
     fit-margin-left="0"
     fit-margin-right="0"
     fit-margin-bottom="0" />
  <defs
     id="defs5383">
    <clipPath
       clipPathUnits="userSpaceOnUse"
       id="clipPath4559">
      <rect
         style="color:#000000;clip-rule:nonzero;display:inline;overflow:visible;visibility:visible;opacity:1;isolation:auto;mix-blend-mode:normal;color-interpolation:sRGB;color-interpolation-filters:linearRGB;solid-color:#000000;solid-opacity:1;fill:#00aa00;fill-opacity:1;fill-rule:nonzero;stroke:none;stroke-width:2;stroke-linecap:round;stroke-linejoin:round;stroke-miterlimit:4;stroke-dasharray:none;stroke-dashoffset:0;stroke-opacity:1;color-rendering:auto;image-rendering:auto;shape-rendering:auto;text-rendering:auto;enable-background:accumulate"
         id="rect4562"
         width="1285.5201"
         height="207.88939"
         x="-189.50461"
         y="-458.01788" />
    </clipPath>
    <clipPath
       clipPathUnits="userSpaceOnUse"
       id="clipPath4696">
      <rect
         style="color:#000000;clip-rule:nonzero;display:inline;overflow:visible;visibility:visible;opacity:1;isolation:auto;mix-blend-mode:normal;color-interpolation:sRGB;color-interpolation-filters:linearRGB;solid-color:#000000;solid-opacity:1;fill:#ff0000;fill-opacity:1;fill-rule:nonzero;stroke:none;stroke-width:2;stroke-linecap:round;stroke-linejoin:round;stroke-miterlimit:4;stroke-dasharray:none;stroke-dashoffset:0;stroke-opacity:1;color-rendering:auto;image-rendering:auto;shape-rendering:auto;text-rendering:auto;enable-background:accumulate"
         id="rect4698"
         width="1279.8633"
         height="555.78595"
         x="-192.33304"
         y="394.7529" />
    </clipPath>
    <clipPath
       id="clipPath4696-58-5"
       clipPathUnits="userSpaceOnUse">
      <rect
         y="394.7529"
         x="-192.33304"
         height="555.78595"
         width="1279.8633"
         id="rect4698-0-3"
         style="color:#000000;clip-rule:nonzero;display:inline;overflow:visible;visibility:visible;opacity:1;isolation:auto;mix-blend-mode:normal;color-interpolation:sRGB;color-interpolation-filters:linearRGB;solid-color:#000000;solid-opacity:1;fill:#ff0000;fill-opacity:1;fill-rule:nonzero;stroke:none;stroke-width:2;stroke-linecap:round;stroke-linejoin:round;stroke-miterlimit:4;stroke-dasharray:none;stroke-dashoffset:0;stroke-opacity:1;color-rendering:auto;image-rendering:auto;shape-rendering:auto;text-rendering:auto;enable-background:accumulate" />
    </clipPath>
    <clipPath
       id="clipPath4559-14"
       clipPathUnits="userSpaceOnUse">
      <rect
         y="-458.01788"
         x="-189.50461"
         height="207.88939"
         width="1285.5201"
         id="rect4562-20"
         style="color:#000000;clip-rule:nonzero;display:inline;overflow:visible;visibility:visible;opacity:1;isolation:auto;mix-blend-mode:normal;color-interpolation:sRGB;color-interpolation-filters:linearRGB;solid-color:#000000;solid-opacity:1;fill:#00aa00;fill-opacity:1;fill-rule:nonzero;stroke:none;stroke-width:2;stroke-linecap:round;stroke-linejoin:round;stroke-miterlimit:4;stroke-dasharray:none;stroke-dashoffset:0;stroke-opacity:1;color-rendering:auto;image-rendering:auto;shape-rendering:auto;text-rendering:auto;enable-background:accumulate" />
    </clipPath>
    <clipPath
       id="clipPath4696-58-5-9"
       clipPathUnits="userSpaceOnUse">
      <rect
         y="394.7529"
         x="-192.33304"
         height="555.78595"
         width="1279.8633"
         id="rect4698-0-3-3"
         style="color:#000000;clip-rule:nonzero;display:inline;overflow:visible;visibility:visible;opacity:1;isolation:auto;mix-blend-mode:normal;color-interpolation:sRGB;color-interpolation-filters:linearRGB;solid-color:#000000;solid-opacity:1;fill:#ff0000;fill-opacity:1;fill-rule:nonzero;stroke:none;stroke-width:2;stroke-linecap:round;stroke-linejoin:round;stroke-miterlimit:4;stroke-dasharray:none;stroke-dashoffset:0;stroke-opacity:1;color-rendering:auto;image-rendering:auto;shape-rendering:auto;text-rendering:auto;enable-background:accumulate" />
    </clipPath>
    <clipPath
       id="clipPath4559-14-7"
       clipPathUnits="userSpaceOnUse">
      <rect
         y="-458.01788"
         x="-189.50461"
         height="207.88939"
         width="1285.5201"
         id="rect4562-20-4"
         style="color:#000000;clip-rule:nonzero;display:inline;overflow:visible;visibility:visible;opacity:1;isolation:auto;mix-blend-mode:normal;color-interpolation:sRGB;color-interpolation-filters:linearRGB;solid-color:#000000;solid-opacity:1;fill:#00aa00;fill-opacity:1;fill-rule:nonzero;stroke:none;stroke-width:2;stroke-linecap:round;stroke-linejoin:round;stroke-miterlimit:4;stroke-dasharray:none;stroke-dashoffset:0;stroke-opacity:1;color-rendering:auto;image-rendering:auto;shape-rendering:auto;text-rendering:auto;enable-background:accumulate" />
    </clipPath>
  </defs>
  <metadata
     id="metadata5386">
    <rdf:RDF>
      <cc:Work
         rdf:about="">
        <dc:format>image/svg+xml</dc:format>
        <dc:type
           rdf:resource="http://purl.org/dc/dcmitype/StillImage" />
        <dc:title />
      </cc:Work>
    </rdf:RDF>
  </metadata>
  <g
     style="display:inline"
     transform="translate(350.91895,314.86972)"
     id="layer1-9">
    <g
       style="display:inline"
       id="g11010"
       transform="translate(-152.91907,152.7681)">
      <rect
         y="-467.63782"
         x="-197.99988"
         height="720"
         width="1277.9999"
         id="rect37419-3"
         style="color:#000000;clip-rule:nonzero;display:inline;overflow:visible;visibility:visible;opacity:1;isolation:auto;mix-blend-mode:normal;color-interpolation:sRGB;color-interpolation-filters:linearRGB;solid-color:#000000;solid-opacity:1;fill:#fafafa;fill-opacity:1;fill-rule:nonzero;stroke:none;stroke-width:2;stroke-linecap:round;stroke-linejoin:round;stroke-miterlimit:4;stroke-dasharray:none;stroke-dashoffset:0;stroke-opacity:1;color-rendering:auto;image-rendering:auto;shape-rendering:auto;text-rendering:auto;enable-background:accumulate" />
      <g
         id="g11158">
        <rect
           y="-303.57532"
           x="108"
           height="391.875"
           width="666.00012"
           id="rect11008"
           style="color:#000000;clip-rule:nonzero;display:inline;overflow:visible;visibility:visible;opacity:1;isolation:auto;mix-blend-mode:normal;color-interpolation:sRGB;color-interpolation-filters:linearRGB;solid-color:#000000;solid-opacity:1;fill:#ffffff;fill-opacity:1;fill-rule:nonzero;stroke:none;stroke-width:2;stroke-linecap:round;stroke-linejoin:round;stroke-miterlimit:4;stroke-dasharray:none;stroke-dashoffset:0;stroke-opacity:1;color-rendering:auto;image-rendering:auto;shape-rendering:auto;text-rendering:auto;enable-background:accumulate" />
        <g
           transform="translate(124,-380.88509)"
           style="font-style:normal;font-weight:normal;font-size:40px;line-height:125%;font-family:sans-serif;letter-spacing:0px;word-spacing:0px;display:inline;fill:#3f9156;fill-opacity:1;stroke:none;stroke-width:1px;stroke-linecap:butt;stroke-linejoin:miter;stroke-opacity:1"
           id="flowRoot38183-6">
          <path
             d="m 6.2988281,118.51855 9.3310549,0 0,3.53028 -13.7255861,0 0,-21.32813 4.3945312,0 0,17.79785 z"
             style="font-style:normal;font-variant:normal;font-weight:bold;font-stretch:normal;font-size:30px;font-family:Roboto;-inkscape-font-specification:'Roboto Bold';fill:#3f9156;fill-opacity:1"
             id="path12306" />
          <path
             d="m 17.197266,113.97754 q 0,-2.3584 0.908203,-4.2041 0.908203,-1.84571 2.607422,-2.85645 1.713867,-1.01074 3.969726,-1.01074 3.208008,0 5.229492,1.96289 2.036133,1.96289 2.270508,5.33203 l 0.0293,1.08399 q 0,3.64746 -2.036133,5.85937 -2.036133,2.19727 -5.463867,2.19727 -3.427734,0 -5.478516,-2.19727 -2.036132,-2.19726 -2.036132,-5.97656 l 0,-0.19043 z m 4.233398,0.30762 q 0,2.25586 0.849609,3.45703 0.84961,1.18652 2.431641,1.18652 1.538086,0 2.402344,-1.17187 0.864258,-1.18653 0.864258,-3.7793 0,-2.21191 -0.864258,-3.42774 -0.864258,-1.21582 -2.431641,-1.21582 -1.552734,0 -2.402344,1.21582 -0.849609,1.20118 -0.849609,3.73536 z"
             style="font-style:normal;font-variant:normal;font-weight:bold;font-stretch:normal;font-size:30px;font-family:Roboto;-inkscape-font-specification:'Roboto Bold';fill:#3f9156;fill-opacity:1"
             id="path12308" />
          <path
             d="m 34.233398,114.00684 q 0,-3.64746 1.728516,-5.87403 1.743164,-2.22656 4.6875,-2.22656 2.607422,0 4.057617,1.78711 l 0.175781,-1.49414 3.837891,0 0,15.32226 q 0,2.08008 -0.952148,3.61817 -0.9375,1.53808 -2.651368,2.34375 -1.713867,0.80566 -4.013671,0.80566 -1.743164,0 -3.398438,-0.70312 -1.655273,-0.68848 -2.504883,-1.78711 l 1.875,-2.57813 q 1.582032,1.77246 3.837891,1.77246 1.68457,0 2.62207,-0.9082 0.9375,-0.89355 0.9375,-2.54883 l 0,-0.84961 q -1.464844,1.65528 -3.852539,1.65528 -2.856445,0 -4.628906,-2.22657 -1.757813,-2.24121 -1.757813,-5.93261 l 0,-0.17578 z m 4.233399,0.30761 q 0,2.15332 0.864258,3.38379 0.864257,1.21582 2.373047,1.21582 1.933593,0 2.768554,-1.45019 l 0,-6.66504 q -0.849609,-1.4502 -2.739258,-1.4502 -1.523437,0 -2.402343,1.24512 -0.864258,1.24512 -0.864258,3.7207 z"
             style="font-style:normal;font-variant:normal;font-weight:bold;font-stretch:normal;font-size:30px;font-family:Roboto;-inkscape-font-specification:'Roboto Bold';fill:#3f9156;fill-opacity:1"
             id="path12310" />
          <path
             d="m 56.425781,122.04883 -4.248047,0 0,-15.84961 4.248047,0 0,15.84961 z m -4.49707,-19.95117 q 0,-0.95215 0.629883,-1.56739 0.644531,-0.615231 1.743164,-0.615231 1.083984,0 1.728515,0.615231 0.644532,0.61524 0.644532,1.56739 0,0.96679 -0.65918,1.58203 -0.644531,0.61523 -1.713867,0.61523 -1.069336,0 -1.728516,-0.61523 -0.644531,-0.61524 -0.644531,-1.58203 z"
             style="font-style:normal;font-variant:normal;font-weight:bold;font-stretch:normal;font-size:30px;font-family:Roboto;-inkscape-font-specification:'Roboto Bold';fill:#3f9156;fill-opacity:1"
             id="path12312" />
          <path
             d="m 63.823242,106.19922 0.131836,1.83105 q 1.699219,-2.12402 4.555664,-2.12402 2.519531,0 3.75,1.47949 1.230469,1.47949 1.259766,4.42383 l 0,10.23926 -4.233399,0 0,-10.13672 q 0,-1.34766 -0.585937,-1.94824 -0.585938,-0.61524 -1.948242,-0.61524 -1.78711,0 -2.680664,1.52344 l 0,11.17676 -4.233399,0 0,-15.84961 3.984375,0 z"
             style="font-style:normal;font-variant:normal;font-weight:bold;font-stretch:normal;font-size:30px;font-family:Roboto;-inkscape-font-specification:'Roboto Bold';fill:#3f9156;fill-opacity:1"
             id="path12314" />
          <path
             d="m 93.427734,122.04883 q -0.292968,-0.57129 -0.424804,-1.4209 -1.538086,1.71387 -3.999024,1.71387 -2.329101,0 -3.867187,-1.34766 -1.523438,-1.34766 -1.523438,-3.39844 0,-2.51953 1.860352,-3.86718 1.875,-1.34766 5.405273,-1.36231 l 1.948242,0 0,-0.9082 q 0,-1.09863 -0.571289,-1.75781 -0.55664,-0.65918 -1.772461,-0.65918 -1.069336,0 -1.68457,0.51269 -0.600586,0.5127 -0.600586,1.40625 l -4.233398,0 q 0,-1.37695 0.849609,-2.54883 0.849609,-1.17187 2.402344,-1.83105 1.552734,-0.67383 3.486328,-0.67383 2.929687,0 4.643555,1.47949 1.728515,1.46485 1.728515,4.13086 l 0,6.87012 q 0.01465,2.25586 0.629883,3.41308 l 0,0.24903 -4.277344,0 z m -3.500976,-2.94434 q 0.9375,0 1.728515,-0.41015 0.791016,-0.42481 1.171875,-1.12793 l 0,-2.72461 -1.582031,0 q -3.178711,0 -3.383789,2.19726 l -0.01465,0.24903 q 0,0.79101 0.55664,1.30371 0.556641,0.51269 1.523438,0.51269 z"
             style="font-style:normal;font-variant:normal;font-weight:bold;font-stretch:normal;font-size:30px;font-family:Roboto;-inkscape-font-specification:'Roboto Bold';fill:#3f9156;fill-opacity:1"
             id="path12316" />
          <path
             d="m 99.697266,114.00684 q 0,-3.70606 1.655274,-5.90332 1.66992,-2.19727 4.55566,-2.19727 2.31446,0 3.82325,1.72852 l 0,-8.085942 4.24804,0 0,22.500002 -3.82324,0 -0.20508,-1.68457 q -1.58203,1.97754 -4.07226,1.97754 -2.79786,0 -4.49707,-2.19727 -1.684574,-2.21191 -1.684574,-6.13769 z m 4.233394,0.30761 q 0,2.22657 0.77637,3.41309 0.77637,1.18652 2.25586,1.18652 1.96289,0 2.76856,-1.65527 l 0,-6.25488 q -0.79102,-1.65528 -2.73926,-1.65528 -3.06153,0 -3.06153,4.96582 z"
             style="font-style:normal;font-variant:normal;font-weight:bold;font-stretch:normal;font-size:30px;font-family:Roboto;-inkscape-font-specification:'Roboto Bold';fill:#3f9156;fill-opacity:1"
             id="path12318" />
          <path
             d="m 121.25977,106.19922 0.13183,1.77246 q 1.68457,-2.06543 4.55567,-2.06543 3.06152,0 4.2041,2.41699 1.66992,-2.41699 4.76074,-2.41699 2.57812,0 3.83789,1.50879 1.25977,1.49414 1.25977,4.51172 l 0,10.12207 -4.24805,0 0,-10.10742 q 0,-1.34766 -0.52735,-1.96289 -0.52734,-0.62989 -1.86035,-0.62989 -1.90429,0 -2.63672,1.81641 l 0.0146,10.88379 -4.2334,0 0,-10.09278 q 0,-1.37695 -0.54199,-1.99218 -0.54199,-0.61524 -1.8457,-0.61524 -1.80176,0 -2.60742,1.49414 l 0,11.20606 -4.2334,0 0,-15.84961 3.96973,0 z"
             style="font-style:normal;font-variant:normal;font-weight:bold;font-stretch:normal;font-size:30px;font-family:Roboto;-inkscape-font-specification:'Roboto Bold';fill:#3f9156;fill-opacity:1"
             id="path12320" />
          <path
             d="m 147.71484,122.04883 -4.24804,0 0,-15.84961 4.24804,0 0,15.84961 z m -4.49707,-19.95117 q 0,-0.95215 0.62989,-1.56739 0.64453,-0.615231 1.74316,-0.615231 1.08398,0 1.72852,0.615231 0.64453,0.61524 0.64453,1.56739 0,0.96679 -0.65918,1.58203 -0.64453,0.61523 -1.71387,0.61523 -1.06934,0 -1.72852,-0.61523 -0.64453,-0.61524 -0.64453,-1.58203 z"
             style="font-style:normal;font-variant:normal;font-weight:bold;font-stretch:normal;font-size:30px;font-family:Roboto;-inkscape-font-specification:'Roboto Bold';fill:#3f9156;fill-opacity:1"
             id="path12322" />
          <path
             d="m 155.1123,106.19922 0.13184,1.83105 q 1.69922,-2.12402 4.55566,-2.12402 2.51954,0 3.75,1.47949 1.23047,1.47949 1.25977,4.42383 l 0,10.23926 -4.2334,0 0,-10.13672 q 0,-1.34766 -0.58594,-1.94824 -0.58593,-0.61524 -1.94824,-0.61524 -1.78711,0 -2.68066,1.52344 l 0,11.17676 -4.2334,0 0,-15.84961 3.98437,0 z"
             style="font-style:normal;font-variant:normal;font-weight:bold;font-stretch:normal;font-size:30px;font-family:Roboto;-inkscape-font-specification:'Roboto Bold';fill:#3f9156;fill-opacity:1"
             id="path12324" />
          <path
             d="m 172.5,122.04883 -4.24805,0 0,-15.84961 4.24805,0 0,15.84961 z m -4.49707,-19.95117 q 0,-0.95215 0.62988,-1.56739 0.64453,-0.615231 1.74317,-0.615231 1.08398,0 1.72851,0.615231 0.64453,0.61524 0.64453,1.56739 0,0.96679 -0.65918,1.58203 -0.64453,0.61523 -1.71386,0.61523 -1.06934,0 -1.72852,-0.61523 -0.64453,-0.61524 -0.64453,-1.58203 z"
             style="font-style:normal;font-variant:normal;font-weight:bold;font-stretch:normal;font-size:30px;font-family:Roboto;-inkscape-font-specification:'Roboto Bold';fill:#3f9156;fill-opacity:1"
             id="path12326" />
          <path
             d="m 184.58496,117.66895 q 0,-0.77637 -0.77637,-1.21582 -0.76172,-0.45411 -2.46093,-0.80567 -5.6543,-1.18652 -5.6543,-4.80469 0,-2.10937 1.74316,-3.51562 1.75782,-1.4209 4.58496,-1.4209 3.01758,0 4.81934,1.4209 1.81641,1.4209 1.81641,3.6914 l -4.2334,0 q 0,-0.9082 -0.58594,-1.49414 -0.58594,-0.60058 -1.83105,-0.60058 -1.06934,0 -1.65528,0.4834 -0.58594,0.4834 -0.58594,1.23047 0,0.70312 0.65918,1.14257 0.67383,0.42481 2.25586,0.74707 1.58204,0.30762 2.66602,0.70313 3.35449,1.23047 3.35449,4.26269 0,2.16797 -1.86035,3.51563 -1.86035,1.33301 -4.80469,1.33301 -1.99218,0 -3.54492,-0.70313 -1.53809,-0.71777 -2.41699,-1.94824 -0.87891,-1.24512 -0.87891,-2.68066 l 4.01367,0 q 0.0586,1.12793 0.83497,1.72851 0.77636,0.60059 2.08007,0.60059 1.21582,0 1.83106,-0.4541 0.62988,-0.46875 0.62988,-1.21582 z"
             style="font-style:normal;font-variant:normal;font-weight:bold;font-stretch:normal;font-size:30px;font-family:Roboto;-inkscape-font-specification:'Roboto Bold';fill:#3f9156;fill-opacity:1"
             id="path12328" />
          <path
             d="m 196.47949,102.30273 0,3.89649 2.70996,0 0,3.10547 -2.70996,0 0,7.91015 q 0,0.87891 0.33692,1.25977 0.33691,0.38086 1.28906,0.38086 0.70312,0 1.24512,-0.10254 l 0,3.20801 q -1.24512,0.38086 -2.56348,0.38086 -4.45313,0 -4.54102,-4.49707 l 0,-8.54004 -2.31445,0 0,-3.10547 2.31445,0 0,-3.89649 4.2334,0 z"
             style="font-style:normal;font-variant:normal;font-weight:bold;font-stretch:normal;font-size:30px;font-family:Roboto;-inkscape-font-specification:'Roboto Bold';fill:#3f9156;fill-opacity:1"
             id="path12330" />
          <path
             d="m 210.4541,110.16895 q -0.86426,-0.11719 -1.52344,-0.11719 -2.40234,0 -3.14941,1.62597 l 0,10.3711 -4.2334,0 0,-15.84961 3.99902,0 0.11719,1.88965 q 1.27442,-2.18262 3.53028,-2.18262 0.70312,0 1.31836,0.19043 l -0.0586,4.07227 z"
             style="font-style:normal;font-variant:normal;font-weight:bold;font-stretch:normal;font-size:30px;font-family:Roboto;-inkscape-font-specification:'Roboto Bold';fill:#3f9156;fill-opacity:1"
             id="path12332" />
          <path
             d="m 221.2793,122.04883 q -0.29297,-0.57129 -0.42481,-1.4209 -1.53808,1.71387 -3.99902,1.71387 -2.3291,0 -3.86719,-1.34766 -1.52344,-1.34766 -1.52344,-3.39844 0,-2.51953 1.86036,-3.86718 1.875,-1.34766 5.40527,-1.36231 l 1.94824,0 0,-0.9082 q 0,-1.09863 -0.57129,-1.75781 -0.55664,-0.65918 -1.77246,-0.65918 -1.06934,0 -1.68457,0.51269 -0.60059,0.5127 -0.60059,1.40625 l -4.23339,0 q 0,-1.37695 0.84961,-2.54883 0.8496,-1.17187 2.40234,-1.83105 1.55273,-0.67383 3.48633,-0.67383 2.92968,0 4.64355,1.47949 1.72852,1.46485 1.72852,4.13086 l 0,6.87012 q 0.0146,2.25586 0.62988,3.41308 l 0,0.24903 -4.27734,0 z m -3.50098,-2.94434 q 0.9375,0 1.72852,-0.41015 0.79101,-0.42481 1.17187,-1.12793 l 0,-2.72461 -1.58203,0 q -3.17871,0 -3.38379,2.19726 l -0.0146,0.24903 q 0,0.79101 0.55664,1.30371 0.55664,0.51269 1.52344,0.51269 z"
             style="font-style:normal;font-variant:normal;font-weight:bold;font-stretch:normal;font-size:30px;font-family:Roboto;-inkscape-font-specification:'Roboto Bold';fill:#3f9156;fill-opacity:1"
             id="path12334" />
          <path
             d="m 233.27637,102.30273 0,3.89649 2.70996,0 0,3.10547 -2.70996,0 0,7.91015 q 0,0.87891 0.33691,1.25977 0.33692,0.38086 1.28906,0.38086 0.70313,0 1.24512,-0.10254 l 0,3.20801 q -1.24512,0.38086 -2.56348,0.38086 -4.45312,0 -4.54101,-4.49707 l 0,-8.54004 -2.31445,0 0,-3.10547 2.31445,0 0,-3.89649 4.2334,0 z"
             style="font-style:normal;font-variant:normal;font-weight:bold;font-stretch:normal;font-size:30px;font-family:Roboto;-inkscape-font-specification:'Roboto Bold';fill:#3f9156;fill-opacity:1"
             id="path12336" />
          <path
             d="m 242.8125,122.04883 -4.24805,0 0,-15.84961 4.24805,0 0,15.84961 z m -4.49707,-19.95117 q 0,-0.95215 0.62988,-1.56739 0.64453,-0.615231 1.74317,-0.615231 1.08398,0 1.72851,0.615231 0.64453,0.61524 0.64453,1.56739 0,0.96679 -0.65918,1.58203 -0.64453,0.61523 -1.71386,0.61523 -1.06934,0 -1.72852,-0.61523 -0.64453,-0.61524 -0.64453,-1.58203 z"
             style="font-style:normal;font-variant:normal;font-weight:bold;font-stretch:normal;font-size:30px;font-family:Roboto;-inkscape-font-specification:'Roboto Bold';fill:#3f9156;fill-opacity:1"
             id="path12338" />
          <path
             d="m 252.24609,116.87793 2.94434,-10.67871 4.42383,0 -5.34668,15.84961 -4.04297,0 -5.34668,-15.84961 4.42383,0 2.94433,10.67871 z"
             style="font-style:normal;font-variant:normal;font-weight:bold;font-stretch:normal;font-size:30px;font-family:Roboto;-inkscape-font-specification:'Roboto Bold';fill:#3f9156;fill-opacity:1"
             id="path12340" />
          <path
             d="m 260.5957,113.97754 q 0,-2.3584 0.90821,-4.2041 0.9082,-1.84571 2.60742,-2.85645 1.71387,-1.01074 3.96972,-1.01074 3.20801,0 5.2295,1.96289 2.03613,1.96289 2.2705,5.33203 l 0.0293,1.08399 q 0,3.64746 -2.03613,5.85937 -2.03613,2.19727 -5.46387,2.19727 -3.42773,0 -5.47851,-2.19727 -2.03614,-2.19726 -2.03614,-5.97656 l 0,-0.19043 z m 4.2334,0.30762 q 0,2.25586 0.84961,3.45703 0.84961,1.18652 2.43164,1.18652 1.53809,0 2.40235,-1.17187 0.86425,-1.18653 0.86425,-3.7793 0,-2.21191 -0.86425,-3.42774 -0.86426,-1.21582 -2.43165,-1.21582 -1.55273,0 -2.40234,1.21582 -0.84961,1.20118 -0.84961,3.73536 z"
             style="font-style:normal;font-variant:normal;font-weight:bold;font-stretch:normal;font-size:30px;font-family:Roboto;-inkscape-font-specification:'Roboto Bold';fill:#3f9156;fill-opacity:1"
             id="path12342" />
        </g>
        <g
           transform="translate(0,-3.9780582e-5)"
           style="display:inline"
           id="g11111">
          <g
             transform="translate(-1060.8219,484.0863)"
             style="font-style:normal;font-weight:normal;font-size:40px;line-height:125%;font-family:sans-serif;letter-spacing:0px;word-spacing:0px;fill:#000000;fill-opacity:1;stroke:none;stroke-width:1px;stroke-linecap:butt;stroke-linejoin:miter;stroke-opacity:1"
             id="flowRoot19084-2">
            <path
               d="m 1205.1426,-662.48242 -6.1621,0 0,5.03906 7.1582,0 0,1.5332 -9.0332,0 0,-14.21875 8.9355,0 0,1.54297 -7.0605,0 0,4.57032 6.1621,0 0,1.5332 z"
               style="font-style:normal;font-variant:normal;font-weight:normal;font-stretch:normal;font-size:20px;line-height:120.00000477%;font-family:Roboto;-inkscape-font-specification:Roboto"
               id="path12295" />
            <path
               d="m 1209.8887,-666.47656 0.049,1.17187 q 1.1621,-1.36718 3.1348,-1.36718 2.2168,0 3.0175,1.69921 0.5274,-0.76171 1.3672,-1.23046 0.8496,-0.46875 2.002,-0.46875 3.4765,0 3.5351,3.68164 l 0,7.08007 -1.8066,0 0,-6.97265 q 0,-1.13281 -0.5176,-1.68945 -0.5176,-0.56641 -1.7383,-0.56641 -1.0058,0 -1.6699,0.60547 -0.664,0.5957 -0.7715,1.61133 l 0,7.01171 -1.8164,0 0,-6.92382 q 0,-2.30469 -2.2558,-2.30469 -1.7774,0 -2.4317,1.51367 l 0,7.71484 -1.8066,0 0,-10.5664 1.709,0 z"
               style="font-style:normal;font-variant:normal;font-weight:normal;font-stretch:normal;font-size:20px;line-height:120.00000477%;font-family:Roboto;-inkscape-font-specification:Roboto"
               id="path12297" />
            <path
               d="m 1232.252,-655.91016 q -0.1563,-0.3125 -0.254,-1.11328 -1.2597,1.3086 -3.0078,1.3086 -1.5625,0 -2.5683,-0.87891 -0.9961,-0.88867 -0.9961,-2.24609 0,-1.65039 1.25,-2.5586 1.2597,-0.91797 3.5351,-0.91797 l 1.7579,0 0,-0.83007 q 0,-0.94727 -0.5665,-1.50391 -0.5664,-0.56641 -1.6699,-0.56641 -0.9668,0 -1.6211,0.48829 -0.6543,0.48828 -0.6543,1.18164 l -1.8164,0 q 0,-0.79102 0.5567,-1.52344 0.5664,-0.74219 1.5234,-1.17188 0.9668,-0.42968 2.1191,-0.42968 1.8262,0 2.8614,0.91796 1.0351,0.90821 1.0742,2.50977 l 0,4.86328 q 0,1.45508 0.3711,2.31445 l 0,0.15625 -1.8945,0 z m -2.9981,-1.37695 q 0.8496,0 1.6113,-0.43945 0.7618,-0.43945 1.1036,-1.14258 l 0,-2.16797 -1.4161,0 q -3.3203,0 -3.3203,1.94336 0,0.84961 0.5664,1.32813 0.5664,0.47851 1.4551,0.47851 z"
               style="font-style:normal;font-variant:normal;font-weight:normal;font-stretch:normal;font-size:20px;line-height:120.00000477%;font-family:Roboto;-inkscape-font-specification:Roboto"
               id="path12299" />
            <path
               d="m 1238.5898,-655.91016 -1.8066,0 0,-10.5664 1.8066,0 0,10.5664 z m -1.9531,-13.36914 q 0,-0.43945 0.2637,-0.74218 0.2734,-0.30274 0.8008,-0.30274 0.5273,0 0.8008,0.30274 0.2734,0.30273 0.2734,0.74218 0,0.43946 -0.2734,0.73243 -0.2735,0.29296 -0.8008,0.29296 -0.5274,0 -0.8008,-0.29296 -0.2637,-0.29297 -0.2637,-0.73243 z"
               style="font-style:normal;font-variant:normal;font-weight:normal;font-stretch:normal;font-size:20px;line-height:120.00000477%;font-family:Roboto;-inkscape-font-specification:Roboto"
               id="path12301" />
            <path
               d="m 1243.4336,-655.91016 -1.8066,0 0,-15 1.8066,0 0,15 z"
               style="font-style:normal;font-variant:normal;font-weight:normal;font-stretch:normal;font-size:20px;line-height:120.00000477%;font-family:Roboto;-inkscape-font-specification:Roboto"
               id="path12303" />
          </g>
          <rect
             style="color:#000000;clip-rule:nonzero;display:inline;overflow:visible;visibility:visible;opacity:1;isolation:auto;mix-blend-mode:normal;color-interpolation:sRGB;color-interpolation-filters:linearRGB;solid-color:#000000;solid-opacity:1;fill:#ffffff;fill-opacity:1;fill-rule:nonzero;stroke:#4d4d4d;stroke-width:1;stroke-linecap:square;stroke-linejoin:bevel;stroke-miterlimit:4;stroke-dasharray:none;stroke-dashoffset:0;stroke-opacity:1;color-rendering:auto;image-rendering:auto;shape-rendering:auto;text-rendering:auto;enable-background:accumulate"
             id="rect6430-6-7"
             width="565.5"
             height="30.000002"
             x="125"
             y="-153.33018"
             rx="0"
             ry="0" />
        </g>
        <g
           id="g11181"
           style="display:inline"
           transform="translate(0,95.754801)">
          <g
             transform="translate(-1060.8219,484.0863)"
             style="font-style:normal;font-weight:normal;font-size:40px;line-height:125%;font-family:sans-serif;letter-spacing:0px;word-spacing:0px;fill:#000000;fill-opacity:1;stroke:none;stroke-width:1px;stroke-linecap:butt;stroke-linejoin:miter;stroke-opacity:1"
             id="flowRoot11183">
            <path
               d="m 1201.2949,-662.24805 q -2.4121,-0.69336 -3.5156,-1.69921 -1.0938,-1.01563 -1.0938,-2.5 0,-1.67969 1.3379,-2.77344 1.3477,-1.10352 3.4961,-1.10352 1.4649,0 2.6075,0.56641 1.1523,0.5664 1.7773,1.5625 0.6348,0.99609 0.6348,2.17773 l -1.8848,0 q 0,-1.28906 -0.8203,-2.02148 -0.8203,-0.74219 -2.3145,-0.74219 -1.3867,0 -2.1679,0.61524 -0.7715,0.60546 -0.7715,1.68945 0,0.86914 0.7324,1.47461 0.7422,0.5957 2.5098,1.09375 1.7773,0.49804 2.7734,1.10351 1.0059,0.59571 1.4844,1.39649 0.4883,0.80078 0.4883,1.88476 0,1.72852 -1.3477,2.77344 -1.3477,1.03516 -3.6035,1.03516 -1.4649,0 -2.7344,-0.55664 -1.2695,-0.56641 -1.9629,-1.54297 -0.6836,-0.97656 -0.6836,-2.2168 l 1.8848,0 q 0,1.28906 0.9473,2.04102 0.957,0.74218 2.5488,0.74218 1.4844,0 2.2754,-0.60546 0.791,-0.60547 0.791,-1.6504 0,-1.04492 -0.7324,-1.61132 -0.7324,-0.57618 -2.6563,-1.13282 z"
               style="font-style:normal;font-variant:normal;font-weight:normal;font-stretch:normal;font-size:20px;line-height:120.00000477%;font-family:Roboto;-inkscape-font-specification:Roboto"
               id="path12284" />
            <path
               d="m 1213.082,-655.71484 q -2.1484,0 -3.4961,-1.40625 -1.3476,-1.41602 -1.3476,-3.7793 l 0,-0.33203 q 0,-1.57227 0.5957,-2.80274 0.6055,-1.24023 1.6797,-1.93359 1.084,-0.70312 2.3437,-0.70312 2.0606,0 3.2031,1.35742 1.1426,1.35742 1.1426,3.88672 l 0,0.75195 -7.1582,0 q 0.039,1.5625 0.9082,2.5293 0.8789,0.95703 2.2266,0.95703 0.957,0 1.6211,-0.39063 0.664,-0.39062 1.1621,-1.03515 l 1.1035,0.85937 q -1.3281,2.04102 -3.9844,2.04102 z m -0.2246,-9.47266 q -1.0937,0 -1.8359,0.80078 -0.7422,0.79102 -0.918,2.22656 l 5.293,0 0,-0.13671 q -0.078,-1.37696 -0.7422,-2.12891 -0.6641,-0.76172 -1.7969,-0.76172 z"
               style="font-style:normal;font-variant:normal;font-weight:normal;font-stretch:normal;font-size:20px;line-height:120.00000477%;font-family:Roboto;-inkscape-font-specification:Roboto"
               id="path12286" />
            <path
               d="m 1220.9922,-666.47656 0.059,1.32812 q 1.2109,-1.52343 3.164,-1.52343 3.3497,0 3.379,3.77929 l 0,6.98242 -1.8067,0 0,-6.99218 q -0.01,-1.14258 -0.5273,-1.68946 -0.5078,-0.54687 -1.5918,-0.54687 -0.8789,0 -1.543,0.46875 -0.6641,0.46875 -1.0352,1.23047 l 0,7.52929 -1.8066,0 0,-10.5664 1.709,0 z"
               style="font-style:normal;font-variant:normal;font-weight:normal;font-stretch:normal;font-size:20px;line-height:120.00000477%;font-family:Roboto;-inkscape-font-specification:Roboto"
               id="path12288" />
            <path
               d="m 1232.1445,-665.19726 q 1.2012,-1.47461 3.125,-1.47461 3.3496,0 3.3789,3.77929 l 0,6.98242 -1.8066,0 0,-6.99218 q -0.01,-1.14258 -0.5273,-1.68946 -0.5079,-0.54687 -1.5918,-0.54687 -0.8789,0 -1.543,0.46875 -0.6641,0.46875 -1.0352,1.23047 l 0,7.52929 -1.8066,0 0,-15 1.8066,0 0,5.7129 z"
               style="font-style:normal;font-variant:normal;font-weight:normal;font-stretch:normal;font-size:20px;line-height:120.00000477%;font-family:Roboto;-inkscape-font-specification:Roboto"
               id="path12290" />
            <path
               d="m 1247.877,-655.91016 q -0.1563,-0.3125 -0.254,-1.11328 -1.2597,1.3086 -3.0078,1.3086 -1.5625,0 -2.5683,-0.87891 -0.9961,-0.88867 -0.9961,-2.24609 0,-1.65039 1.25,-2.5586 1.2597,-0.91797 3.5351,-0.91797 l 1.7579,0 0,-0.83007 q 0,-0.94727 -0.5665,-1.50391 -0.5664,-0.56641 -1.6699,-0.56641 -0.9668,0 -1.6211,0.48829 -0.6543,0.48828 -0.6543,1.18164 l -1.8164,0 q 0,-0.79102 0.5567,-1.52344 0.5664,-0.74219 1.5234,-1.17188 0.9668,-0.42968 2.1191,-0.42968 1.8262,0 2.8614,0.91796 1.0351,0.90821 1.0742,2.50977 l 0,4.86328 q 0,1.45508 0.3711,2.31445 l 0,0.15625 -1.8945,0 z m -2.9981,-1.37695 q 0.8496,0 1.6113,-0.43945 0.7618,-0.43945 1.1036,-1.14258 l 0,-2.16797 -1.4161,0 q -3.3203,0 -3.3203,1.94336 0,0.84961 0.5664,1.32813 0.5664,0.47851 1.4551,0.47851 z"
               style="font-style:normal;font-variant:normal;font-weight:normal;font-stretch:normal;font-size:20px;line-height:120.00000477%;font-family:Roboto;-inkscape-font-specification:Roboto"
               id="path12292" />
          </g>
          <rect
             ry="0"
             rx="0"
             y="-153.33018"
             x="125"
             height="30.000002"
             width="565.5"
             id="rect11191"
             style="color:#000000;clip-rule:nonzero;display:inline;overflow:visible;visibility:visible;opacity:1;isolation:auto;mix-blend-mode:normal;color-interpolation:sRGB;color-interpolation-filters:linearRGB;solid-color:#000000;solid-opacity:1;fill:#ffffff;fill-opacity:1;fill-rule:nonzero;stroke:#4d4d4d;stroke-width:1;stroke-linecap:square;stroke-linejoin:bevel;stroke-miterlimit:4;stroke-dasharray:none;stroke-dashoffset:0;stroke-opacity:1;color-rendering:auto;image-rendering:auto;shape-rendering:auto;text-rendering:auto;enable-background:accumulate" />
        </g>
        <g
           transform="translate(-1061.691,661.82091)"
           style="font-style:normal;font-weight:normal;font-size:40px;line-height:125%;font-family:sans-serif;letter-spacing:0px;word-spacing:0px;display:inline;fill:#3f9156;fill-opacity:1;stroke:none;stroke-width:1px;stroke-linecap:butt;stroke-linejoin:miter;stroke-opacity:1"
           id="flowRoot11183-2">
          <path
             d="m 1205.1426,-662.48242 -6.1621,0 0,5.03906 7.1582,0 0,1.5332 -9.0332,0 0,-14.21875 8.9355,0 0,1.54297 -7.0605,0 0,4.57032 6.1621,0 0,1.5332 z"
             style="font-style:normal;font-variant:normal;font-weight:normal;font-stretch:normal;font-size:20px;line-height:120.00000477%;font-family:Roboto;-inkscape-font-specification:Roboto;fill:#3f9156;fill-opacity:1"
             id="path12249" />
          <path
             d="m 1214.3418,-658.71289 q 0,-0.73242 -0.5566,-1.13281 -0.5469,-0.41016 -1.9239,-0.70313 -1.3672,-0.29297 -2.1777,-0.70312 -0.8008,-0.41016 -1.1914,-0.97656 -0.3809,-0.56641 -0.3809,-1.34766 0,-1.29883 1.0938,-2.19727 1.1035,-0.89843 2.8125,-0.89843 1.7969,0 2.9101,0.92773 1.1231,0.92773 1.1231,2.37305 l -1.8164,0 q 0,-0.74219 -0.6348,-1.2793 -0.625,-0.53711 -1.582,-0.53711 -0.9863,0 -1.543,0.42969 -0.5566,0.42969 -0.5566,1.12305 0,0.65429 0.5175,0.98632 0.5176,0.33203 1.8653,0.63477 1.3574,0.30273 2.1972,0.72266 0.8399,0.41992 1.2403,1.01562 0.4101,0.58594 0.4101,1.43555 0,1.41601 -1.1328,2.27539 -1.1328,0.84961 -2.9394,0.84961 -1.2696,0 -2.2461,-0.44922 -0.9766,-0.44922 -1.5332,-1.25 -0.5469,-0.81055 -0.5469,-1.74805 l 1.8066,0 q 0.049,0.9082 0.7227,1.44531 0.6836,0.52735 1.7969,0.52735 1.0254,0 1.6406,-0.41016 0.625,-0.41992 0.625,-1.11328 z"
             style="font-style:normal;font-variant:normal;font-weight:normal;font-stretch:normal;font-size:20px;line-height:120.00000477%;font-family:Roboto;-inkscape-font-specification:Roboto;fill:#3f9156;fill-opacity:1"
             id="path12251" />
          <path
             d="m 1218.0625,-661.28125 q 0,-2.49023 1.1426,-3.93555 1.1426,-1.45507 3.0664,-1.45507 1.875,0 2.959,1.25976 l 0.078,-1.06445 1.6602,0 0,14.6289 -1.8067,0 0,-5.03906 q -1.0937,1.17188 -2.9101,1.17188 -1.9141,0 -3.0567,-1.48438 -1.1328,-1.49414 -1.1328,-3.95508 l 0,-0.12695 z m 1.8066,0.20508 q 0,1.81641 0.7618,2.85156 0.7714,1.03516 2.0703,1.03516 1.6113,0 2.4609,-1.42578 l 0,-5.17578 q -0.8594,-1.39649 -2.4414,-1.39649 -1.3086,0 -2.0801,1.04492 -0.7715,1.03516 -0.7715,3.06641 z"
             style="font-style:normal;font-variant:normal;font-weight:normal;font-stretch:normal;font-size:20px;line-height:120.00000477%;font-family:Roboto;-inkscape-font-specification:Roboto;fill:#3f9156;fill-opacity:1"
             id="path12253" />
          <path
             d="m 1236.3926,-656.95508 q -1.0547,1.24024 -3.0957,1.24024 -1.6895,0 -2.5781,-0.97657 -0.879,-0.98632 -0.8887,-2.91015 l 0,-6.875 1.8066,0 0,6.82617 q 0,2.40234 1.9531,2.40234 2.0704,0 2.754,-1.54296 l 0,-7.68555 1.8066,0 0,10.5664 -1.7188,0 -0.039,-1.04492 z"
             style="font-style:normal;font-variant:normal;font-weight:normal;font-stretch:normal;font-size:20px;line-height:120.00000477%;font-family:Roboto;-inkscape-font-specification:Roboto;fill:#3f9156;fill-opacity:1"
             id="path12255" />
          <path
             d="m 1245.2695,-655.71484 q -2.1484,0 -3.4961,-1.40625 -1.3476,-1.41602 -1.3476,-3.7793 l 0,-0.33203 q 0,-1.57227 0.5957,-2.80274 0.6055,-1.24023 1.6797,-1.93359 1.084,-0.70312 2.3437,-0.70312 2.0606,0 3.2031,1.35742 1.1426,1.35742 1.1426,3.88672 l 0,0.75195 -7.1582,0 q 0.039,1.5625 0.9082,2.5293 0.8789,0.95703 2.2266,0.95703 0.957,0 1.6211,-0.39063 0.664,-0.39062 1.1621,-1.03515 l 1.1035,0.85937 q -1.3281,2.04102 -3.9844,2.04102 z m -0.2246,-9.47266 q -1.0937,0 -1.8359,0.80078 -0.7422,0.79102 -0.918,2.22656 l 5.293,0 0,-0.13671 q -0.078,-1.37696 -0.7422,-2.12891 -0.6641,-0.76172 -1.7969,-0.76172 z"
             style="font-style:normal;font-variant:normal;font-weight:normal;font-stretch:normal;font-size:20px;line-height:120.00000477%;font-family:Roboto;-inkscape-font-specification:Roboto;fill:#3f9156;fill-opacity:1"
             id="path12257" />
          <path
             d="m 1255.709,-657.18945 q 0.9668,0 1.6894,-0.58594 0.7227,-0.58594 0.8008,-1.46484 l 1.709,0 q -0.049,0.9082 -0.625,1.72851 -0.5762,0.82031 -1.543,1.3086 -0.957,0.48828 -2.0312,0.48828 -2.1582,0 -3.4375,-1.43555 -1.2695,-1.44531 -1.2695,-3.94531 l 0,-0.30274 q 0,-1.54297 0.5664,-2.74414 0.5664,-1.20117 1.6211,-1.86523 1.0644,-0.66406 2.5097,-0.66406 1.7774,0 2.9492,1.06445 1.1817,1.06445 1.2598,2.76367 l -1.709,0 q -0.078,-1.02539 -0.7812,-1.67969 -0.6934,-0.66406 -1.7188,-0.66406 -1.3769,0 -2.1387,0.99609 -0.7519,0.98633 -0.7519,2.86133 l 0,0.3418 q 0,1.82617 0.7519,2.8125 0.752,0.98633 2.1485,0.98633 z"
             style="font-style:normal;font-variant:normal;font-weight:normal;font-stretch:normal;font-size:20px;line-height:120.00000477%;font-family:Roboto;-inkscape-font-specification:Roboto;fill:#3f9156;fill-opacity:1"
             id="path12259" />
          <path
             d="m 1263.9023,-655.91016 -1.8066,0 0,-10.5664 1.8066,0 0,10.5664 z m -1.9531,-13.36914 q 0,-0.43945 0.2637,-0.74218 0.2734,-0.30274 0.8008,-0.30274 0.5273,0 0.8008,0.30274 0.2734,0.30273 0.2734,0.74218 0,0.43946 -0.2734,0.73243 -0.2735,0.29296 -0.8008,0.29296 -0.5274,0 -0.8008,-0.29296 -0.2637,-0.29297 -0.2637,-0.73243 z"
             style="font-style:normal;font-variant:normal;font-weight:normal;font-stretch:normal;font-size:20px;line-height:120.00000477%;font-family:Roboto;-inkscape-font-specification:Roboto;fill:#3f9156;fill-opacity:1"
             id="path12261" />
          <path
             d="m 1273.4434,-666.47656 0.049,1.17187 q 1.1621,-1.36718 3.1348,-1.36718 2.2168,0 3.0175,1.69921 0.5274,-0.76171 1.3672,-1.23046 0.8496,-0.46875 2.002,-0.46875 3.4765,0 3.5351,3.68164 l 0,7.08007 -1.8066,0 0,-6.97265 q 0,-1.13281 -0.5176,-1.68945 -0.5176,-0.56641 -1.7383,-0.56641 -1.0058,0 -1.6699,0.60547 -0.6641,0.5957 -0.7715,1.61133 l 0,7.01171 -1.8164,0 0,-6.92382 q 0,-2.30469 -2.2558,-2.30469 -1.7774,0 -2.4317,1.51367 l 0,7.71484 -1.8066,0 0,-10.5664 1.709,0 z"
             style="font-style:normal;font-variant:normal;font-weight:normal;font-stretch:normal;font-size:20px;line-height:120.00000477%;font-family:Roboto;-inkscape-font-specification:Roboto;fill:#3f9156;fill-opacity:1"
             id="path12263" />
          <path
             d="m 1291.2461,-655.91016 -1.8066,0 0,-10.5664 1.8066,0 0,10.5664 z m -1.9531,-13.36914 q 0,-0.43945 0.2636,-0.74218 0.2735,-0.30274 0.8008,-0.30274 0.5274,0 0.8008,0.30274 0.2734,0.30273 0.2734,0.74218 0,0.43946 -0.2734,0.73243 -0.2734,0.29296 -0.8008,0.29296 -0.5273,0 -0.8008,-0.29296 -0.2636,-0.29297 -0.2636,-0.73243 z"
             style="font-style:normal;font-variant:normal;font-weight:normal;font-stretch:normal;font-size:20px;line-height:120.00000477%;font-family:Roboto;-inkscape-font-specification:Roboto;fill:#3f9156;fill-opacity:1"
             id="path12265" />
          <path
             d="m 1295.8359,-666.47656 0.059,1.32812 q 1.211,-1.52343 3.1641,-1.52343 3.3496,0 3.3789,3.77929 l 0,6.98242 -1.8066,0 0,-6.99218 q -0.01,-1.14258 -0.5274,-1.68946 -0.5078,-0.54687 -1.5918,-0.54687 -0.8789,0 -1.5429,0.46875 -0.6641,0.46875 -1.0352,1.23047 l 0,7.52929 -1.8066,0 0,-10.5664 1.7089,0 z"
             style="font-style:normal;font-variant:normal;font-weight:normal;font-stretch:normal;font-size:20px;line-height:120.00000477%;font-family:Roboto;-inkscape-font-specification:Roboto;fill:#3f9156;fill-opacity:1"
             id="path12267" />
          <path
             d="m 1306.9883,-665.19726 q 1.2012,-1.47461 3.125,-1.47461 3.3496,0 3.3789,3.77929 l 0,6.98242 -1.8067,0 0,-6.99218 q -0.01,-1.14258 -0.5273,-1.68946 -0.5078,-0.54687 -1.5918,-0.54687 -0.8789,0 -1.543,0.46875 -0.664,0.46875 -1.0351,1.23047 l 0,7.52929 -1.8067,0 0,-15 1.8067,0 0,5.7129 z"
             style="font-style:normal;font-variant:normal;font-weight:normal;font-stretch:normal;font-size:20px;line-height:120.00000477%;font-family:Roboto;-inkscape-font-specification:Roboto;fill:#3f9156;fill-opacity:1"
             id="path12269" />
          <path
             d="m 1322.7207,-655.91016 q -0.1562,-0.3125 -0.2539,-1.11328 -1.2598,1.3086 -3.0078,1.3086 -1.5625,0 -2.5684,-0.87891 -0.9961,-0.88867 -0.9961,-2.24609 0,-1.65039 1.25,-2.5586 1.2598,-0.91797 3.5352,-0.91797 l 1.7578,0 0,-0.83007 q 0,-0.94727 -0.5664,-1.50391 -0.5664,-0.56641 -1.6699,-0.56641 -0.9668,0 -1.6211,0.48829 -0.6543,0.48828 -0.6543,1.18164 l -1.8164,0 q 0,-0.79102 0.5566,-1.52344 0.5664,-0.74219 1.5235,-1.17188 0.9668,-0.42968 2.1191,-0.42968 1.8262,0 2.8613,0.91796 1.0352,0.90821 1.0742,2.50977 l 0,4.86328 q 0,1.45508 0.3711,2.31445 l 0,0.15625 -1.8945,0 z m -2.998,-1.37695 q 0.8496,0 1.6113,-0.43945 0.7617,-0.43945 1.1035,-1.14258 l 0,-2.16797 -1.416,0 q -3.3203,0 -3.3203,1.94336 0,0.84961 0.5664,1.32813 0.5664,0.47851 1.4551,0.47851 z"
             style="font-style:normal;font-variant:normal;font-weight:normal;font-stretch:normal;font-size:20px;line-height:120.00000477%;font-family:Roboto;-inkscape-font-specification:Roboto;fill:#3f9156;fill-opacity:1"
             id="path12271" />
          <path
             d="m 1338.209,-658.71289 q 0,-0.73242 -0.5567,-1.13281 -0.5468,-0.41016 -1.9238,-0.70313 -1.3672,-0.29297 -2.1777,-0.70312 -0.8008,-0.41016 -1.1914,-0.97656 -0.3809,-0.56641 -0.3809,-1.34766 0,-1.29883 1.0938,-2.19727 1.1035,-0.89843 2.8125,-0.89843 1.7968,0 2.9101,0.92773 1.1231,0.92773 1.1231,2.37305 l -1.8164,0 q 0,-0.74219 -0.6348,-1.2793 -0.625,-0.53711 -1.582,-0.53711 -0.9864,0 -1.543,0.42969 -0.5566,0.42969 -0.5566,1.12305 0,0.65429 0.5175,0.98632 0.5176,0.33203 1.8653,0.63477 1.3574,0.30273 2.1972,0.72266 0.8399,0.41992 1.2403,1.01562 0.4101,0.58594 0.4101,1.43555 0,1.41601 -1.1328,2.27539 -1.1328,0.84961 -2.9394,0.84961 -1.2696,0 -2.2461,-0.44922 -0.9766,-0.44922 -1.5332,-1.25 -0.5469,-0.81055 -0.5469,-1.74805 l 1.8066,0 q 0.049,0.9082 0.7227,1.44531 0.6836,0.52735 1.7969,0.52735 1.0254,0 1.6406,-0.41016 0.625,-0.41992 0.625,-1.11328 z"
             style="font-style:normal;font-variant:normal;font-weight:normal;font-stretch:normal;font-size:20px;line-height:120.00000477%;font-family:Roboto;-inkscape-font-specification:Roboto;fill:#3f9156;fill-opacity:1"
             id="path12273" />
          <path
             d="m 1346.7539,-655.71484 q -2.1484,0 -3.4961,-1.40625 -1.3476,-1.41602 -1.3476,-3.7793 l 0,-0.33203 q 0,-1.57227 0.5957,-2.80274 0.6054,-1.24023 1.6796,-1.93359 1.084,-0.70312 2.3438,-0.70312 2.0605,0 3.2031,1.35742 1.1426,1.35742 1.1426,3.88672 l 0,0.75195 -7.1582,0 q 0.039,1.5625 0.9082,2.5293 0.8789,0.95703 2.2266,0.95703 0.957,0 1.6211,-0.39063 0.664,-0.39062 1.1621,-1.03515 l 1.1035,0.85937 q -1.3281,2.04102 -3.9844,2.04102 z m -0.2246,-9.47266 q -1.0938,0 -1.8359,0.80078 -0.7422,0.79102 -0.918,2.22656 l 5.293,0 0,-0.13671 q -0.078,-1.37696 -0.7422,-2.12891 -0.6641,-0.76172 -1.7969,-0.76172 z"
             style="font-style:normal;font-variant:normal;font-weight:normal;font-stretch:normal;font-size:20px;line-height:120.00000477%;font-family:Roboto;-inkscape-font-specification:Roboto;fill:#3f9156;fill-opacity:1"
             id="path12275" />
          <path
             d="m 1354.6641,-666.47656 0.059,1.32812 q 1.2109,-1.52343 3.164,-1.52343 3.3496,0 3.3789,3.77929 l 0,6.98242 -1.8066,0 0,-6.99218 q -0.01,-1.14258 -0.5274,-1.68946 -0.5078,-0.54687 -1.5918,-0.54687 -0.8789,0 -1.5429,0.46875 -0.6641,0.46875 -1.0352,1.23047 l 0,7.52929 -1.8066,0 0,-10.5664 1.709,0 z"
             style="font-style:normal;font-variant:normal;font-weight:normal;font-stretch:normal;font-size:20px;line-height:120.00000477%;font-family:Roboto;-inkscape-font-specification:Roboto;fill:#3f9156;fill-opacity:1"
             id="path12277" />
          <path
             d="m 1365.8164,-665.19726 q 1.2012,-1.47461 3.125,-1.47461 3.3496,0 3.3789,3.77929 l 0,6.98242 -1.8066,0 0,-6.99218 q -0.01,-1.14258 -0.5274,-1.68946 -0.5078,-0.54687 -1.5918,-0.54687 -0.8789,0 -1.5429,0.46875 -0.6641,0.46875 -1.0352,1.23047 l 0,7.52929 -1.8066,0 0,-15 1.8066,0 0,5.7129 z"
             style="font-style:normal;font-variant:normal;font-weight:normal;font-stretch:normal;font-size:20px;line-height:120.00000477%;font-family:Roboto;-inkscape-font-specification:Roboto;fill:#3f9156;fill-opacity:1"
             id="path12279" />
          <path
             d="m 1381.5488,-655.91016 q -0.1562,-0.3125 -0.2539,-1.11328 -1.2597,1.3086 -3.0078,1.3086 -1.5625,0 -2.5683,-0.87891 -0.9961,-0.88867 -0.9961,-2.24609 0,-1.65039 1.25,-2.5586 1.2597,-0.91797 3.5351,-0.91797 l 1.7578,0 0,-0.83007 q 0,-0.94727 -0.5664,-1.50391 -0.5664,-0.56641 -1.6699,-0.56641 -0.9668,0 -1.6211,0.48829 -0.6543,0.48828 -0.6543,1.18164 l -1.8164,0 q 0,-0.79102 0.5566,-1.52344 0.5664,-0.74219 1.5235,-1.17188 0.9668,-0.42968 2.1191,-0.42968 1.8262,0 2.8613,0.91796 1.0352,0.90821 1.0743,2.50977 l 0,4.86328 q 0,1.45508 0.3711,2.31445 l 0,0.15625 -1.8946,0 z m -2.998,-1.37695 q 0.8496,0 1.6113,-0.43945 0.7617,-0.43945 1.1035,-1.14258 l 0,-2.16797 -1.416,0 q -3.3203,0 -3.3203,1.94336 0,0.84961 0.5664,1.32813 0.5664,0.47851 1.4551,0.47851 z"
             style="font-style:normal;font-variant:normal;font-weight:normal;font-stretch:normal;font-size:20px;line-height:120.00000477%;font-family:Roboto;-inkscape-font-specification:Roboto;fill:#3f9156;fill-opacity:1"
             id="path12281" />
        </g>
        <g
           transform="matrix(1.016949,0,0,1.0666668,-923.36166,767.02707)"
           style="font-style:normal;font-weight:normal;font-size:40px;line-height:125%;font-family:sans-serif;letter-spacing:0px;word-spacing:0px;display:inline;fill:#3f9156;fill-opacity:1;stroke:none;stroke-width:1px;stroke-linecap:butt;stroke-linejoin:miter;stroke-opacity:1"
           id="flowRoot30951-9">
          <path
             d="m 1207.5645,-660.42187 q -0.2637,2.25586 -1.67,3.48632 -1.3965,1.22071 -3.7207,1.22071 -2.5195,0 -4.0429,-1.80664 -1.5137,-1.80664 -1.5137,-4.83399 l 0,-1.36719 q 0,-1.98242 0.7031,-3.48632 0.7129,-1.50391 2.0117,-2.30469 1.2989,-0.81055 3.0078,-0.81055 2.2657,0 3.6329,1.26953 1.3671,1.25977 1.5918,3.4961 l -1.8848,0 q -0.2442,-1.69922 -1.0645,-2.46094 -0.8105,-0.76172 -2.2754,-0.76172 -1.7968,0 -2.8222,1.32813 -1.0156,1.32812 -1.0156,3.77929 l 0,1.37696 q 0,2.31445 0.9668,3.68164 0.9667,1.36718 2.705,1.36718 1.5625,0 2.3926,-0.70312 0.8399,-0.71289 1.1133,-2.4707 l 1.8848,0 z"
             style="font-style:normal;font-variant:normal;font-weight:normal;font-stretch:normal;font-size:20px;line-height:120.00000477%;font-family:Roboto;-inkscape-font-specification:Roboto;fill:#3f9156;fill-opacity:1"
             id="path12232" />
          <path
             d="m 1216.3535,-655.91016 q -0.1562,-0.3125 -0.2539,-1.11328 -1.2598,1.3086 -3.0078,1.3086 -1.5625,0 -2.5684,-0.87891 -0.9961,-0.88867 -0.9961,-2.24609 0,-1.65039 1.25,-2.5586 1.2598,-0.91797 3.5352,-0.91797 l 1.7578,0 0,-0.83007 q 0,-0.94727 -0.5664,-1.50391 -0.5664,-0.56641 -1.6699,-0.56641 -0.9668,0 -1.6211,0.48829 -0.6543,0.48828 -0.6543,1.18164 l -1.8164,0 q 0,-0.79102 0.5566,-1.52344 0.5664,-0.74219 1.5235,-1.17188 0.9668,-0.42968 2.1191,-0.42968 1.8262,0 2.8613,0.91796 1.0352,0.90821 1.0743,2.50977 l 0,4.86328 q 0,1.45508 0.371,2.31445 l 0,0.15625 -1.8945,0 z m -2.998,-1.37695 q 0.8496,0 1.6113,-0.43945 0.7617,-0.43945 1.1035,-1.14258 l 0,-2.16797 -1.416,0 q -3.3203,0 -3.3203,1.94336 0,0.84961 0.5664,1.32813 0.5664,0.47851 1.4551,0.47851 z"
             style="font-style:normal;font-variant:normal;font-weight:normal;font-stretch:normal;font-size:20px;line-height:120.00000477%;font-family:Roboto;-inkscape-font-specification:Roboto;fill:#3f9156;fill-opacity:1"
             id="path12234" />
          <path
             d="m 1222.4375,-666.47656 0.059,1.32812 q 1.2109,-1.52343 3.1641,-1.52343 3.3496,0 3.3789,3.77929 l 0,6.98242 -1.8067,0 0,-6.99218 q -0.01,-1.14258 -0.5273,-1.68946 -0.5078,-0.54687 -1.5918,-0.54687 -0.8789,0 -1.543,0.46875 -0.664,0.46875 -1.0351,1.23047 l 0,7.52929 -1.8067,0 0,-10.5664 1.709,0 z"
             style="font-style:normal;font-variant:normal;font-weight:normal;font-stretch:normal;font-size:20px;line-height:120.00000477%;font-family:Roboto;-inkscape-font-specification:Roboto;fill:#3f9156;fill-opacity:1"
             id="path12236" />
          <path
             d="m 1236.0215,-657.18945 q 0.9668,0 1.6894,-0.58594 0.7227,-0.58594 0.8008,-1.46484 l 1.709,0 q -0.049,0.9082 -0.625,1.72851 -0.5762,0.82031 -1.543,1.3086 -0.957,0.48828 -2.0312,0.48828 -2.1582,0 -3.4375,-1.43555 -1.2695,-1.44531 -1.2695,-3.94531 l 0,-0.30274 q 0,-1.54297 0.5664,-2.74414 0.5664,-1.20117 1.6211,-1.86523 1.0644,-0.66406 2.5097,-0.66406 1.7774,0 2.9492,1.06445 1.1817,1.06445 1.2598,2.76367 l -1.709,0 q -0.078,-1.02539 -0.7812,-1.67969 -0.6934,-0.66406 -1.7188,-0.66406 -1.3769,0 -2.1387,0.99609 -0.7519,0.98633 -0.7519,2.86133 l 0,0.3418 q 0,1.82617 0.7519,2.8125 0.752,0.98633 2.1485,0.98633 z"
             style="font-style:normal;font-variant:normal;font-weight:normal;font-stretch:normal;font-size:20px;line-height:120.00000477%;font-family:Roboto;-inkscape-font-specification:Roboto;fill:#3f9156;fill-opacity:1"
             id="path12238" />
          <path
             d="m 1246.6367,-655.71484 q -2.1484,0 -3.4961,-1.40625 -1.3476,-1.41602 -1.3476,-3.7793 l 0,-0.33203 q 0,-1.57227 0.5957,-2.80274 0.6054,-1.24023 1.6797,-1.93359 1.0839,-0.70312 2.3437,-0.70312 2.0606,0 3.2031,1.35742 1.1426,1.35742 1.1426,3.88672 l 0,0.75195 -7.1582,0 q 0.039,1.5625 0.9082,2.5293 0.8789,0.95703 2.2266,0.95703 0.957,0 1.6211,-0.39063 0.664,-0.39062 1.1621,-1.03515 l 1.1035,0.85937 q -1.3281,2.04102 -3.9844,2.04102 z m -0.2246,-9.47266 q -1.0937,0 -1.8359,0.80078 -0.7422,0.79102 -0.918,2.22656 l 5.293,0 0,-0.13671 q -0.078,-1.37696 -0.7422,-2.12891 -0.6641,-0.76172 -1.7969,-0.76172 z"
             style="font-style:normal;font-variant:normal;font-weight:normal;font-stretch:normal;font-size:20px;line-height:120.00000477%;font-family:Roboto;-inkscape-font-specification:Roboto;fill:#3f9156;fill-opacity:1"
             id="path12240" />
          <path
             d="m 1254.8008,-655.91016 -1.8067,0 0,-15 1.8067,0 0,15 z"
             style="font-style:normal;font-variant:normal;font-weight:normal;font-stretch:normal;font-size:20px;line-height:120.00000477%;font-family:Roboto;-inkscape-font-specification:Roboto;fill:#3f9156;fill-opacity:1"
             id="path12242" />
          <path
             d="m 1264.2051,-655.91016 q -0.1563,-0.3125 -0.2539,-1.11328 -1.2598,1.3086 -3.0078,1.3086 -1.5625,0 -2.5684,-0.87891 -0.9961,-0.88867 -0.9961,-2.24609 0,-1.65039 1.25,-2.5586 1.2598,-0.91797 3.5352,-0.91797 l 1.7578,0 0,-0.83007 q 0,-0.94727 -0.5664,-1.50391 -0.5664,-0.56641 -1.67,-0.56641 -0.9667,0 -1.621,0.48829 -0.6543,0.48828 -0.6543,1.18164 l -1.8164,0 q 0,-0.79102 0.5566,-1.52344 0.5664,-0.74219 1.5234,-1.17188 0.9668,-0.42968 2.1192,-0.42968 1.8261,0 2.8613,0.91796 1.0352,0.90821 1.0742,2.50977 l 0,4.86328 q 0,1.45508 0.3711,2.31445 l 0,0.15625 -1.8945,0 z m -2.9981,-1.37695 q 0.8496,0 1.6114,-0.43945 0.7617,-0.43945 1.1035,-1.14258 l 0,-2.16797 -1.416,0 q -3.3204,0 -3.3204,1.94336 0,0.84961 0.5665,1.32813 0.5664,0.47851 1.455,0.47851 z"
             style="font-style:normal;font-variant:normal;font-weight:normal;font-stretch:normal;font-size:20px;line-height:120.00000477%;font-family:Roboto;-inkscape-font-specification:Roboto;fill:#3f9156;fill-opacity:1"
             id="path12244" />
          <path
             d="m 1273.6875,-664.85547 q -0.4102,-0.0684 -0.8887,-0.0684 -1.7773,0 -2.4121,1.51367 l 0,7.5 -1.8066,0 0,-10.5664 1.7578,0 0.029,1.2207 q 0.8887,-1.41601 2.5195,-1.41601 0.5274,0 0.8008,0.13671 l 0,1.67969 z"
             style="font-style:normal;font-variant:normal;font-weight:normal;font-stretch:normal;font-size:20px;line-height:120.00000477%;font-family:Roboto;-inkscape-font-specification:Roboto;fill:#3f9156;fill-opacity:1"
             id="path12246" />
        </g>
        <g
           id="g11272"
           onclick="window.location='edicao-planta.svg';">
          <rect
             ry="16.000006"
             rx="15.254238"
             y="43.389454"
             x="124.35514"
             height="32.000011"
             width="119.99998"
             id="rect30902-7"
             style="color:#000000;clip-rule:nonzero;display:inline;overflow:visible;visibility:visible;opacity:1;isolation:auto;mix-blend-mode:normal;color-interpolation:sRGB;color-interpolation-filters:linearRGB;solid-color:#000000;solid-opacity:1;fill:#3f9156;fill-opacity:1;fill-rule:nonzero;stroke:none;stroke-width:1.99999952;stroke-linecap:square;stroke-linejoin:bevel;stroke-miterlimit:4;stroke-dasharray:none;stroke-dashoffset:0;stroke-opacity:1;color-rendering:auto;image-rendering:auto;shape-rendering:auto;text-rendering:auto;enable-background:accumulate" />
          <g
             transform="matrix(1.016949,0,0,1.0666668,-1075.8234,766.92288)"
             style="font-style:normal;font-weight:normal;font-size:40px;line-height:125%;font-family:sans-serif;letter-spacing:0px;word-spacing:0px;display:inline;fill:#ffffff;fill-opacity:1;stroke:none;stroke-width:1px;stroke-linecap:butt;stroke-linejoin:miter;stroke-opacity:1"
             id="flowRoot30951-9-3">
            <path
               d="m 1207.5645,-660.42187 q -0.2637,2.25586 -1.67,3.48632 -1.3965,1.22071 -3.7207,1.22071 -2.5195,0 -4.0429,-1.80664 -1.5137,-1.80664 -1.5137,-4.83399 l 0,-1.36719 q 0,-1.98242 0.7031,-3.48632 0.7129,-1.50391 2.0117,-2.30469 1.2989,-0.81055 3.0078,-0.81055 2.2657,0 3.6329,1.26953 1.3671,1.25977 1.5918,3.4961 l -1.8848,0 q -0.2442,-1.69922 -1.0645,-2.46094 -0.8105,-0.76172 -2.2754,-0.76172 -1.7968,0 -2.8222,1.32813 -1.0156,1.32812 -1.0156,3.77929 l 0,1.37696 q 0,2.31445 0.9668,3.68164 0.9667,1.36718 2.705,1.36718 1.5625,0 2.3926,-0.70312 0.8399,-0.71289 1.1133,-2.4707 l 1.8848,0 z"
               style="font-style:normal;font-variant:normal;font-weight:normal;font-stretch:normal;font-size:20px;line-height:120.00000477%;font-family:Roboto;-inkscape-font-specification:Roboto;fill:#ffffff;fill-opacity:1"
               id="path12213" />
            <path
               d="m 1209.3516,-661.29101 q 0,-1.55274 0.6054,-2.79297 0.6153,-1.24024 1.6993,-1.91407 1.0937,-0.67382 2.4902,-0.67382 2.1582,0 3.4863,1.49414 1.3379,1.49414 1.3379,3.97461 l 0,0.12695 q 0,1.54297 -0.5957,2.77344 -0.5859,1.2207 -1.6895,1.90429 -1.0937,0.6836 -2.5195,0.6836 -2.1484,0 -3.4863,-1.49414 -1.3281,-1.49414 -1.3281,-3.95508 l 0,-0.12695 z m 1.8164,0.21484 q 0,1.75781 0.8105,2.82226 0.8203,1.06446 2.1875,1.06446 1.377,0 2.1875,-1.07422 0.8106,-1.08399 0.8106,-3.02734 0,-1.73829 -0.8301,-2.8125 -0.8203,-1.08399 -2.1875,-1.08399 -1.3379,0 -2.1582,1.06445 -0.8203,1.06446 -0.8203,3.04688 z"
               style="font-style:normal;font-variant:normal;font-weight:normal;font-stretch:normal;font-size:20px;line-height:120.00000477%;font-family:Roboto;-inkscape-font-specification:Roboto;fill:#ffffff;fill-opacity:1"
               id="path12215" />
            <path
               d="m 1222.9453,-666.47656 0.059,1.32812 q 1.2109,-1.52343 3.1641,-1.52343 3.3496,0 3.3789,3.77929 l 0,6.98242 -1.8067,0 0,-6.99218 q -0.01,-1.14258 -0.5273,-1.68946 -0.5078,-0.54687 -1.5918,-0.54687 -0.8789,0 -1.543,0.46875 -0.664,0.46875 -1.0351,1.23047 l 0,7.52929 -1.8067,0 0,-10.5664 1.709,0 z"
               style="font-style:normal;font-variant:normal;font-weight:normal;font-stretch:normal;font-size:20px;line-height:120.00000477%;font-family:Roboto;-inkscape-font-specification:Roboto;fill:#ffffff;fill-opacity:1"
               id="path12217" />
            <path
               d="m 1234.7422,-669.03516 0,2.5586 1.9726,0 0,1.39648 -1.9726,0 0,6.55274 q 0,0.63476 0.2637,0.95703 0.2636,0.3125 0.8984,0.3125 0.3125,0 0.8594,-0.11719 l 0,1.46484 q -0.7129,0.19532 -1.3867,0.19532 -1.211,0 -1.8262,-0.73242 -0.6153,-0.73243 -0.6153,-2.08008 l 0,-6.55274 -1.9238,0 0,-1.39648 1.9238,0 0,-2.5586 1.8067,0 z"
               style="font-style:normal;font-variant:normal;font-weight:normal;font-stretch:normal;font-size:20px;line-height:120.00000477%;font-family:Roboto;-inkscape-font-specification:Roboto;fill:#ffffff;fill-opacity:1"
               id="path12219" />
            <path
               d="m 1240.7773,-655.91016 -1.8066,0 0,-10.5664 1.8066,0 0,10.5664 z m -1.9531,-13.36914 q 0,-0.43945 0.2637,-0.74218 0.2734,-0.30274 0.8008,-0.30274 0.5273,0 0.8008,0.30274 0.2734,0.30273 0.2734,0.74218 0,0.43946 -0.2734,0.73243 -0.2735,0.29296 -0.8008,0.29296 -0.5274,0 -0.8008,-0.29296 -0.2637,-0.29297 -0.2637,-0.73243 z"
               style="font-style:normal;font-variant:normal;font-weight:normal;font-stretch:normal;font-size:20px;line-height:120.00000477%;font-family:Roboto;-inkscape-font-specification:Roboto;fill:#ffffff;fill-opacity:1"
               id="path12221" />
            <path
               d="m 1245.3672,-666.47656 0.059,1.32812 q 1.2109,-1.52343 3.164,-1.52343 3.3497,0 3.379,3.77929 l 0,6.98242 -1.8067,0 0,-6.99218 q -0.01,-1.14258 -0.5273,-1.68946 -0.5078,-0.54687 -1.5918,-0.54687 -0.8789,0 -1.543,0.46875 -0.6641,0.46875 -1.0352,1.23047 l 0,7.52929 -1.8066,0 0,-10.5664 1.709,0 z"
               style="font-style:normal;font-variant:normal;font-weight:normal;font-stretch:normal;font-size:20px;line-height:120.00000477%;font-family:Roboto;-inkscape-font-specification:Roboto;fill:#ffffff;fill-opacity:1"
               id="path12223" />
            <path
               d="m 1261.2363,-656.95508 q -1.0547,1.24024 -3.0957,1.24024 -1.6894,0 -2.5781,-0.97657 -0.8789,-0.98632 -0.8887,-2.91015 l 0,-6.875 1.8067,0 0,6.82617 q 0,2.40234 1.9531,2.40234 2.0703,0 2.7539,-1.54296 l 0,-7.68555 1.8066,0 0,10.5664 -1.7187,0 -0.039,-1.04492 z"
               style="font-style:normal;font-variant:normal;font-weight:normal;font-stretch:normal;font-size:20px;line-height:120.00000477%;font-family:Roboto;-inkscape-font-specification:Roboto;fill:#ffffff;fill-opacity:1"
               id="path12225" />
            <path
               d="m 1272.252,-655.91016 q -0.1563,-0.3125 -0.254,-1.11328 -1.2597,1.3086 -3.0078,1.3086 -1.5625,0 -2.5683,-0.87891 -0.9961,-0.88867 -0.9961,-2.24609 0,-1.65039 1.25,-2.5586 1.2597,-0.91797 3.5351,-0.91797 l 1.7579,0 0,-0.83007 q 0,-0.94727 -0.5665,-1.50391 -0.5664,-0.56641 -1.6699,-0.56641 -0.9668,0 -1.6211,0.48829 -0.6543,0.48828 -0.6543,1.18164 l -1.8164,0 q 0,-0.79102 0.5567,-1.52344 0.5664,-0.74219 1.5234,-1.17188 0.9668,-0.42968 2.1191,-0.42968 1.8262,0 2.8614,0.91796 1.0351,0.90821 1.0742,2.50977 l 0,4.86328 q 0,1.45508 0.3711,2.31445 l 0,0.15625 -1.8945,0 z m -2.9981,-1.37695 q 0.8496,0 1.6113,-0.43945 0.7618,-0.43945 1.1036,-1.14258 l 0,-2.16797 -1.4161,0 q -3.3203,0 -3.3203,1.94336 0,0.84961 0.5664,1.32813 0.5664,0.47851 1.4551,0.47851 z"
               style="font-style:normal;font-variant:normal;font-weight:normal;font-stretch:normal;font-size:20px;line-height:120.00000477%;font-family:Roboto;-inkscape-font-specification:Roboto;fill:#ffffff;fill-opacity:1"
               id="path12227" />
            <path
               d="m 1281.7344,-664.85547 q -0.4102,-0.0684 -0.8887,-0.0684 -1.7773,0 -2.4121,1.51367 l 0,7.5 -1.8066,0 0,-10.5664 1.7578,0 0.029,1.2207 q 0.8886,-1.41601 2.5195,-1.41601 0.5273,0 0.8008,0.13671 l 0,1.67969 z"
               style="font-style:normal;font-variant:normal;font-weight:normal;font-stretch:normal;font-size:20px;line-height:120.00000477%;font-family:Roboto;-inkscape-font-specification:Roboto;fill:#ffffff;fill-opacity:1"
               id="path12229" />
          </g>
        </g>
      </g>
    </g>
  </g>
</svg>
